<?xml version="1.0" encoding="UTF-8" standalone="no"?>
<!-- Created with Inkscape (http://www.inkscape.org/) -->

<svg
   xmlns:dc="http://purl.org/dc/elements/1.1/"
   xmlns:cc="http://creativecommons.org/ns#"
   xmlns:rdf="http://www.w3.org/1999/02/22-rdf-syntax-ns#"
   xmlns:svg="http://www.w3.org/2000/svg"
   xmlns="http://www.w3.org/2000/svg"
   xmlns:sodipodi="http://sodipodi.sourceforge.net/DTD/sodipodi-0.dtd"
   xmlns:inkscape="http://www.inkscape.org/namespaces/inkscape"
   id="svg3356"
   version="1.1"
   inkscape:version="0.91 r13725"
   width="479.0625"
   height="375"
   viewBox="0 0 479.0625 375"
   sodipodi:docname="Divider3.svg">
  <metadata
     id="metadata3362">
    <rdf:RDF>
      <cc:Work
         rdf:about="">
        <dc:format>image/svg+xml</dc:format>
        <dc:type
           rdf:resource="http://purl.org/dc/dcmitype/StillImage" />
        <dc:title></dc:title>
      </cc:Work>
    </rdf:RDF>
  </metadata>
  <defs
     id="defs3360" />
  <sodipodi:namedview
     pagecolor="#ffffff"
     bordercolor="#666666"
     borderopacity="1"
     objecttolerance="10"
     gridtolerance="10"
     guidetolerance="10"
     inkscape:pageopacity="0"
     inkscape:pageshadow="2"
     inkscape:window-width="1600"
     inkscape:window-height="837"
     id="namedview3358"
     showgrid="false"
     inkscape:zoom="1.7866667"
     inkscape:cx="239.53125"
     inkscape:cy="187.5"
     inkscape:window-x="-8"
     inkscape:window-y="-8"
     inkscape:window-maximized="1"
     inkscape:current-layer="svg3356" />
  <path
     style="fill:#000000"
     d="m 231.39708,373.81223 c -0.77981,-0.63579 -1.98789,-3.68723 -2.68462,-6.78098 -1.10038,-4.88614 -1.98135,-6.32981 -6.70684,-10.99076 -2.99204,-2.95117 -6.70638,-6.0206 -8.2541,-6.82095 -1.54771,-0.80036 -2.81402,-1.86502 -2.81402,-2.36592 0,-0.50089 -1.46077,-2.52762 -3.24616,-4.50383 -4.68512,-5.18587 -7.04258,-11.36253 -7.30906,-19.14999 l -0.22603,-6.60585 -4.81063,-1.56621 C 189.32265,313.06685 184.51803,308.98634 177.65104,300 167.36998,286.54592 163.91532,283.74582 155.15625,281.76733 l -4.6875,-1.0588 2.8125,-2.66847 c 1.54687,-1.46767 5.34375,-3.89464 8.4375,-5.39328 4.97701,-2.41091 6.48096,-2.6962 13.05525,-2.47654 5.90118,0.19719 7.50592,-0.0359 7.79799,-1.13286 1.77648,-6.6718 7.82758,-13.62864 13.84381,-15.91602 6.45817,-2.45538 16.2043,-0.41513 19.66009,4.11564 3.67544,4.81876 3.18301,6.70963 -2.09152,8.03103 -2.44921,0.6136 -5.44339,2.03477 -6.65373,3.15817 -3.42125,3.17551 -5.98378,9.00641 -6.05579,13.7796 -0.15508,10.28032 8.52426,15.96672 21.24393,13.91828 3.14325,-0.50621 5.91853,-1.12389 6.16726,-1.37263 0.24874,-0.24873 -0.19749,-1.52308 -0.99163,-2.83187 -1.29278,-2.13062 -2.09388,-2.39644 -7.65543,-2.54024 -6.00766,-0.15532 -6.35131,-0.29778 -10.46902,-4.34016 -2.3416,-2.29876 -4.25746,-4.51703 -4.25746,-4.92946 0,-0.41244 1.6944,-1.42786 3.76533,-2.25649 4.64251,-1.85756 10.68233,-8.54267 11.96857,-13.24729 0.52813,-1.93171 2.51493,-7.09813 4.41511,-11.48094 1.90018,-4.38281 3.5229,-8.57806 3.60606,-9.32278 0.25861,-2.31621 -12.04601,-6.90697 -18.59882,-6.93907 -11.25731,-0.0551 -31.11103,10.72528 -41.76382,22.67743 -4.33771,4.86681 -4.65723,5.04175 -8.09482,4.43189 -6.64535,-1.17898 -6.86011,-1.34078 -6.86011,-5.16846 0,-4.51288 -0.96445,-9.42901 -1.84981,-9.42901 -0.37285,0 -1.4482,1.70817 -2.38965,3.79594 -1.63567,3.62724 -1.88124,3.78348 -5.5261,3.51562 -3.80046,-0.27929 -3.81674,-0.29704 -4.46552,-4.8651 -2.0227,-14.24194 -14.32334,-22.47736 -26.55952,-17.7819 -0.88058,0.33791 -1.6248,-0.77929 -2.37499,-3.56532 -2.7455,-10.19601 -7.5053,-16.14013 -14.568557,-18.19347 -4.171812,-1.21278 -5.6502,-2.37579 -11.030512,-8.67744 -3.417165,-4.00231 -6.745392,-7.94715 -7.396059,-8.76628 -0.650668,-0.81913 -3.055316,-1.76805 -5.343664,-2.1087 C 67.477417,192.01852 58.845329,188.64956 45.670755,182.35661 37.757267,178.57666 35.308739,176.79464 27.838117,169.37815 16.76238,158.38267 10.804481,149.37385 4.8048722,134.55009 L 0,122.67828 0.01874302,107.51101 C 0.02905169,99.169022 0.60630746,88.845251 1.3015336,84.569309 c 1.0243831,-6.3004 1.0407603,-8.43341 0.086378,-11.25 C 0.06455022,69.413787 1.0718443,58.816112 2.9855945,56.510183 4.381601,54.828099 8.9048972,52.367853 13.125,50.995304 l 3.28125,-1.067196 -3.046875,-1.149515 C 6.5885705,46.224126 11.200747,37.600909 21.413313,33.720439 24.084552,32.705448 27.580987,31.875 29.183167,31.875 c 2.661695,0 4.167905,-0.917254 11.134586,-6.780759 C 45.722219,20.545574 73.404322,10.3125 80.304728,10.3125 c 2.582111,0 3.534489,-0.5480016 4.807634,-2.7663298 2.044654,-3.5626034 7.884473,-6.82926693 12.42136,-6.94822873 4.153148,-0.1088998 6.780608,1.88641863 9.499758,7.21419983 1.2522,2.4534987 2.2804,3.4220827 3.24128,3.0533587 2.42687,-0.9312784 17.3678,3.309204 25.10969,7.126545 8.40693,4.145257 11.89509,6.389906 16.24175,10.451635 l 3.03245,2.833672 7.7488,-2.488107 c 4.26184,-1.368459 9.64724,-2.94575 11.96755,-3.505089 9.48679,-2.286907 25.17022,-5.445061 30.09034,-6.059257 6.07925,-0.758895 6.34777,-0.902136 9.11106,-4.860291 3.56442,-5.1056875 12.5423,-11.1391723 19.29515,-12.9670854 7.1291,-1.92975569 13.44984,-1.50370078 22.44558,1.5129612 7.01149,2.3512599 10.85897,5.1584866 15.39224,11.2306212 3.43999,4.607726 3.44226,4.608895 8.95459,4.608895 3.03255,0 8.53233,0.864355 12.22175,1.920789 3.68942,1.056434 8.39554,2.33999 10.45804,2.852346 2.0625,0.512356 7.54687,2.214451 12.1875,3.782435 16.02809,5.415599 14.45933,5.302902 20.70529,1.487447 6.56872,-4.012621 18.34691,-8.415643 29.57877,-11.057383 7.60244,-1.7881 8.12982,-2.070688 8.64179,-4.630517 1.1615,-5.8074933 14.03015,-10.5809718 19.96384,-7.4053578 1.29769,0.6945013 3.40975,3.054972 4.69349,5.2454908 2.1799,3.719723 2.86546,4.144851 10.38038,6.437044 8.20413,2.502413 27.22159,11.0238 31.89097,14.289777 1.61211,1.127584 4.95158,2.019634 8.88467,2.373297 10.08907,0.907209 14.74852,4.347049 17.65227,13.031794 1.0001,2.991205 2.46154,5.373942 3.68847,6.01375 2.84127,1.481633 6.07821,6.608622 7.31954,11.593427 0.97272,3.906169 0.85319,4.563926 -1.62861,8.961433 -2.27974,4.03948 -2.56713,5.295776 -1.93087,8.440661 0.41113,2.03215 1.47711,7.280754 2.36883,11.663567 0.89172,4.382812 1.62665,12.1875 1.63319,17.34375 0.0106,8.32257 -0.35664,10.42743 -3.27085,18.75 -5.29171,15.11231 -13.22013,29.46694 -20.6541,37.3948 -1.50475,1.60474 -4.07042,4.34973 -5.70149,6.10001 -2.58994,2.77921 -14.77605,11.34894 -16.13813,11.34894 -0.27342,0 -1.64019,0.83279 -3.03728,1.85065 -2.63356,1.91869 -23.97624,9.31075 -27.6434,9.57431 -1.14635,0.0824 -2.92802,-0.11079 -3.95927,-0.42928 -1.52784,-0.47186 -2.56263,0.49615 -5.58887,5.22824 -5.43083,8.49211 -8.70674,12.07654 -13.48718,14.75742 -5.29358,2.96863 -7.38305,6.05838 -9.63875,14.25303 -1.04262,3.78772 -1.58045,4.46169 -3.59925,4.5104 -4.7244,0.11401 -12.43022,3.30321 -16.85068,6.97398 -4.5269,3.75916 -9.16752,11.00007 -11.26561,17.57812 -0.98339,3.08319 -1.48716,3.5172 -4.09549,3.52843 -1.6358,0.007 -3.88272,0.25654 -4.99317,0.55446 -1.54566,0.41467 -2.18224,0.027 -2.71528,-1.65343 -0.38297,-1.20729 -2.0699,-5.14821 -3.74875,-8.75758 -1.67885,-3.60938 -3.35374,-7.40625 -3.72199,-8.4375 -0.62601,-1.75312 -0.71558,-1.72265 -1.37796,0.46875 -1.11759,3.6974 -2.82327,15.6021 -2.82327,19.7049 l 0,3.7326 -4.10331,0 c -4.05972,0 -4.12548,-0.0522 -6.19243,-4.92188 -4.817,-11.34855 -11.38586,-18.81125 -20.17301,-22.91799 -5.14606,-2.40504 -6.54945,-2.62888 -16.48238,-2.62888 -9.54279,0 -11.44714,0.27623 -15.72846,2.2815 -5.43817,2.54709 -6.77415,5.1072 -4.51181,8.64582 0.77276,1.20872 2.46836,5.69936 3.768,9.97917 2.62476,8.64363 6.2998,15.59126 9.01618,17.04502 0.98118,0.5251 3.26335,0.95474 5.07151,0.95474 4.34841,0 4.86054,1.15465 2.43011,5.47901 -2.72402,4.84674 -6.16268,6.70849 -12.39062,6.70849 -3.75083,0 -5.51128,0.45371 -6.65223,1.71444 -2.10943,2.3309 -1.99828,2.63391 1.40084,3.81884 8.65674,3.01776 19.24905,-1.53252 22.29766,-9.57869 3.35967,-8.86713 -2.84956,-18.02582 -13.81516,-20.37752 -5.88596,-1.26231 -6.2026,-2.69488 -1.56282,-7.07075 5.14757,-4.85479 12.71503,-6.25421 21.65159,-4.00396 5.18291,1.30507 13.33828,8.43147 15.73743,13.75183 1.46334,3.24511 2.30225,3.88288 6.96691,5.29648 6.28906,1.90586 9.44305,4.42977 13.79675,11.04053 4.48099,6.80404 4.31466,7.2838 -2.52536,7.2838 -7.04499,0 -12.42344,1.44909 -16.74939,4.51271 -3.21048,2.27365 -11.34979,10.25664 -12.84153,12.5949 -1.17247,1.83781 -7.97128,6.04912 -10.83035,6.70852 -2.54112,0.58606 -2.57812,0.69947 -2.57812,7.90155 0,6.86067 -0.23358,7.70415 -3.8244,13.81026 -2.46973,4.19973 -7.22859,9.82408 -13.43492,15.87831 -5.44716,5.31367 -11.09918,11.86226 -13.04687,15.11648 -4.27355,7.14032 -5.45897,8.21383 -7.35923,6.6645 z m 6.31477,-32.32786 c 2.32211,-4.87239 5.10065,-15.79868 5.10065,-20.05768 0,-4.09677 -3.18197,-13.22568 -5.19115,-14.89316 -1.14768,-0.95248 -1.78027,-0.24275 -3.893,4.36772 -3.53337,7.71064 -4.08691,18.43317 -1.32473,25.66125 1.08374,2.83594 1.97065,5.89453 1.97091,6.79688 7.8e-4,2.72775 1.56165,1.85082 3.33732,-1.875 z m 1.58859,-59.54492 c 2.29745,-3.50637 3.30139,-10.27325 2.44893,-16.50662 -0.77409,-5.66021 -2.98747,-12.30783 -4.098,-12.30783 -0.31312,0 -1.44525,1.98023 -2.51586,4.40052 -2.59364,5.86334 -2.79937,15.99116 -0.44859,22.08385 1.93527,5.01583 2.62537,5.36437 4.61352,2.33008 z m -71.30315,-37.52234 4.40354,-3.94836 -0.79228,-9.66998 c -0.43575,-5.31851 -0.98628,-9.864 -1.22339,-10.10111 -0.2371,-0.23711 -2.61434,2.89436 -5.28274,6.95883 l -4.85163,7.38993 1.10575,6.69554 c 0.60815,3.68255 1.36032,6.67933 1.67148,6.65952 0.31115,-0.0198 2.54732,-1.81278 4.96927,-3.98437 z m 139.18487,-0.43274 c -0.23568,-0.38671 0.11828,-3.86718 0.78659,-7.73437 0.66831,-3.86719 0.96838,-7.45313 0.66683,-7.96875 C 306.93014,225.36503 300.59727,217.5 299.9546,217.5 c -0.4167,0 -1.24325,2.42578 -1.83678,5.39062 -0.59353,2.96485 -1.45079,7.07813 -1.90501,9.14063 -0.79929,3.62933 -0.6849,3.8933 3.55479,8.20312 2.40937,2.44922 5.1597,4.45313 6.11187,4.45313 0.95215,0 1.53836,-0.31641 1.30269,-0.70313 z m 24.98796,-2.60993 c 0.86893,-1.82218 1.57988,-3.76275 1.57988,-4.31239 0,-0.54963 -2.41089,-5.25732 -5.35754,-10.46152 l -5.35755,-9.46221 -1.44501,6.04022 c -1.44429,6.03718 -1.44378,6.04208 1.00339,9.79021 1.34662,2.0625 3.22333,5.54297 4.17047,7.73437 0.94715,2.19141 2.19557,3.98438 2.77428,3.98438 0.5787,0 1.76313,-1.49088 2.63208,-3.31306 z m -183.51877,-6.48703 c 1.38536,-2.11433 1.3836,-2.73898 -0.0218,-7.73438 -0.84091,-2.98885 -1.74029,-6.04822 -1.99864,-6.79859 -0.4717,-1.37008 -6.00588,7.24551 -6.00588,9.34994 0,1.23289 4.87593,7.48305 5.83777,7.48309 0.37483,2e-5 1.35969,-1.03501 2.18858,-2.30006 z m 90.03147,-0.61217 c 0.98227,-1.08611 3.34823,-2.77212 5.2577,-3.74668 3.41201,-1.74143 3.45051,-1.82245 2.23695,-4.70867 -1.44182,-3.42907 -8.73133,-13.00739 -9.89919,-13.00739 -2.57322,0 -11.05331,14.60345 -10.02945,17.27158 0.49828,1.29849 7.7984,5.90561 9.62149,6.07214 0.56462,0.0516 1.83025,-0.79486 2.8125,-1.88098 z m -48.89394,-2.18283 c 3.52008,-1.77106 7.95443,-3.48269 9.85414,-3.80364 3.15041,-0.53227 3.42,-0.81514 3.06728,-3.2184 -0.47942,-3.26652 1.8717,-7.986 4.99933,-10.0353 1.83319,-1.20115 3.60269,-1.41501 7.94924,-0.9607 3.51525,0.36741 5.59113,0.23386 5.59113,-0.3597 0,-0.51923 1.71375,-2.80326 3.80833,-5.07562 3.762,-4.08128 3.79052,-4.16602 2.34375,-6.96374 -0.80552,-1.55771 -1.48133,-4.64612 -1.50181,-6.86313 -0.0318,-3.43754 -0.64727,-4.69373 -4.1813,-8.53341 l -4.1441,-4.50247 -8.67788,5.83498 c -4.77283,3.20925 -13.47113,9.62148 -19.32955,14.2494 -8.91532,7.04276 -10.55921,8.73585 -10.0844,10.38624 0.93803,3.26047 2.23725,10.98337 2.8946,17.20621 0.34043,3.22265 0.70719,5.85937 0.81503,5.85937 0.10785,0 3.07614,-1.44904 6.59621,-3.22009 z m 156.59715,-8.99272 c 0.0184,-5.10142 0.28146,-5.83726 2.83272,-7.92196 3.32684,-2.71845 7.65332,-3.74645 12.1875,-2.89584 2.01835,0.37865 3.28125,0.24527 3.28125,-0.34654 0,-0.52917 1.05469,-1.22683 2.34375,-1.55037 1.28906,-0.32354 2.34375,-0.75193 2.34375,-0.95197 0,-0.20005 -2.13929,-3.36183 -4.75397,-7.02617 -2.61469,-3.66434 -4.97652,-7.24237 -5.24852,-7.9512 -0.27199,-0.70882 1.85263,-5.72351 4.72141,-11.14376 l 5.21597,-9.855 -2.48962,-0.62485 c -1.97152,-0.49483 -2.79198,-0.1695 -3.94251,1.5633 -2.12337,3.19797 -3.72489,8.21348 -4.40902,13.80779 -0.46209,3.77865 -0.97334,4.92188 -2.20105,4.92188 -2.0135,0 -11.38024,-3.18381 -16.76134,-5.69727 -2.24807,-1.05005 -4.21267,-1.77976 -4.36578,-1.62159 -0.64703,0.66843 -7.93764,16.29545 -7.945,17.02966 -0.005,0.4425 2.73412,5.58046 6.08568,11.41768 3.35156,5.83723 6.09375,10.89443 6.09375,11.23823 0,0.3438 0.89813,1.8864 1.99584,3.428 1.82928,2.56898 2.12099,2.67775 3.49541,1.30333 1.03539,-1.0354 1.50582,-3.24032 1.51978,-7.12335 z m -59.51103,4.81545 c 0,-0.97481 1.08548,-5.93184 2.41219,-11.01563 l 2.41218,-9.24326 -4.99031,-4.62385 c -6.16366,-5.71105 -23.62383,-18.77863 -27.65883,-20.70051 -2.8533,-1.35903 -3.15451,-1.30387 -7.03125,1.28753 -2.22763,1.48907 -5.01016,3.0032 -6.18343,3.36473 l -2.13318,0.65732 2.36756,2.8137 c 3.08854,3.67052 3.07063,7.93466 -0.0527,12.53706 -1.90646,2.80935 -2.15189,3.71656 -1.15617,4.27379 0.69521,0.38907 2.46694,1.82221 3.93715,3.18476 1.72975,1.60307 3.21307,2.25147 4.20306,1.83728 3.67174,-1.53618 10.42448,-1.57387 12.71817,-0.071 2.31779,1.51868 4.26547,6.494 4.27528,10.9212 0.005,2.11396 0.70618,2.56547 6.80211,4.37819 8.6467,2.57123 10.07812,2.62785 10.07812,0.39868 z m -72.1875,-4.37672 c 0,-1.3781 -2.00146,-1.84946 -3.11687,-0.73405 -0.84781,0.8478 1.25327,3.23674 2.2856,2.59873 0.4572,-0.28257 0.83127,-1.12167 0.83127,-1.86468 z m -76.39196,-9.29308 c 2.31245,-4.05784 4.20446,-7.77703 4.20446,-8.26488 0,-0.48786 -1.95277,-5.51334 -4.33947,-11.16775 -3.4153,-8.09128 -4.66316,-10.17048 -5.85938,-9.76294 -0.83595,0.28479 -5.10584,1.78737 -9.48865,3.33905 -4.38281,1.55169 -8.92027,2.83023 -10.08323,2.84121 -1.51398,0.0143 -3.34298,1.72767 -6.44022,6.03309 -2.37916,3.3072 -4.38076,6.21291 -4.44801,6.45712 -0.0672,0.24421 2.10683,2.11894 4.83131,4.16607 l 4.95359,3.72206 3.7276,-1.84427 c 4.50989,-2.23131 9.0451,-1.66653 12.84174,1.59919 2.15977,1.85776 2.60289,3.02891 2.73323,7.22384 0.0856,2.75364 0.19289,5.20249 0.23853,5.44189 0.21938,1.15102 3.33007,-3.11831 7.1285,-9.78368 z m 122.32946,7.42844 c 0,-1.76146 -1.84973,-2.69906 -3.01867,-1.53011 -1.39999,1.39999 -0.16846,4.00374 1.57694,3.33397 0.79295,-0.30428 1.44173,-1.11602 1.44173,-1.80386 z m 97.85264,0.94699 c 0.31858,-0.83022 -0.0537,-1.67464 -0.87763,-1.99082 -1.83432,-0.70391 -2.67138,0.14248 -1.964,1.98587 0.71165,1.85453 2.13093,1.857 2.84163,0.005 z m -237.07139,-3.31106 c 0,-0.7234 -0.73828,-1.45746 -1.64062,-1.63124 -1.61601,-0.31121 -2.28407,1.67808 -0.9961,2.96606 0.9827,0.98269 2.63672,0.14536 2.63672,-1.33482 z m 38.29462,-0.63784 c 1.10108,-1.41796 3.52734,-4.26562 5.39167,-6.32812 1.86433,-2.0625 3.22009,-4.38281 3.01278,-5.15625 -1.50595,-5.61854 -3.61036,-11.25 -4.20398,-11.25 -0.3907,0 -1.21236,0.94922 -1.82592,2.10937 -0.61355,1.16016 -2.77105,3.99957 -4.79446,6.30979 -3.05593,3.48911 -3.58477,4.67114 -3.12297,6.98018 1.03362,5.16808 2.47385,9.91316 3.00884,9.91316 0.29264,0 1.43296,-1.16016 2.53404,-2.57813 z m 154.24391,-7.88731 1.34727,-5.17254 -3.66165,-5.27044 c -2.01391,-2.89874 -3.87786,-5.28645 -4.14211,-5.30601 -0.26425,-0.0196 -1.25352,2.66379 -2.19837,5.96301 l -1.71792,5.99859 3.60463,4.7251 c 1.98254,2.59882 4.01328,4.6148 4.51275,4.47997 0.49947,-0.13484 1.5144,-2.57279 2.2554,-5.41768 z m 69.38856,-11.7726 c 2.11978,-2.69187 3.85416,-5.22312 3.85417,-5.625 2e-5,-1.32507 -6.88645,-15.26196 -7.5412,-15.26196 -0.35247,0 -2.78844,3.25184 -5.41328,7.22632 l -4.77244,7.2263 2.9184,5.19557 c 5.05733,9.00348 4.85758,8.98089 10.95435,1.23877 z m -144.84741,-1.63523 c 1.41733,-2.16312 1.40056,-2.37151 -0.26249,-3.26154 -2.27775,-1.21902 -4.26227,0.91655 -3.39397,3.65232 0.80331,2.53101 1.81271,2.42313 3.65646,-0.39078 z m -82.02817,-5.80452 c 2.77833,-3.89541 4.67677,-7.35445 4.21875,-7.68676 -0.45801,-0.33231 -2.07048,-3.24092 -3.58326,-6.46357 -1.51278,-3.22266 -3.10722,-5.85938 -3.54321,-5.85938 -0.43598,0 -2.87826,1.64855 -5.42729,3.66343 -2.54902,2.01489 -5.08629,3.814 -5.6384,3.99804 -0.59812,0.19937 0.30941,3.17686 2.24556,7.36741 1.78715,3.86805 3.53882,8.18612 3.89261,9.59572 0.35379,1.4096 1.12485,2.54147 1.71349,2.51528 0.58863,-0.0262 3.34342,-3.23476 6.12175,-7.13017 z m 30.57349,-1.30822 c 8.21878,-6.33349 17.49591,-12.63773 21.91461,-14.89199 2.12665,-1.08493 3.86488,-2.0695 3.86271,-2.18793 -0.002,-0.11843 -1.05684,-2.29073 -2.34375,-4.82733 -1.2869,-2.53661 -2.33982,-5.21847 -2.33982,-5.95968 0,-0.79995 -0.55956,-1.13294 -1.3768,-0.81933 -3.56961,1.36978 -21.38963,14.36838 -27.55392,20.09887 l -6.89946,6.41393 1.66509,5.28231 1.66511,5.2823 2.89062,-2.02822 c 1.58983,-1.11552 5.42186,-3.97885 8.51561,-6.36293 z m 110.64217,0.9293 1.7474,-5.77128 -7.91353,-7.48444 c -7.56641,-7.15615 -21.83348,-18.56257 -23.21793,-18.56257 -0.36175,0 -1.52792,2.63672 -2.59147,5.85937 -1.06356,3.22266 -2.22079,6.49219 -2.57164,7.26563 -0.46886,1.03363 0.78541,2.14889 4.73355,4.20892 5.24541,2.73692 21.48279,15.12701 24.99987,19.07639 0.97125,1.09064 2.05852,1.80214 2.41614,1.58112 0.35761,-0.22102 1.43654,-2.99893 2.39761,-6.17314 z m -200.252198,2.03118 c 1.590206,-2.0078 2.891278,-4.14663 2.891278,-4.75297 0,-1.081 -5.372597,-9.409 -6.069984,-9.409 -0.195197,0 -1.694402,2.34119 -3.331561,5.20265 l -2.976652,5.20264 2.5666,3.70361 c 1.411629,2.03698 2.895648,3.7036 3.297819,3.7036 0.402169,0 2.032294,-1.64274 3.6225,-3.65053 z M 327.1875,179.18081 c 0,-0.71054 -9.40356,-7.01151 -9.74616,-6.53053 -0.12475,0.17516 -1.359,2.98552 -2.74276,6.24523 l -2.51594,5.92676 3.98681,5.12077 3.9868,5.12077 3.51562,-7.63294 c 1.9336,-4.19812 3.51563,-7.91065 3.51563,-8.25006 z m 70.25959,7.14731 c -0.0291,-3.22265 -0.56584,-7.33593 -1.19274,-9.14062 -1.07487,-3.0943 -1.35174,-3.26398 -4.85946,-2.97824 -2.04582,0.16665 -3.8482,0.43155 -4.00531,0.58866 -0.55072,0.55072 8.41363,17.38958 9.25753,17.38958 0.46909,0 0.82908,-2.63672 0.79998,-5.85938 z M 109.65788,175.78125 c -1.50324,-5.11761 -2.49302,-6.09375 -6.17892,-6.09375 -3.862948,0 -3.934263,0.8875 -0.47609,5.92483 1.4797,2.15541 3.69455,6.23923 4.92188,9.07517 l 2.2315,5.15625 0.30158,-5.15625 c 0.16587,-2.83594 -0.19411,-6.84375 -0.79995,-8.90625 z m -27.550928,3.66034 c 2.393364,-4.39069 4.199184,-8.13151 4.012934,-8.31294 -0.18625,-0.18142 -1.805944,-0.47443 -3.599319,-0.65113 -3.250224,-0.32024 -3.265771,-0.30322 -4.846854,5.30373 -1.776628,6.30041 -2.23586,13.07571 -0.827272,12.20515 0.499918,-0.30897 2.867148,-4.15413 5.260511,-8.54481 z m 336.565798,0.0929 c 4.25895,-2.49589 5.31762,-4.22199 2.58949,-4.22199 -0.85265,0 -3.15875,-1.74231 -5.12468,-3.8718 l -3.57443,-3.8718 -3.22012,1.52805 c -1.77107,0.84043 -3.69343,1.52805 -4.27193,1.52805 -0.69716,0 -0.60584,0.71123 0.27084,2.10937 0.72744,1.16016 1.61922,3.79366 1.98171,5.85224 0.3625,2.05858 0.83741,4.0314 1.05537,4.38406 0.59991,0.97066 5.65146,-0.71559 10.29375,-3.43616 z m -180.37567,0.2647 c 2.74129,-1.65732 5.15995,-3.13388 5.3748,-3.28125 0.84008,-0.57627 -0.88713,-1.41101 -4.68563,-2.26447 -2.6649,-0.59876 -4.29338,-0.57136 -4.94799,0.0833 -0.53667,0.53667 -1.92117,0.97576 -3.07668,0.97576 -3.30645,0 -3.5816,1.78971 -0.73235,4.76368 1.44186,1.50498 2.72554,2.73632 2.85263,2.73632 0.12708,0 2.47393,-1.35598 5.21522,-3.01329 z m 111.95214,-1.43982 c 0.27658,-0.90234 1.31803,-3.44488 2.31433,-5.65007 0.99629,-2.2052 1.81145,-4.20054 1.81145,-4.43408 0,-0.52282 -7.62417,-4.46108 -7.82839,-4.04375 -0.0807,0.16488 -1.02913,1.5654 -2.10766,3.11228 -1.07852,1.54687 -2.65341,4.15158 -3.49974,5.78824 l -1.53879,2.97573 3.50292,1.8238 c 4.50946,2.34785 6.71794,2.47648 7.34588,0.42785 z M 66.877546,173.45166 c 1.918887,-6.90186 1.929134,-6.57666 -0.207224,-6.57666 -0.971949,0 -2.481325,1.08993 -3.35417,2.42206 -0.872845,1.33212 -3.086257,3.04849 -4.918693,3.81412 -1.990024,0.83149 -2.989749,1.73403 -2.482555,2.24122 0.742776,0.74278 7.353303,3.4637 8.853267,3.64404 0.302181,0.0363 1.2514,-2.45882 2.109375,-5.54478 z m 61.778064,2.92915 c 1.04864,-1.00883 -5.90643,-11.38282 -7.62045,-11.36646 -3.44874,0.0329 -3.92826,1.27732 -2.36476,6.13682 0.81932,2.54654 1.66905,5.20354 1.88829,5.90443 0.29236,0.93467 1.33309,1.10264 3.90434,0.63017 1.92814,-0.3543 3.8148,-0.94153 4.19258,-1.30496 z M 168.75,177.1875 c 0,-0.51563 0.43211,-0.9375 0.96025,-0.9375 0.52814,0 5.1937,-3.67875 10.36791,-8.175 7.76323,-6.74603 9.29496,-8.50765 8.76294,-10.07813 -0.35459,-1.04671 -0.69593,-3.36119 -0.75853,-5.14327 -0.10004,-2.84789 0.34016,-3.49851 3.63618,-5.37428 2.0625,-1.17376 4.09106,-2.25516 4.50791,-2.40311 0.41686,-0.14794 -0.27435,-2.15921 -1.536,-4.46947 -1.26166,-2.31027 -2.80828,-5.82096 -3.43694,-7.80152 -1.11046,-3.4985 -1.23975,-3.58288 -4.54048,-2.96366 -5.39421,1.01195 -6.09786,1.74293 -9.36148,9.7251 -3.18322,7.7855 -10.58872,19.90902 -14.00757,22.93173 l -1.94219,1.71716 2.73576,5.78284 c 1.50467,3.18058 2.7361,6.3102 2.7365,6.95473 4e-4,0.64454 0.42262,1.17188 0.93824,1.17188 0.51562,0 0.9375,-0.42188 0.9375,-0.9375 z m 138.63127,-7.99795 3.16252,-6.11602 -3.21048,-4.89614 c -3.30002,-5.0327 -6.41144,-11.29481 -10.70315,-21.54141 -2.9138,-6.95677 -2.22014,-6.04367 -5.14977,-6.77896 -2.25032,-0.56479 -2.56925,-0.22311 -4.49917,4.82007 -1.14244,2.98538 -3.11026,6.78243 -4.37294,8.43788 -1.26268,1.65546 -2.29578,3.20111 -2.29578,3.43478 0,0.23367 1.79297,0.69601 3.98437,1.02741 6.7797,1.02529 6.99554,1.38969 5.08029,8.57736 l -1.66644,6.25391 2.16027,1.48197 c 1.18815,0.81508 4.48057,3.70999 7.31651,6.43314 2.83594,2.72314 5.57812,4.95812 6.09375,4.9666 0.51562,0.008 2.36063,-2.73679 4.10002,-6.10059 z m -164.30705,-1.46128 c 2.00449,-1.59321 4.21716,-3.21735 4.91705,-3.60922 1.01415,-0.56782 0.80402,-1.45483 -1.03492,-4.36889 -1.26908,-2.01102 -2.60843,-4.60563 -2.97632,-5.76578 -0.9041,-2.85113 -1.83779,-2.68213 -7.44817,1.3482 -2.64721,1.90167 -4.95577,3.55605 -5.13014,3.6764 -0.32326,0.22314 4.1323,8.3168 5.7495,10.44415 1.27575,1.67818 1.85293,1.51009 5.923,-1.72486 z M 432.9375,169.5 c 1.57517,-1.57517 1.35008,-9.27959 -0.33628,-11.51055 -1.17047,-1.54844 -1.6681,-1.66086 -3.01706,-0.68153 -0.88847,0.64501 -2.97829,2.04362 -4.64404,3.10801 -2.90206,1.85437 -2.97321,2.04242 -1.70245,4.49982 1.89462,3.66376 3.20979,4.5777 8.0592,5.6005 0.2836,0.0598 1.02188,-0.3975 1.64063,-1.01625 z m -97.29186,-4.21479 c 1.53553,-2.42127 2.79186,-5.07562 2.79186,-5.89856 0,-0.82294 -1.81011,-3.27274 -4.02247,-5.44401 l -4.02246,-3.94775 -3.47754,5.94475 c -1.91264,3.26962 -3.47753,6.20457 -3.47753,6.52212 0,0.56261 8.35614,7.22574 9.06172,7.22574 0.19501,0 1.61091,-1.98103 3.14642,-4.40229 z m -109.83248,-4.1922 c -1.55381,-1.96184 -3.21617,-3.80868 -3.69413,-4.10408 -1.89314,-1.17002 -0.64094,-4.56216 4.27267,-11.5744 4.87881,-6.96258 5.05629,-7.41506 3.47135,-8.84941 -1.56678,-1.41792 -1.97992,-1.098 -6.66256,5.15934 l -4.99221,6.671 0.43219,6.66164 c 0.2377,3.66391 1.12026,7.98709 1.96122,9.60707 l 1.52903,2.94543 3.25378,-1.4748 3.25377,-1.4748 -2.82511,-3.56699 z m 28.10342,3.20386 c 2.74924,-5.4693 4.05217,-10.20627 4.05217,-14.73209 0,-4.68648 0.79784,-5.63135 5.46875,-6.47652 4.68808,-0.84827 8.88476,-3.67774 12.15915,-8.1979 2.39735,-3.30945 2.84085,-4.78371 2.84085,-9.44337 0,-9.57667 -4.39015,-15.49184 -15.10292,-20.34925 l -6.19004,-2.80669 -0.64361,-6.281947 c -0.54452,-5.314851 -2.29941,-14.103345 -3.04493,-15.249049 -0.11943,-0.183532 -1.96629,1.503968 -4.10414,3.75 -2.39143,2.512439 -3.58565,4.473652 -3.10381,5.09719 3.41796,4.423003 7.81445,11.852916 7.81445,13.206136 0,0.90941 -1.97617,3.65981 -4.3915,6.11201 -4.15524,4.21867 -4.32325,4.58608 -3.12283,6.82908 1.85353,3.46336 3.78457,2.87211 7.85524,-2.40513 2.08755,-2.70632 4.23635,-4.57606 5.07185,-4.41319 0.79733,0.15543 3.4826,3.02479 5.96726,6.37635 2.48466,3.35156 5.40458,7.25655 6.48869,8.67774 1.08412,1.42121 1.83138,2.97719 1.66059,3.45775 -0.46424,1.30618 -15.89004,16.92701 -16.71568,16.92701 -0.39201,0 -2.26838,-1.89844 -4.1697,-4.21875 -3.80579,-4.64446 -3.98939,-4.72648 -6.43287,-2.8738 -1.59496,1.20932 -1.47048,1.58173 2.10535,6.29831 2.09029,2.75714 3.80235,5.41219 3.80457,5.9001 0.005,0.97194 -3.59282,6.53031 -7.7278,11.94081 l -2.63889,3.4529 4.48224,1.37136 c 2.46523,0.75425 4.79006,1.41528 5.1663,1.46896 0.37624,0.0537 1.4793,-1.48442 2.45126,-3.41802 z m -201.766615,0.78015 c 2.127793,-0.96623 4.093683,-2.12079 4.368642,-2.56568 0.27496,-0.4449 -1.536977,-2.15677 -4.026528,-3.80417 l -4.526455,-2.99525 -1.014062,2.90894 c -1.372948,3.93843 -1.290136,8.25899 0.157813,8.23355 0.644531,-0.0113 2.912797,-0.81114 5.04059,-1.77739 z M 392.34375,165 c 0.31867,-0.51563 -0.26435,-0.9375 -1.2956,-0.9375 -2.31033,0 -2.90179,-0.88623 -5.2669,-7.89162 -2.0809,-6.1636 -4.17959,-8.1817 -6.79688,-6.53586 -2.54018,1.59735 -4.8567,6.19034 -5.50399,10.91282 -0.54601,3.98359 -0.42861,4.32146 1.6376,4.71278 4.43214,0.8394 16.66026,0.65439 17.22577,-0.26062 z m 13.08089,-2.96299 c 1.31333,-0.59839 2.38786,-1.50782 2.38786,-2.02095 0,-0.51314 -1.98868,-3.8435 -4.41928,-7.40082 -3.94879,-5.77925 -4.67221,-6.40436 -6.79495,-5.87159 -1.30663,0.32794 -2.48321,0.70379 -2.61464,0.83521 -0.7249,0.72491 3.63162,11.32922 5.44915,13.26389 2.45565,2.61393 2.74811,2.67222 5.99186,1.19426 z M 37.503504,158.67187 c 0.002,-1.41796 0.820679,-3.9183 1.819449,-5.5563 1.4556,-2.38723 1.577297,-3.17625 0.613284,-3.97632 -0.661462,-0.54896 -3.692252,-5.17869 -6.735087,-10.28828 l -5.532428,-9.29017 -6.568737,-0.40869 c -3.612804,-0.22479 -6.64779,-0.36332 -6.744411,-0.30786 -0.509973,0.29276 6.671602,14.3746 9.260029,18.15734 3.468333,5.06863 11.897198,14.24841 13.082888,14.24841 0.44083,0 0.803086,-1.16016 0.805013,-2.57813 z m 325.207406,-0.77829 c 0.71756,-1.50553 2.34047,-4.77066 3.60647,-7.25586 1.266,-2.48519 2.1247,-4.69564 1.90824,-4.91211 -0.21647,-0.21647 -1.6312,-0.6411 -3.14384,-0.94363 -2.51688,-0.50337 -3.13892,-0.0354 -7.33097,5.51423 -2.51941,3.33536 -4.57899,6.42614 -4.57684,6.86841 0.005,1.00626 6.02487,4.08293 7.29478,3.72819 0.51562,-0.14404 1.5246,-1.49369 2.24216,-2.99923 z m 95.13871,-15.2733 c 2.38584,-4.31665 4.33788,-8.69361 4.33788,-9.72656 0,-1.60346 -0.4284,-1.79242 -2.92969,-1.29216 -1.61133,0.32227 -4.72165,0.58594 -6.91183,0.58594 -3.80619,0 -4.0827,0.19675 -6.25805,4.45312 -1.25175,2.44922 -3.65521,6.61382 -5.34101,9.25468 l -3.06508,4.80153 3.3926,5.30349 3.39259,5.30349 4.52236,-5.41753 c 2.48729,-2.97965 6.4744,-8.94934 8.86023,-13.266 z M 98.244862,155.29372 c 0.162432,-3.88171 -0.232171,-5.58091 -1.741715,-7.5 -1.073456,-1.36467 -2.501972,-2.48122 -3.174493,-2.48122 -1.589571,0 -5.203654,8.42248 -5.203654,12.12692 0,2.84337 0.05124,2.87308 4.954926,2.87308 l 4.954927,0 0.21001,-5.01878 z m -19.280117,-2.38571 c 0.891547,-2.78341 2.262641,-5.76975 3.046875,-6.63632 1.609888,-1.7789 1.88355,-3.77169 0.517952,-3.77169 -0.92169,0 -7.261844,8.14814 -9.252898,11.89149 -1.704443,3.2045 -1.322807,4.19743 1.488951,3.8739 2.212112,-0.25453 2.808256,-1.0151 4.19912,-5.35738 z m 34.325675,-0.28377 -4.07167,-4.87576 -0.29054,2.95744 c -0.45182,4.59902 1.19538,6.79408 5.09832,6.79408 l 3.33557,0 -4.07167,-4.87576 z m 124.83412,1.12641 c 2.09753,-2.94571 1.86593,-6.56315 -0.4202,-6.56315 -0.67749,0 -2.30962,1.41309 -3.62696,3.14022 -2.22606,2.91851 -2.28592,3.24945 -0.84787,4.6875 2.10525,2.10525 2.58347,1.98171 4.89503,-1.26457 z m -76.33512,-5.86003 c 4.52835,-6.58586 8.58826,-14.44213 7.8104,-15.11376 -0.20959,-0.18097 -3.40358,-0.59814 -7.09776,-0.92704 l -6.7167,-0.59801 -3.36572,6.01846 -3.36571,6.01846 3.39511,5.69939 c 1.8673,3.13466 3.68126,5.69938 4.03102,5.69938 0.34975,0 2.73896,-3.05859 5.30936,-6.79688 z m 260.56277,3.68312 3.60208,-3.11375 -2.97775,-5.08937 c -1.63777,-2.79915 -3.81979,-6.08355 -4.84894,-7.29866 l -1.8712,-2.2093 -3.22808,2.8343 c -1.77545,1.55887 -3.96286,3.24549 -4.86091,3.74807 -1.45223,0.81271 -1.07073,1.6508 3.44963,7.57812 2.79535,3.66539 5.54384,6.66435 6.10776,6.66435 0.56394,0 2.64626,-1.40119 4.62741,-3.11376 z M 68.205386,147.4732 c 2.190163,-3.45224 3.982114,-6.72575 3.982114,-7.27448 0,-0.54874 -0.949219,-1.58553 -2.109375,-2.304 -1.160156,-0.71846 -3.020477,-1.89818 -4.134046,-2.62158 -1.917361,-1.24557 -2.245069,-1.00195 -6.183022,4.59641 -2.287093,3.25144 -4.456597,6.43437 -4.82112,7.0732 -0.426409,0.74728 0.924651,2.16822 3.788441,3.98437 2.448166,1.55259 4.68604,2.82288 4.973053,2.82288 0.287014,0 2.313793,-2.82456 4.503955,-6.2768 z m 251.697144,2.29242 c 1.39982,-2.1914 3.24707,-4.94247 4.105,-6.11347 1.39868,-1.90911 1.41268,-2.29659 0.1354,-3.75 -0.78346,-0.8915 -2.33723,-3.43599 -3.45284,-5.65445 -1.46784,-2.91889 -2.46954,-3.9058 -3.62485,-3.57132 -0.87807,0.25422 -3.99686,0.74366 -6.93064,1.08764 l -5.33415,0.62541 2.27929,5.15388 c 2.67837,6.05628 8.71324,16.20669 9.63559,16.20669 0.35314,0 1.78739,-1.79297 3.1872,-3.98438 z m -189.34072,-1.0647 c 1.42617,-1.03846 3.23573,-2.86896 4.02123,-4.06779 1.63543,-2.49598 1.51217,-2.74605 -4.96243,-10.06674 l -3.97316,-4.49236 -3.63283,3.28204 c -1.99805,1.80513 -4.36925,3.69418 -5.26934,4.19789 -1.45107,0.81206 -1.02831,1.67389 3.73113,7.60608 3.16352,3.94303 5.80386,6.43129 6.42998,6.05961 0.5843,-0.34685 2.22924,-1.48028 3.65542,-2.51873 z m 215.49363,1.0647 c 0.7776,-0.64453 3.2247,-3.39493 5.43801,-6.112 l 4.0242,-4.94012 -4.01238,-4.43488 c -2.20681,-2.43918 -4.1254,-4.58465 -4.26353,-4.76769 -0.29875,-0.39593 -5.48179,5.42052 -8.85304,9.93499 l -2.39254,3.20386 3.79879,4.01474 c 4.39639,4.64629 4.39633,4.64626 6.26049,3.1011 z M 218.4375,144.76334 c 0,-0.30203 -3.16406,-4.15851 -7.03125,-8.56995 -3.86719,-4.41143 -7.03125,-8.49145 -7.03125,-9.06671 0,-1.54127 12.99802,-17.85914 14.49328,-18.19505 0.70296,-0.15792 2.92639,1.47994 4.94098,3.63969 3.26001,3.49489 3.88783,3.80641 5.70806,2.83226 2.39654,-1.2826 2.62814,-3.12768 0.6035,-4.80798 -0.79292,-0.65807 -2.71003,-2.79792 -4.26025,-4.75523 l -2.81858,-3.55875 5.07824,-6.866808 5.07825,-6.866813 -2.83951,-4.098852 c -2.6702,-3.854465 -2.91631,-3.993815 -4.12769,-2.337165 -1.53619,2.100875 -4.04378,10.208512 -4.04378,13.074531 0,4.44239 -1.90888,7.453127 -5.89428,9.296567 -4.69522,2.17179 -12.43927,9.17971 -14.45818,13.08384 -2.33338,4.51228 -1.16868,13.84214 2.33413,18.69747 3.18153,4.40999 14.26833,11.01387 14.26833,8.49895 z m -164.073149,-12.91761 3.657972,-5.49803 -1.999966,-2.7051 c -1.099982,-1.4878 -2.250842,-2.7051 -2.557466,-2.7051 -1.031017,0 -13.097366,6.65252 -13.630248,7.51474 -0.467521,0.75646 0.641954,2.8687 5.8561,11.14897 l 1.42154,2.25746 1.797048,-2.25746 c 0.988376,-1.2416 3.443136,-4.73157 5.45502,-7.75549 z m 381.609409,3.89475 c 1.01131,-1.91306 1.83874,-3.84944 1.83874,-4.30307 0,-0.45364 -1.74246,-1.39986 -3.87213,-2.10271 -2.12966,-0.70286 -5.43365,-2.40909 -7.3422,-3.79163 -3.38788,-2.45418 -3.49727,-2.47016 -4.61833,-0.67506 -1.00104,1.60292 -0.6877,2.34025 2.4439,5.75095 1.97568,2.15176 4.58826,5.53167 5.80572,7.51091 2.4056,3.91085 2.41607,3.90649 5.7443,-2.38939 z M 102.4566,138.1684 c 0.31988,-0.31988 -1.38261,-2.85673 -3.783291,-5.63744 l -4.364897,-5.05584 -4.497956,4.43032 c -2.473876,2.43668 -4.497956,4.73586 -4.497956,5.10929 0,1.24009 15.9822,2.31557 17.1441,1.15367 z m 288.75226,-0.002 c 0.32111,-0.32112 -1.80141,-3.28391 -4.71672,-6.584 l -5.30058,-6.00013 -5.43072,5.37405 c -2.9869,2.95573 -5.11827,5.67513 -4.7364,6.04311 1.41569,1.36418 18.97217,2.37921 20.18442,1.16697 z m -246.19925,-6.21341 c 3.55536,-3.94932 3.4718,-4.36745 -1.27772,-6.3938 -2.48222,-1.05903 -5.8453,-3.21001 -7.47349,-4.77996 -2.83466,-2.73325 -3.00212,-2.77639 -3.94412,-1.01624 -0.81016,1.51379 -0.49766,2.30395 1.77077,4.47723 1.515,1.45146 3.87457,4.25523 5.2435,6.23059 1.36892,1.97536 2.77991,3.59156 3.13553,3.59156 0.35562,0 1.50111,-0.94922 2.54553,-2.10938 z m 190.14664,-2.70745 c 5.65222,-7.13983 6.40756,-8.30687 5.78158,-8.93284 -0.31586,-0.31586 -2.06251,0.56082 -3.88143,1.94818 -1.81892,1.38736 -4.77559,3.13603 -6.57037,3.88593 l -3.26323,1.36348 1.56224,3.27603 c 0.85923,1.80183 1.8005,3.25808 2.09172,3.23611 0.29122,-0.0219 2.21699,-2.17156 4.27949,-4.77689 z m 70.30776,2.16551 c 2.05989,-1.42398 3.88938,-3.33744 4.06554,-4.25213 0.19666,-1.02115 -1.79176,-3.89983 -5.15151,-7.45794 -3.00948,-3.18718 -5.75612,-5.9248 -6.10365,-6.0836 -0.84353,-0.38548 -10.17287,5.74898 -9.89677,6.50757 0.37654,1.03455 12.27084,13.93884 12.81787,13.90628 0.2878,-0.0172 2.20863,-1.19622 4.26852,-2.62018 z m -322.52299,-2.94528 3.634046,-3.72161 -2.684305,-2.13777 c -4.995269,-3.97821 -5.608495,-4.42183 -6.153711,-4.45171 -0.29931,-0.0164 -1.883952,1.83576 -3.521427,4.1159 l -2.977226,4.14572 3.500655,2.88553 c 1.92536,1.58705 3.740791,2.88554 4.034288,2.88554 0.293498,0 2.168954,-1.67472 4.16768,-3.7216 z m 289.99145,-8.47546 c 0.42896,-1.10299 -7.44895,-7.49044 -9.23829,-7.49044 -0.87632,0 -3.14907,1.8986 -5.05056,4.21912 -3.88883,4.74579 -3.85077,5.67553 0.47688,11.64967 l 2.80453,3.87155 5.36561,-5.76985 c 2.95109,-3.17341 5.4899,-6.08943 5.64183,-6.48005 z m -111.66477,9.22114 c 2.65874,-2.49776 2.75697,-4.6396 0.31417,-6.85031 -1.7929,-1.62254 -1.91863,-1.60368 -3.71881,0.55783 -2.18919,2.62859 -2.34345,3.93719 -0.76254,6.46862 1.44611,2.31561 1.51808,2.31256 4.16718,-0.17614 z m -146.27221,-3.1183 4.40342,-4.21921 -3.68383,-3.15322 c -2.0261,-1.73427 -4.1057,-3.19437 -4.62133,-3.24464 -1.1955,-0.11657 -8.90625,6.55101 -8.90625,7.70135 0,1.85413 4.88026,7.13494 6.59375,7.13494 0.99595,0 3.79236,-1.89864 6.21424,-4.21922 z m 125.42816,1.81273 c 1.23798,-1.88939 1.3372,-2.69519 0.46178,-3.75 -1.63941,-1.97536 -3.22033,-1.6439 -4.61833,0.96828 -1.00332,1.87473 -1.01157,2.5837 -0.0436,3.75 1.64689,1.98439 2.37557,1.81641 4.20016,-0.96828 z m -19.24296,-0.2765 c 0.67524,-1.2617 0.55429,-2.23612 -0.43639,-3.51563 -1.33145,-1.71964 -1.42268,-1.70865 -3.19792,0.38506 -1.00506,1.18535 -1.59245,2.76738 -1.30532,3.51563 0.74001,1.92846 3.8304,1.68756 4.93963,-0.38506 z m 230.98704,-2.35262 c 0.27134,-0.70709 1.68757,-1.58337 3.14718,-1.9473 4.38962,-1.09446 8.74759,-3.46537 8.74759,-4.75903 0,-1.27892 -7.11005,-5.13306 -9.46938,-5.13306 -0.91146,0 -1.71075,1.66489 -2.36289,4.92188 -0.54204,2.70703 -1.31071,5.66015 -1.70817,6.5625 -0.41869,0.95052 -0.32832,1.64062 0.21483,1.64062 0.51563,0 1.1595,-0.57852 1.43084,-1.28561 z m -138.24129,-3.89063 c 1.87794,-0.54229 2.12299,-1.061 1.64063,-3.47283 C 315.25518,116.35402 315,113.23242 315,110.97656 l 0,-4.10156 -3.51563,0.006 c -1.93359,0.003 -5.09765,0.44459 -7.03125,0.98157 -3.42857,0.95216 -3.5153,1.0855 -3.50282,5.38539 0.021,7.22384 0.6629,8.47974 4.53636,8.87518 3.67066,0.37474 4.99211,0.25948 8.43978,-0.7361 z M 175.41647,117.1875 c 0.31499,-2.32031 0.39379,-4.69798 0.1751,-5.28372 -0.45936,-1.23031 -11.15006,-4.43618 -12.34034,-3.70055 -0.43784,0.2706 -1.05602,2.68687 -1.37373,5.36948 -0.31772,2.6826 -1.01076,5.31055 -1.54008,5.83987 -2.06392,2.06392 -0.67642,2.52818 6.77195,2.26596 l 7.73438,-0.27229 0.57272,-4.21875 z m 267.30545,0.50879 c 1.23492,-5.97302 0.65992,-6.48727 -6.50539,-5.81816 -3.43192,0.32047 -6.58225,0.92509 -7.00075,1.34359 -2.00546,2.00546 6.89268,8.8582 10.90229,8.39618 1.32295,-0.15244 2.0514,-1.24955 2.60385,-3.92161 z M 23.843571,114.60938 c -0.355474,-2.44922 -0.729957,-4.55567 -0.832184,-4.681 -0.102227,-0.12532 -2.790359,0.65169 -5.973628,1.7267 -4.238527,1.43137 -5.787759,2.40847 -5.787759,3.65035 0,1.8423 4.551314,3.48588 10.135568,3.66018 l 3.104319,0.0969 -0.646316,-4.45312 z m 128.858009,-4.21875 c 0.10228,-3.24175 -0.0899,-3.51403 -2.46721,-3.49504 -3.07622,0.0246 -10.54687,3.25258 -10.54687,4.55723 0,1.17326 4.58003,4.44577 8.60815,6.15067 3.03843,1.28601 3.12434,1.2584 3.70281,-1.19034 0.32571,-1.3788 0.64211,-4.08893 0.70312,-6.02252 z m 264.41007,1.70281 c 1.35076,-7.415 1.27741,-9.86346 -0.31381,-10.47407 -1.55831,-0.59797 -11.45471,5.97218 -11.05991,7.3426 0.54089,1.87753 8.9994,10.11233 9.66968,9.41393 0.37987,-0.3958 1.14669,-3.22292 1.70404,-6.28246 z m -375.937812,3.43773 c 6.138499,-3.09629 6.91811,-4.6199 2.714487,-5.30501 -6.59293,-1.07452 -9.670715,-1.02165 -9.575825,0.16447 0.05156,0.64453 0.157031,2.64843 0.234375,4.45312 0.07734,1.80469 0.457031,3.27418 0.84375,3.26555 0.386719,-0.008 2.989165,-1.1688 5.783213,-2.57813 z m 27.091443,-0.2595 c 1.194341,-1.51226 1.897161,-3.19352 1.561819,-3.73611 -0.758681,-1.22758 -7.6073,-5.59806 -8.772241,-5.59806 -0.960463,0 0.02105,5.18249 1.79059,9.45455 1.412332,3.40967 2.653694,3.38209 5.419832,-0.12038 z m 32.193989,-3.64862 4.36551,-4.10516 -3.75109,-3.13394 c -3.510371,-2.93284 -8.26119,-4.22992 -8.26119,-2.25549 0,0.48315 -1.582031,2.40218 -3.515625,4.26452 l -3.515625,3.38605 4.164118,3.65023 c 2.290266,2.00763 4.610582,3.34619 5.156254,2.97459 0.545672,-0.3716 2.956612,-2.52296 5.357648,-4.7808 z m 230.46415,2.67154 c 4.2297,-2.60256 5.90754,-4.54981 3.99845,-4.64048 -0.38671,-0.0184 -3.17262,-0.62329 -6.1909,-1.34428 l -5.48778,-1.31087 0.65719,4.39114 c 0.64718,4.3242 1.1356,5.7974 1.92211,5.7974 0.21964,0 2.51505,-1.30181 5.10093,-2.89291 z m 24.38908,-8.34557 c 0,-0.46348 -0.9425,-1.50285 -2.09444,-2.30971 -1.92329,-1.34712 -2.14774,-1.33231 -2.74661,0.18122 -0.83172,2.102 -0.96702,8.18391 -0.19915,8.95178 0.61557,0.61556 5.0402,-5.37439 5.0402,-6.82329 z m 29.59598,5.15891 c 6.3318,-4.82949 6.5001,-5.19143 3.52444,-7.57963 -1.45842,-1.17049 -3.75848,-2.7871 -5.11126,-3.592469 -2.30722,-1.373578 -2.59973,-1.334672 -4.72179,0.628059 -1.24421,1.1508 -3.42015,2.84903 -4.83542,3.77385 l -2.5732,1.68148 4.48249,3.64882 c 2.46539,2.00685 4.86456,3.67595 5.33152,3.70913 0.46695,0.0332 2.2234,-0.98797 3.90322,-2.26924 z m -259.3752,-1.56032 c 1.09484,-3.14066 1.36185,-6.42261 0.52251,-6.42261 -1.06002,0 -6.05579,4.14488 -6.05579,5.02436 0,1.11786 2.82629,4.35064 3.80359,4.35064 0.38527,0 1.16363,-1.32858 1.72969,-2.95239 z m 72.04959,-4.78238 c 2.93954,-2.99518 3.69005,-4.3339 3.02205,-5.390624 -3.09877,-4.901981 1.60559,-12.042299 8.48799,-12.883158 4.08908,-0.499583 4.2603,-0.658479 7.22498,-6.704704 l 3.03663,-6.192994 -2.38579,-2.109375 c -1.31218,-1.160156 -3.1035,-2.109375 -3.9807,-2.109375 -2.4765,0 -27.73486,6.566518 -28.61001,7.437858 -0.42802,0.426164 -0.31424,2.407455 0.25286,4.402868 0.5671,1.995414 1.45138,8.057712 1.96507,13.471774 0.85778,9.04052 1.14314,10.01549 3.49715,11.94847 1.40973,1.15759 2.79172,2.10681 3.07108,2.10937 0.27936,0.003 2.26777,-1.78849 4.41869,-3.98011 z m 90.93666,1.40665 c 2.6536,-2.29578 3.08759,-3.39951 3.96271,-10.07813 0.54052,-4.125 1.78927,-10.161877 2.77499,-13.415282 1.30756,-4.315625 1.494,-6.027185 0.68938,-6.329079 -3.05503,-1.146261 -12.4475,-3.459951 -21.13918,-5.207314 -9.56049,-1.922028 -9.75379,-1.924881 -11.50886,-0.169809 -1.75507,1.755071 -1.75059,1.894429 0.26671,8.297018 l 2.05178,6.511966 4.61639,0 c 3.94842,0 4.96031,0.399825 6.99318,2.763181 2.14347,2.491925 2.32097,3.297213 1.80821,8.203122 -0.31272,2.991975 -0.25865,5.442827 0.12016,5.446347 0.37881,0.004 1.69235,1.48009 2.91897,3.28125 1.22662,1.80117 2.50819,3.27485 2.84792,3.27485 0.33973,0 1.95867,-1.16016 3.59764,-2.57812 z M 466.875,101.83375 c 0,-4.270159 -2.42724,-18.115643 -3.3685,-19.21459 -0.16468,-0.192274 -3.09074,0.405983 -6.50234,1.329462 -5.50573,1.490328 -6.14157,1.898431 -5.65705,3.63084 0.30024,1.073484 1.05356,4.904913 1.67406,8.514288 0.6205,3.609375 1.53,6.84147 2.02111,7.18244 0.49111,0.34096 2.71174,0.89268 4.93472,1.22604 2.22299,0.33335 4.28747,1.00361 4.58773,1.48944 1.35462,2.19182 2.31027,0.47189 2.31027,-4.15792 z m -226.14242,-3.684034 -1.95947,-2.751816 -1.70945,2.222925 c -2.15048,2.796395 -2.18198,4.411735 -0.13026,6.678865 1.5858,1.75229 1.66569,1.73489 3.68978,-0.80354 l 2.06886,-2.59462 -1.95946,-2.751814 z M 83.498919,98.958244 c 4.353364,-4.088578 4.744814,-4.752253 3.317722,-5.625002 -0.889898,-0.544221 -5.072848,-3.201314 -9.295444,-5.904652 -4.222595,-2.703337 -8.31026,-4.917365 -9.083697,-4.920063 -1.909972,-0.0067 -8.090848,9.150625 -6.94786,10.293613 1.805469,1.805466 15.877872,11.2134 16.463836,11.0067 0.335349,-0.1183 2.830799,-2.30106 5.545443,-4.850596 z m 356.891701,3.521266 c 3.71896,-0.51044 3.98403,-0.74134 3.97915,-3.46631 -0.006,-3.139997 -1.66127,-9.9507 -2.41896,-9.9507 -0.25358,0 -3.82824,1.539182 -7.9437,3.420404 -5.58985,2.555193 -7.37051,3.800212 -7.03939,4.921874 0.24378,0.825806 0.73119,2.706432 1.08314,4.179172 0.60865,2.54699 0.8282,2.64754 4.49764,2.06006 2.12176,-0.33969 5.65072,-0.86372 7.84212,-1.1645 z M 18.75,100.84597 l 4.21875,-1.120523 0.625991,-5.565853 c 0.424935,-3.778194 0.274381,-5.888768 -0.46875,-6.571268 -1.136392,-1.043676 -10.817705,-3.66972 -11.354119,-3.079788 -0.657918,0.723558 -1.389592,17.436242 -0.789617,18.036212 0.351206,0.35121 1.293405,0.36478 2.093776,0.0302 0.800371,-0.33468 3.353656,-1.11269 5.673969,-1.72897 z m 100.33986,-3.962986 c 7.19672,-4.785498 7.17014,-4.696481 3.54684,-11.876312 l -1.81021,-3.587078 -2.52262,1.608998 c -5.83525,3.721886 -14.24137,9.924838 -14.24137,10.508837 0,0.538418 7.51629,7.558991 8.21437,7.672601 0.13508,0.022 3.20092,-1.925189 6.81299,-4.327046 z m 222.63407,3.421126 c 1.27915,-2.069691 -0.75759,-4.361326 -6.6583,-7.49161 -3.40191,-1.804688 -6.42276,-3.198988 -6.71297,-3.098445 -0.38984,0.135053 -2.9215,6.379282 -3.02604,7.463595 -0.007,0.08053 1.98979,0.429544 4.439,0.775594 2.44922,0.346059 5.71875,1.195134 7.26563,1.886831 3.54144,1.583595 3.97431,1.626395 4.69268,0.464035 z M 48.75,99.021694 c 0,-1.358072 -7.374086,-4.918388 -12.176104,-5.87879 C 33.915646,92.611254 33.75,92.749977 33.75,95.507812 c 0,2.743801 0.223061,2.935613 3.515625,3.023138 1.933594,0.05137 4.570312,0.431222 5.859375,0.84405 3.667512,1.17455 5.625,1.05159 5.625,-0.353306 z m 95.04258,-0.546985 c 2.12502,-0.476568 5.02383,-1.109812 6.44179,-1.407215 2.07459,-0.435103 2.56526,-1.040766 2.51223,-3.100978 -0.15681,-6.093315 -0.75828,-6.2052 -8.61949,-1.603422 -5.36397,3.139937 -7.25211,4.753544 -7.25211,6.197612 0,1.418897 0.41725,1.792284 1.52695,1.366453 0.83983,-0.322275 3.26562,-0.975871 5.39063,-1.45245 z m 33.39492,-3.148303 c 0,-5.01598 -2.20754,-14.216865 -3.62054,-15.090143 -0.41762,-0.258106 -3.4038,0.781363 -6.63596,2.309931 -4.41473,2.087838 -5.73541,3.147282 -5.30889,4.258775 0.31226,0.813758 0.83625,3.763977 1.16441,6.556045 l 0.59663,5.076486 4.32405,0.06591 c 2.37823,0.03628 5.1678,0.428457 6.19905,0.871603 3.11034,1.336561 3.28125,1.125691 3.28125,-4.048593 z m 229.22766,0.682285 c 4.37791,-2.367097 7.95984,-4.624112 7.95984,-5.01559 0,-0.931324 -5.22451,-8.13493 -6.44869,-8.891513 -0.86988,-0.537612 -6.25646,2.380017 -13.9728,7.568327 -1.69275,1.138174 -3.59119,2.250092 -4.21875,2.470928 -1.08692,0.382483 6.46279,8.049737 8.00852,8.133207 0.39162,0.0211 4.29397,-1.898266 8.67188,-4.265359 z m -96.67636,2.136159 5.52003,-1.148325 1.76692,-5.57906 c 0.9718,-3.068482 1.57867,-6.06963 1.34857,-6.669215 -0.23008,-0.599587 -3.0872,-1.991453 -6.34917,-3.093035 -7.14664,-2.413461 -7.43457,-2.190182 -9.63149,7.468897 -2.54495,11.189318 -2.62234,11.094268 7.34514,9.020738 z m 58.48977,-2.467003 c 1.66178,-1.517813 3.02143,-3.125971 3.02143,-3.573695 0,-0.98004 -4.04865,-4.053404 -8.09843,-6.147593 l -2.9422,-1.521437 -2.44843,3.699839 c -1.34664,2.034911 -2.44844,4.124617 -2.44844,4.64379 0,1.192593 6.55052,5.529908 8.46294,5.603596 0.78744,0.03028 2.79134,-1.186688 4.45313,-2.7045 z M 210.46875,95.625 c -0.31868,-0.515625 -0.97639,-0.9375 -1.46158,-0.9375 -0.4852,0 -0.88217,0.421875 -0.88217,0.9375 0,0.515625 0.65771,0.9375 1.46158,0.9375 0.80387,0 1.20085,-0.421875 0.88217,-0.9375 z m 59.0625,-0.9375 c -0.31867,-0.515625 -0.97639,-0.9375 -1.46158,-0.9375 -0.4852,0 -0.88217,0.421875 -0.88217,0.9375 0,0.515625 0.65771,0.9375 1.46158,0.9375 0.80387,0 1.20084,-0.421875 0.88217,-0.9375 z M 54.436862,82.761143 c 1.255039,-2.95012 2.42575,-5.70202 2.601582,-6.115331 C 57.297767,76.036245 44.283403,69.375 42.833141,69.375 c -0.740464,0 -4.395641,9.200464 -4.395641,11.06429 0,1.324892 1.697187,2.584996 6.328125,4.698418 3.480469,1.588383 6.566901,2.910316 6.858737,2.93763 0.291837,0.02731 1.557462,-2.364073 2.8125,-5.314195 z m 46.893658,1.31964 c 2.27603,-1.708695 5.77444,-4.302735 7.77424,-5.764535 l 3.63602,-2.657816 -2.13007,-1.606711 C 103.92851,69.011327 89.052824,67.87041 80.701766,71.7578 c -3.385521,1.575949 -4.766909,2.677057 -4.142205,3.301761 1.503813,1.503813 18.49603,11.927523 19.614711,12.032452 0.559912,0.05252 2.880225,-1.302535 5.156248,-3.01123 z m 40.7314,-0.319104 c 3.59251,-1.884202 6.67935,-3.543435 6.85964,-3.687186 0.61945,-0.493886 -1.7743,-6.482465 -3.47358,-8.69009 l -1.70062,-2.209347 -7.27149,3.35964 c -3.99933,1.847803 -7.12764,3.743831 -6.95182,4.213397 0.98543,2.631599 5.0827,10.372067 5.50662,10.402984 0.27469,0.02003 3.43876,-1.505196 7.03125,-3.389398 z m 204.38619,2.70834 c 0.53865,-0.378823 1.87973,-2.244051 2.98019,-4.14495 2.31949,-4.00664 2.43945,-3.849068 -6.24321,-8.200119 l -6.03366,-3.023584 -1.65356,2.183692 c -1.82079,2.404517 -3.06704,6.333277 -2.26379,7.136524 0.66648,0.666483 11.153,6.629496 11.76592,6.690529 0.25781,0.02567 0.90946,-0.263269 1.44811,-0.642092 z m 85.27064,-2.285074 c 4.125,-1.659743 7.69828,-3.162214 7.94062,-3.338824 0.77857,-0.5674 -3.69409,-8.190248 -5.44843,-9.285845 -1.36282,-0.851103 -3.24158,-0.402213 -9.59345,2.292156 -4.34431,1.842789 -8.07618,3.489337 -8.29306,3.658994 -0.21688,0.169657 0.5214,1.283213 1.64062,2.474568 1.11923,1.191357 2.03495,2.450495 2.03495,2.798087 0,0.787215 3.05066,4.400683 3.72397,4.411 0.27213,0.0041 3.86978,-1.350392 7.99478,-3.010136 z m -47.39414,-0.134646 c 1.8324,-1.209837 5.63336,-3.629878 8.44658,-5.377872 l 5.11495,-3.178169 -5.11495,-1.158435 c -8.67827,-1.965457 -14.01959,-1.809746 -19.90847,0.580377 -2.94949,1.197113 -5.34807,2.443977 -5.33017,2.770809 0.0406,0.741173 11.36135,8.382384 12.57331,8.486663 0.48791,0.04198 2.38635,-0.913538 4.21875,-2.123373 z M 244.14546,76.171875 c 2.33672,-2.449219 4.24695,-4.875 4.24494,-5.390625 -0.004,-1.010633 -6.18733,-7.96875 -7.08153,-7.96875 -0.29749,0 -2.55645,2.091187 -5.01991,4.647081 l -4.47903,4.647079 3.86066,4.18659 c 2.12336,2.302625 3.94293,4.219251 4.04347,4.25917 0.10055,0.03992 2.09468,-1.931326 4.4314,-4.380545 z M 29.098596,74.765625 c 0.660589,-1.675781 2.212755,-4.421838 3.449256,-6.102349 1.649748,-2.242144 1.921802,-3.166823 1.022042,-3.47379 -2.357181,-0.804185 -12.397751,-3.236323 -12.557828,-3.041895 -1.232944,1.497522 -5.092379,10.455218 -4.836014,11.224317 0.318979,0.956937 8.23991,4.201521 10.663335,4.367932 0.581975,0.03997 1.59862,-1.298434 2.259209,-2.974215 z m 426.208614,1.003697 c 3.01072,-1.123749 5.64346,-2.172075 5.85053,-2.329616 0.76435,-0.581526 -6.53232,-10.627206 -7.71907,-10.627206 -1.09169,0 -10.04738,2.750717 -10.74326,3.299766 -0.45592,0.359717 5.85211,11.667863 6.51805,11.68463 0.34082,0.0086 3.08301,-0.903827 6.09375,-2.027574 z M 327.1875,67.900521 c 0,-1.201255 -8.82758,-6.025521 -11.02567,-6.025521 -0.55055,0 -2.27985,2.07838 -3.84287,4.618624 l -2.84187,4.618623 6.71507,2.80345 6.71508,2.803448 2.14013,-3.767766 c 1.17707,-2.072272 2.14013,-4.345158 2.14013,-5.050858 z m -162.66889,5.871875 c 6.65861,-2.436479 7.19495,-3.78142 3.81082,-9.556004 l -2.44311,-4.168858 -4.89629,1.96649 c -2.69295,1.081568 -5.65181,2.179276 -6.57524,2.439349 -0.92343,0.260073 -1.53389,0.735552 -1.35657,1.056619 0.17732,0.321067 1.35472,2.788659 2.61646,5.483538 1.26174,2.694878 2.50501,4.884645 2.76282,4.866146 0.25781,-0.0185 2.99432,-0.957774 6.08111,-2.08728 z m 200.67917,-5.065829 c 3.32872,-1.914513 6.04934,-3.707481 6.04582,-3.984375 -0.009,-0.699831 -5.15774,-4.052345 -10.95398,-7.132355 l -4.86663,-2.586036 -5.21149,3.934719 c -2.86632,2.164096 -5.20348,4.23746 -5.1937,4.607475 0.0132,0.500118 12.05967,7.933118 13.85186,8.546999 0.15174,0.05197 2.9994,-1.471914 6.32812,-3.386427 z m -234.41696,-2.940283 9.00728,-4.546216 -3.44694,-3.026461 c -6.37369,-5.596174 -6.74243,-5.597237 -16.75883,-0.04834 -4.92653,2.729199 -8.95733,5.260379 -8.95733,5.62484 0,0.364461 1.8652,1.374986 4.1449,2.24561 2.2797,0.870623 4.65167,2.193563 5.27105,2.939866 0.61937,0.746302 1.26259,1.356914 1.42936,1.356914 0.16678,0 4.35651,-2.045798 9.31051,-4.546216 z m -59.985398,0.70674 c 2.828111,-1.596086 5.3636,-3.260501 5.634421,-3.698699 0.510355,-0.825773 -16.026558,-10.23335 -18.034484,-10.25952 -1.7518,-0.02283 -10.031477,8.424729 -9.079728,9.263836 0.462341,0.40762 3.707557,1.933163 7.211592,3.390096 3.504035,1.456934 6.587527,2.99936 6.852204,3.427616 0.788775,1.276266 2.013662,0.92556 7.415995,-2.123329 z M 416.68138,65.859375 c 4.38396,-1.933594 7.97876,-3.788052 7.98848,-4.121019 0.0228,-0.780253 -8.44872,-6.181039 -10.29486,-6.563259 -1.97101,-0.408072 -19.83542,8.514617 -19.17779,9.578681 0.29615,0.479173 1.25183,0.891485 2.12375,0.916252 0.87191,0.02477 3.06185,0.822853 4.86654,1.773527 4.6487,2.448843 5.58101,2.346941 14.49388,-1.584182 z m -115.21531,0.46875 c 0.36021,-1.160156 1.49519,-3.302034 2.5222,-4.75973 1.05672,-1.499874 1.51201,-2.998201 1.04888,-3.451685 -0.95743,-0.937465 -21.17978,-6.087973 -28.0059,-7.132933 -2.57813,-0.394665 -5.10938,-0.783525 -5.625,-0.864131 -0.51563,-0.08061 -1.7045,-0.210814 -2.64194,-0.289352 -1.48504,-0.124413 -1.63534,-0.763343 -1.16764,-4.963572 0.59048,-5.302871 -1.04203,-16.741722 -2.38932,-16.741722 -0.46759,0 -4.46169,1.952719 -8.87578,4.339374 l -8.02562,4.339375 3.72647,3.86375 c 6.54648,6.787651 7.81834,8.232478 7.49883,8.518654 -0.17188,0.153947 -2.71518,1.952057 -5.65181,3.9958 l -5.33929,3.715897 4.01488,3.940312 c 3.58856,3.521901 4.14734,3.78072 5.26219,2.43739 0.68603,-0.826606 1.99925,-1.90534 2.91827,-2.397189 2.23917,-1.198363 17.29373,1.187851 29.42076,4.663318 5.15625,1.477721 9.66298,2.733803 10.01495,2.791292 0.35197,0.05749 0.93467,-0.844692 1.29487,-2.004848 z M 194.08644,64.719281 c 15.21089,-3.714365 24.44194,-4.552151 27.57051,-2.502231 3.41922,2.240358 4.40902,1.959508 8.77602,-2.49014 l 3.94837,-4.023091 -6.55647,-4.180034 c -3.60607,-2.299019 -6.56062,-4.454109 -6.56567,-4.789088 -0.005,-0.33498 2.31111,-2.72969 5.14705,-5.321577 2.83594,-2.591887 5.15625,-4.922014 5.15625,-5.178062 0,-0.917975 -10.7564,-7.172558 -12.3351,-7.172558 -1.76428,0 -2.49608,3.409357 -2.90737,13.545126 l -0.22628,5.576375 -15.9375,2.977294 c -18.8262,3.516934 -24.84375,5.007713 -24.84375,6.154756 0,1.918236 4.97961,10.183949 6.13523,10.183949 0.68819,0 6.37559,-1.251323 12.63871,-2.780719 z m -84.80984,-10.56138 11.87764,-6.779599 -3.15524,-1.30479 c -1.73539,-0.717634 -6.89895,-1.942897 -11.4746,-2.722806 -7.440644,-1.268244 -9.683687,-1.26635 -21.236769,0.01793 -17.515296,1.947064 -17.89115,2.259508 -8.752254,7.275694 4.05398,2.225162 9.902123,5.441836 12.995873,7.148164 3.09375,1.706329 6.129609,3.111997 6.746362,3.123709 0.616744,0.01171 6.466298,-3.029527 12.998988,-6.758306 z m 278.21073,4.093214 c 2.15541,-1.477511 6.13376,-3.804931 8.84079,-5.172043 2.70704,-1.367112 4.92188,-2.815381 4.92188,-3.218375 0,-1.269772 -20.71416,-2.876242 -25.78125,-1.999444 -11.02289,1.907374 -10.99269,1.720687 -1.23727,7.650064 4.8055,2.920801 8.87219,5.336566 9.0371,5.368365 0.16492,0.0318 2.06335,-1.151055 4.21875,-2.628567 z m -46.77392,-3.555004 c 2.9171,-2.401513 4.96947,-4.645603 4.56083,-4.986867 -0.40865,-0.341263 -3.82214,-1.796733 -7.58555,-3.23438 l -6.84256,-2.613903 -4.20658,4.453345 c -2.31362,2.44934 -4.06425,4.880333 -3.8903,5.402206 0.17397,0.521874 1.99842,1.445534 4.05435,2.052579 2.05593,0.607044 4.5654,1.583569 5.57661,2.170055 2.61472,1.516512 2.49544,1.562931 8.3332,-3.243035 z m 101.60456,1.467823 c 3.19386,-1.078587 5.80703,-2.290482 5.80703,-2.6931 0,-0.402619 -1.91437,-2.496637 -4.25415,-4.653374 -3.27499,-3.018773 -4.73152,-3.782495 -6.32812,-3.318108 -7.11622,2.069806 -11.90507,3.796912 -11.91094,4.295696 -0.008,0.63641 9.52585,8.288408 10.35805,8.313955 0.28659,0.0088 3.13425,-0.866483 6.32813,-1.945069 z M 44.447743,52.49324 c 2.532196,-2.580328 4.389238,-4.906258 4.126761,-5.168736 -0.262478,-0.262477 -3.178025,-1.545194 -6.478993,-2.850481 l -6.001761,-2.373248 -4.845281,5.419125 -4.845282,5.419124 5.314032,2.058169 c 2.922717,1.131992 5.946843,2.08728 6.720281,2.12286 0.773437,0.03558 3.478047,-2.046487 6.010243,-4.626813 z m 110.961307,2.078975 c 2.71716,-0.988111 5.13251,-1.988775 5.36743,-2.223696 0.23493,-0.234922 -1.82209,-2.648412 -4.57114,-5.363312 l -4.99826,-4.93618 -6.1072,3.184295 -6.10719,3.184296 3.86303,4.324525 c 4.23049,4.735887 4.46767,4.770465 12.55333,1.830072 z m 160.23059,-9.33784 c 2.16107,-2.449219 3.6395,-4.73019 3.28541,-5.068825 -1.8954,-1.812672 -39.69073,-11.33737 -40.75703,-10.271068 -0.42336,0.423358 -0.64139,3.237462 -0.4845,6.253563 l 0.28523,5.483823 13.125,3.010132 c 7.21875,1.655572 14.17969,3.441348 15.46875,3.968391 3.96367,1.620575 5.01262,1.230441 9.07714,-3.376016 z m -141.25845,2.515302 c 1.80128,-0.550177 9.60318,-2.384297 17.33756,-4.07582 l 14.0625,-3.075497 0.20238,-5.767931 c 0.1113,-3.172361 0.0368,-5.767929 -0.16547,-5.767929 -3.05793,0 -26.41411,5.419166 -38.25393,8.875784 l -5.40452,1.577842 3.99827,4.574723 c 2.19905,2.516099 4.21199,4.593721 4.47321,4.616938 0.26121,0.02321 1.94871,-0.407932 3.75,-0.95811 z m 67.45653,-0.831799 c 1.17006,-0.74009 1.11105,-1.15091 -0.40608,-2.827326 -1.55264,-1.715647 -1.94581,-1.790663 -3.1378,-0.598679 -2.66161,2.661605 0.2707,5.496378 3.54388,3.426005 z m 130.23775,-8.055851 c 0.20043,-0.200423 -0.0823,-1.538089 -0.62836,-2.972591 -0.54602,-1.434503 -1.26002,-4.218379 -1.58666,-6.186391 -0.56288,-3.39137 -0.73841,-3.546465 -3.36161,-2.970313 -1.52224,0.334341 -3.92362,1.145485 -5.33641,1.802543 -1.41277,0.657058 -6.26527,2.821904 -10.78332,4.810768 -4.51805,1.988864 -8.09724,3.968324 -7.95375,4.398799 0.1435,0.430476 3.35634,2.19361 7.13965,3.918075 l 6.87875,3.135394 7.63365,-2.785939 c 4.19851,-1.532266 7.79764,-2.949921 7.99806,-3.150345 z m 48.82257,2.022053 c 3.32985,-1.215391 6.18243,-2.594232 6.33905,-3.064088 0.47598,-1.427978 -22.148,-10.632492 -26.13386,-10.632492 -0.95053,0 -1.72823,0.561314 -1.72823,1.247364 0,0.686051 -1.05292,3.322769 -2.33982,5.859375 -1.28691,2.536606 -2.3416,4.659395 -2.34375,4.71731 -0.002,0.05791 2.23593,0.368549 4.97353,0.6903 2.73759,0.321752 6.63994,1.19386 8.67187,1.938019 4.98203,1.824582 5.59226,1.787866 12.56121,-0.755788 z m -286.4284,-0.523033 c 2.09638,-1.004549 4.99715,-2.269383 6.44614,-2.810744 1.449,-0.541361 2.37968,-1.396682 2.06817,-1.900715 C 141.10507,32.609507 117.32148,22.5 112.04827,22.5 c -1.60968,0 -2.45185,0.787429 -3.23022,3.020274 -0.57908,1.661151 -2.15433,4.169952 -3.50057,5.575112 l -2.44769,2.554839 2.70573,0.5667 c 6.51262,1.364031 17.03388,4.605771 20.04948,6.177511 4.14701,2.161436 4.26519,2.16099 8.84464,-0.03338 z M 65.907082,39.010469 c 3.272437,-1.231742 8.344568,-2.775438 11.271402,-3.430434 4.905833,-1.097878 6.694639,-2.745741 4.471845,-4.119504 C 81.18301,31.171712 80.51061,28.826502 80.156106,26.248953 79.801602,23.671403 79.17646,21.5625 78.766902,21.5625 c -4.260842,0 -26.181115,8.201066 -31.860428,11.919993 l -2.312277,1.514123 6.531027,3.048337 c 3.592064,1.676584 7.048739,3.083596 7.681499,3.126692 0.63276,0.0431 3.827922,-0.929434 7.100359,-2.161176 z M 388.21467,31.945378 c 1.61131,-5.37806 0.78206,-6.632878 -4.38334,-6.632878 l -4.3525,0 0.6563,3.498366 c 0.95585,5.09514 2.14251,6.814134 4.70397,6.814134 1.83249,0 2.48684,-0.713292 3.37557,-3.679622 z M 97.915594,27.916401 C 98.718262,26.77042 99.375,24.661045 99.375,23.228901 99.375,20.697657 99.231122,20.625 94.21875,20.625 c -5.387179,0 -5.917937,0.523988 -4.098282,4.046007 2.854112,5.524258 5.443763,6.602425 7.795126,3.245394 z M 250.30493,25.290893 c 4.37866,-2.566241 8.7885,-4.665893 9.79964,-4.665893 3.28862,0 -4.66314,-7.13273 -9.44401,-8.471293 -8.45214,-2.3664508 -20.8189,0.851735 -26.44114,6.880743 l -2.18683,2.345046 2.65558,0.584347 c 1.46057,0.321391 5.6087,2.243123 9.21808,4.270517 3.60937,2.027392 6.98437,3.694327 7.5,3.704298 0.51562,0.01 4.52003,-2.081522 8.89868,-4.647765 z"
     id="path3366"
     inkscape:connector-curvature="0" />
</svg>
