<?xml version="1.0" encoding="UTF-8" standalone="no"?>
<!-- Created with Inkscape (http://www.inkscape.org/) -->

<svg
   xmlns:dc="http://purl.org/dc/elements/1.1/"
   xmlns:cc="http://creativecommons.org/ns#"
   xmlns:rdf="http://www.w3.org/1999/02/22-rdf-syntax-ns#"
   xmlns:svg="http://www.w3.org/2000/svg"
   xmlns="http://www.w3.org/2000/svg"
   xmlns:sodipodi="http://sodipodi.sourceforge.net/DTD/sodipodi-0.dtd"
   xmlns:inkscape="http://www.inkscape.org/namespaces/inkscape"
   id="svg3416"
   version="1.1"
   inkscape:version="0.91 r13725"
   width="1082.8125"
   height="501.5625"
   viewBox="0 0 1082.8125 501.5625"
   sodipodi:docname="Divider7.svg">
  <metadata
     id="metadata3422">
    <rdf:RDF>
      <cc:Work
         rdf:about="">
        <dc:format>image/svg+xml</dc:format>
        <dc:type
           rdf:resource="http://purl.org/dc/dcmitype/StillImage" />
        <dc:title></dc:title>
      </cc:Work>
    </rdf:RDF>
  </metadata>
  <defs
     id="defs3420" />
  <sodipodi:namedview
     pagecolor="#ffffff"
     bordercolor="#666666"
     borderopacity="1"
     objecttolerance="10"
     gridtolerance="10"
     guidetolerance="10"
     inkscape:pageopacity="0"
     inkscape:pageshadow="2"
     inkscape:window-width="1600"
     inkscape:window-height="837"
     id="namedview3418"
     showgrid="false"
     inkscape:zoom="1.0518903"
     inkscape:cx="541.40625"
     inkscape:cy="250.78125"
     inkscape:window-x="-8"
     inkscape:window-y="-8"
     inkscape:window-maximized="1"
     inkscape:current-layer="svg3416" />
  <path
     style="fill:#000000"
     d="m 528.53548,497.58458 c -1.40705,-0.64808 -3.51642,-2.47023 -4.6875,-4.04924 -1.17108,-1.57899 -5.60515,-5.92245 -9.85349,-9.6521 -4.24835,-3.72967 -8.13324,-7.5454 -8.6331,-8.47939 -0.49987,-0.934 -4.97348,-5.23898 -9.94138,-9.56664 -4.9679,-4.32765 -10.58376,-9.34502 -12.47968,-11.14971 -1.89593,-1.80469 -8.50108,-7.86755 -14.67811,-13.47302 -6.17704,-5.60547 -14.45716,-13.30469 -18.40028,-17.10937 -3.94312,-3.80469 -7.60377,-6.91761 -8.13478,-6.91761 -0.531,0 -3.422,-2.42578 -6.42443,-5.39063 -5.60639,-5.5362 -9.96862,-9.49515 -21.39648,-19.41851 -3.60938,-3.13419 -9.51807,-8.64289 -13.13044,-12.24157 -3.61236,-3.59867 -9.00743,-8.44148 -11.98904,-10.76179 -2.9816,-2.32031 -6.27318,-5.57378 -7.31459,-7.22993 -1.04142,-1.65616 -3.66198,-4.37775 -5.82346,-6.04799 -5.56843,-4.30288 -9.61687,-7.92185 -16.09622,-14.38868 -3.10544,-3.09944 -10.49781,-9.77498 -16.4275,-14.83452 -5.92969,-5.05955 -14.57813,-12.71181 -19.21875,-17.00502 -4.64063,-4.29322 -11.39063,-10.42501 -15,-13.62621 -14.32103,-12.70149 -19.77468,-17.74923 -29.87224,-27.6489 -11.36883,-11.14603 -23.36277,-21.97467 -28.67536,-25.88936 -1.83007,-1.34853 -6.91334,-5.91238 -11.29615,-10.14192 -4.38281,-4.22953 -10.5,-9.55529 -13.59375,-11.83504 -7.05875,-5.20151 -10.45195,-7.98413 -17.68655,-14.50393 -3.16302,-2.85052 -6.61196,-5.80364 -7.66431,-6.5625 -1.05236,-0.75886 -2.87927,-2.75818 -4.05983,-4.44293 -1.18054,-1.68474 -4.53829,-4.69321 -7.46164,-6.68547 -2.92334,-1.99226 -6.6412,-5.04352 -8.2619,-6.78057 -5.18783,-5.56027 -18.7061,-18.04315 -23.49864,-21.69883 -2.55287,-1.9473 -6.71734,-5.55152 -9.25436,-8.00937 -2.53702,-2.45786 -6.0137,-5.44975 -7.72595,-6.64864 -1.71226,-1.1989 -5.08726,-4.2964 -7.5,-6.88335 -8.75906,-9.39146 -16.1201,-16.33512 -26.08464,-24.60559 C 100.67976,109.26563 93.993216,103.30833 91.411952,100.6678 85.2811,94.396209 63.919699,74.860817 61.033683,72.886323 59.797521,72.040592 55.541608,68.267844 51.576099,64.50244 47.610592,60.737035 43.652935,57.023437 42.781308,56.25 41.909681,55.476562 36.452965,49.992187 30.655272,44.0625 24.85758,38.132812 16.643047,30.044649 12.400757,26.088805 4.0051545,18.260088 3.0348797,15.900451 6.796875,12.460582 11.958112,7.7412827 13.493361,7.4874284 39.599812,7.0365984 53.140228,6.8027701 83.625,6.4150709 107.34375,6.1750446 131.0625,5.9350182 193.96058,5.2179247 247.11727,4.5815032 337.09919,3.5041897 344.21624,3.5338565 350.29621,5.011595 c 6.18232,1.5026172 6.70245,1.4995177 9.75773,-0.058149 4.70543,-2.3989572 35.25944,-2.7985226 191.19606,-2.5003375 72.44531,0.1385312 146.48437,0.1975074 164.53125,0.131058 50.96526,-0.1876565 70.74414,0.1617637 77.1667,1.3632516 4.39371,0.8219455 9.46138,0.8574453 19.6875,0.1379143 8.32341,-0.585652 22.85667,-0.6964243 36.73955,-0.2800279 12.7881,0.3835605 28.16296,0.3031587 34.6875,-0.181396 6.44531,-0.4786704 23.95312,-0.6396247 38.90625,-0.3576761 14.95312,0.2819486 55.23937,0.7055375 89.52505,0.9413086 57.5568,0.3957984 62.428,0.5522327 63.5156,2.0397511 0.6479,0.886092 1.1781,2.1308876 1.1781,2.7662124 0,2.0451849 -4.811,6.9494329 -8.7898,8.9601699 -2.1265,1.074675 -6.4209,4.536645 -9.5432,7.693266 -14.197,14.353534 -40.4748,39.02056 -41.5686,39.02056 -0.4401,0 -4.9666,4.255054 -10.0587,9.455675 -9.18786,9.383603 -22.17757,20.874859 -28.4772,25.192131 -3.00169,2.057144 -16.70906,15.212684 -40.21809,38.599034 -4.9915,4.96545 -11.19189,10.33034 -13.77865,11.92199 -2.58676,1.59165 -6.06328,4.78779 -7.7256,7.10253 -1.66232,2.31474 -6.17359,6.81518 -10.02503,10.00099 -3.85145,3.18581 -7.00263,6.12162 -7.00263,6.52401 0,0.4024 -2.21484,2.49386 -4.92188,4.64769 -2.70703,2.15384 -8.04458,6.72489 -11.86123,10.15788 -3.81664,3.433 -8.45727,7.24615 -10.3125,8.47367 -1.85522,1.22752 -5.69345,4.4171 -8.52939,7.08796 -5.43411,5.11778 -11.83584,10.26198 -16.21375,13.02875 -2.94073,1.85849 -15.66125,14.67218 -15.66125,15.77596 0,0.39152 -2.42578,2.37434 -5.39063,4.40625 -2.96484,2.0319 -9.26922,7.74116 -14.00972,12.68723 -4.7405,4.94607 -9.803,9.50066 -11.25,10.12131 -4.37842,1.87801 -12.33247,9.08493 -17.27158,15.64926 -3.10551,4.12739 -6.86894,7.66377 -11.26179,10.58237 -6.63164,4.40605 -25.73856,20.90369 -26.49606,22.8777 -0.51553,1.34344 -18.40249,16.85407 -24.05409,20.85843 -2.34581,1.66209 -5.00638,4.27685 -5.91237,5.81059 -0.906,1.53372 -2.02227,2.78859 -2.48062,2.78859 -0.45834,0 -6.44621,5.30808 -13.30636,11.79574 -6.86017,6.48765 -14.0109,12.79319 -15.89054,14.01231 -1.87963,1.21913 -5.18934,4.31788 -7.35492,6.88613 -2.16558,2.56824 -6.53394,6.67456 -9.70749,9.12514 -3.17354,2.45058 -8.34636,6.80547 -11.49514,9.67752 -20.25864,18.47821 -26.31861,24.09217 -35.52494,32.9104 -15.96367,15.29069 -33.99409,31.77491 -41.51304,37.95309 -13.94917,11.46175 -16.95632,14.24295 -24.52022,22.67785 -11.53311,12.86116 -19.74761,17.23053 -26.52501,14.10889 z m 14.67167,-16.46449 c 2.02174,-1.38949 5.3033,-4.63572 7.29235,-7.21384 5.52932,-7.16688 6.64107,-8.29399 10.09921,-10.23868 1.76161,-0.99065 8.52728,-7.12897 15.03481,-13.64071 6.50754,-6.51174 13.28107,-12.84024 15.0523,-14.06332 3.2817,-2.2661 11.86293,-9.79486 21.97043,-19.27579 6.84589,-6.42151 13.03181,-11.34901 16.49697,-13.14091 1.4239,-0.73632 2.8352,-2.1148 3.13623,-3.06326 0.59695,-1.88084 13.57154,-14.61183 25.49345,-25.01483 4.13637,-3.60938 8.69803,-8.17652 10.13703,-10.14921 1.439,-1.97268 3.72616,-4.06878 5.08259,-4.658 1.35643,-0.58921 5.84123,-4.21358 9.96623,-8.05414 4.125,-3.84057 9.1875,-8.20861 11.25,-9.70675 5.00649,-3.63658 29.49146,-26.0231 36.03649,-32.94803 2.86743,-3.03386 6.75315,-6.49286 8.63493,-7.68666 1.88178,-1.19381 6.73335,-5.30398 10.78125,-9.13373 8.42972,-7.97541 35.11973,-31.99337 48.62533,-43.75723 5.03173,-4.38281 11.07272,-9.76172 13.42443,-11.95313 2.35171,-2.1914 4.61471,-3.98437 5.02888,-3.98437 0.41417,0 3.6,-2.68218 7.07961,-5.9604 13.50359,-12.72203 26.19777,-24.61128 28.67005,-26.8521 1.42221,-1.28906 4.23719,-3.92578 6.2555,-5.85938 2.01833,-1.93359 4.06659,-3.51562 4.5517,-3.51562 0.48511,0 5.69754,-4.53516 11.58317,-10.07813 15.23658,-14.34948 27.42104,-25.41061 31.12305,-28.25371 4.50231,-3.45772 12.92389,-10.92686 19.16685,-16.99917 2.92611,-2.84612 9.95374,-9.13101 15.61701,-13.96643 10.33388,-8.82338 14.21259,-12.80559 16.27444,-16.70848 0.61003,-1.15482 2.46769,-2.79918 4.12819,-3.65413 1.66049,-0.85496 8.29256,-6.618247 14.73787,-12.80732 6.44531,-6.189072 15.54178,-14.458776 20.21428,-18.37712 4.67262,-3.918343 10.52042,-9.444572 12.99512,-12.28051 2.4748,-2.835938 5.0455,-5.595435 5.7126,-6.132217 3.0333,-2.440534 40.7655,-39.286659 40.7655,-39.808164 0,-0.322778 -21.6211,-0.64091 -48.0469,-0.706958 C 981.15234,11.411612 942.86719,11.070673 922.5,10.720018 902.13281,10.369364 822.1875,9.9453178 744.84375,9.7776947 667.5,9.6100706 596.21395,9.2746382 586.43031,9.0322884 572.66497,8.6913085 567.7883,8.8891783 564.86781,9.9071822 560.54335,11.414565 555.43965,11.545822 549.375,10.305623 543.06408,9.0150642 367.96764,9.093444 361.92418,10.38953 c -2.6551,0.569418 -7.02188,0.774173 -9.70395,0.455011 -6.20639,-0.738553 -29.37123,-0.77864 -93.93898,-0.162561 -69.83703,0.666356 -118.18163,1.39796 -134.53125,2.035875 -7.47656,0.291714 -30.257813,0.659461 -50.625,0.817215 -39.374526,0.304975 -47.981515,1.089765 -49.829907,4.543516 -1.155259,2.158622 0.64616,5.155088 5.176499,8.610546 1.758718,1.34144 4.278633,4.072427 5.59981,6.068861 1.321177,1.996433 4.707885,5.241169 7.526017,7.210523 2.818132,1.969355 5.762748,4.645364 6.543588,5.946687 2.140059,3.566553 11.810842,13.298889 25.921493,26.086482 6.960937,6.308259 14.765625,13.507462 17.34375,15.998229 2.578125,2.490768 6.164062,5.265083 7.96875,6.165145 1.80469,0.900057 5.00684,3.389728 7.1159,5.532582 2.10905,2.142859 4.85124,4.766739 6.09375,5.830839 1.2425,1.06411 2.89191,2.64973 3.66535,3.52362 0.77344,0.87389 6.46875,6.05512 12.65625,11.51384 6.1875,5.45872 13.02322,11.88871 15.19048,14.28888 7.3025,8.08724 8.32499,9.04038 14.04159,13.08907 3.13554,2.22071 10.07542,8.28687 15.42196,13.48035 5.34653,5.19348 11.8673,10.83396 14.4906,12.5344 2.62331,1.70043 5.99831,4.63065 7.5,6.51158 5.85566,7.33441 15.02658,16.61058 19.06998,19.28882 2.33243,1.54493 11.76456,9.86007 20.96029,18.47809 9.19574,8.61801 18.48702,16.92606 20.64731,18.46233 2.16028,1.53627 9.83404,8.49721 17.05279,15.46875 13.68198,13.21344 35.46184,33.17166 43.86524,40.19641 2.68662,2.24584 7.62695,6.71736 10.97851,9.9367 3.35156,3.21933 9.67969,8.82338 14.0625,12.45345 4.38281,3.63006 11.16301,9.70543 15.06711,13.50081 3.90409,3.79536 11.78014,11.04268 17.50232,16.10514 5.72218,5.06245 10.64005,9.8197 10.9286,10.57165 0.28855,0.75195 2.37263,2.15933 4.63128,3.1275 2.63059,1.1276 4.86086,2.98068 6.20504,5.15561 1.15413,1.86742 7.4362,8.18855 13.96015,14.04695 6.52396,5.85841 13.33831,12.22265 15.143,14.14276 1.80469,1.9201 5.60156,5.19277 8.4375,7.27258 2.83594,2.07982 6.87993,5.51331 8.98664,7.62999 2.10671,2.11667 9.03028,8.27818 15.38571,13.69224 6.35541,5.41406 15.23028,13.53516 19.72192,18.04688 4.49164,4.51171 8.70088,8.20312 9.35387,8.20312 1.40571,0 14.65456,12.38723 20.48924,19.15673 2.2515,2.61224 5.09916,5.37458 6.32813,6.13854 1.22896,0.76396 2.23449,1.89451 2.23449,2.51233 0,0.61782 3.05859,3.28157 6.79687,5.91943 6.52488,4.60418 6.98446,4.77356 11.48438,4.23276 2.81609,-0.33845 6.15504,-1.57196 8.3634,-3.0897 z m -16.38957,-7.89067 c -7.1908,-5.16784 -13.70463,-12.23111 -16.26329,-17.63509 -2.41304,-5.09642 -3.1203,-5.72787 -14.14116,-12.62558 -1.64768,-1.03125 -4.49815,-3.35156 -6.33437,-5.15625 -1.83622,-1.80469 -4.90414,-4.52578 -6.81761,-6.04687 -1.91347,-1.52109 -5.12515,-4.9939 -7.13709,-7.71736 -2.01194,-2.72347 -5.86527,-6.5892 -8.56294,-8.59054 -2.69768,-2.00134 -7.858,-6.47846 -11.46737,-9.94916 -3.60938,-3.47071 -7.61719,-6.86296 -8.90625,-7.53834 -1.28906,-0.67537 -4.80206,-4.01659 -7.80667,-7.42491 -3.00462,-3.40831 -6.80149,-6.885 -8.4375,-7.72597 -3.07791,-1.58213 -12.14171,-10.93479 -16.71403,-17.2467 -1.81392,-2.50405 -3.80979,-3.96484 -6.53117,-4.78018 -3.01926,-0.9046 -4.5244,-2.12879 -6.55605,-5.33236 -1.45037,-2.28702 -3.81241,-4.87973 -5.24894,-5.76158 -3.11473,-1.91204 -26.16854,-23.51725 -29.8654,-27.98879 -1.42507,-1.7237 -4.10258,-4.11015 -5.95002,-5.30321 -1.84743,-1.19307 -6.77853,-5.26715 -10.95799,-9.05349 -4.17946,-3.78636 -9.4529,-8.44218 -11.71875,-10.34628 -10.14094,-8.52187 -13.17148,-11.27606 -22.86973,-20.78426 -5.67187,-5.56073 -11.00158,-10.39579 -11.84379,-10.74459 -0.84221,-0.34879 -8.97209,-7.76752 -18.06642,-16.48608 -9.09431,-8.71855 -17.69362,-16.73417 -19.10957,-17.8125 -1.41596,-1.07832 -3.65002,-3.01527 -4.96458,-4.30433 -1.31457,-1.28906 -5.31524,-4.76455 -8.89038,-7.7233 -14.06922,-11.64358 -25.24838,-21.4609 -36.04232,-31.6517 -3.00379,-2.83594 -7.65109,-6.84375 -10.32735,-8.90625 -2.67625,-2.0625 -5.72545,-4.95647 -6.776,-6.43103 -1.05054,-1.47457 -3.05872,-3.16401 -4.46262,-3.75431 -1.4039,-0.59029 -5.12459,-4.02445 -8.26819,-7.63146 -6.8501,-7.85992 -6.88155,-7.89011 -20.31414,-19.50812 -10.10642,-8.74115 -20.40007,-16.56459 -21.83565,-16.59564 -0.36382,-0.008 -4.24704,-3.8339 -8.6294,-8.50231 -4.38234,-4.66839 -10.07765,-9.70409 -12.65625,-11.19043 -2.93738,-1.69315 -5.66341,-4.26339 -7.29916,-6.882044 -1.43595,-2.298787 -4.56439,-5.588684 -6.9521,-7.310884 C 103.6777,87.602632 102.33315,86.376102 85.134137,69.84375 79.769964,64.6875 73.080505,58.639622 70.268673,56.404021 64.980699,52.199716 53.436552,41.849927 46.353772,34.963357 c -2.230378,-2.168592 -4.456338,-5.332654 -4.94658,-7.03125 -0.49024,-1.698597 -1.219755,-3.895914 -1.621145,-4.882928 -0.709197,-1.743909 -0.200671,-1.777495 18.013614,-1.18972 10.403531,0.335722 20.053536,0.229113 21.687839,-0.2396 2.019837,-0.579281 4.795037,-0.409554 8.837838,0.540508 7.475443,1.756737 70.694032,1.885561 179.799662,0.366386 41.50781,-0.577949 87.70312,-1.025812 102.65625,-0.995251 14.95312,0.03056 67.6875,-0.02277 117.1875,-0.118521 49.5,-0.09575 96.75,-0.129206 105,-0.07435 30.1653,0.200568 47.44253,0.265715 177.65625,0.669889 202.70344,0.629175 232.9297,0.521181 246.6181,-0.881134 6.1579,-0.630849 7.3059,-0.506913 8.7584,0.945511 2.7272,2.727235 1.2642,6.790907 -4.3726,12.145855 -2.7139,2.578125 -9.1322,8.273438 -14.2629,12.65625 -5.1308,4.382813 -15.46138,13.67593 -22.95678,20.651374 -7.49541,6.975443 -15.73735,14.434289 -18.31547,16.575214 -2.57813,2.140924 -7.64063,6.687355 -11.25,10.103175 -3.60938,3.415828 -7.66781,6.802728 -9.01875,7.526448 -1.35084,0.72372 -4.30397,3.36552 -6.5625,5.87066 -2.25842,2.50515 -8.85234,8.70455 -14.65313,13.77643 -5.80078,5.0719 -10.54687,9.54294 -10.54687,9.93566 0,0.39272 -2.21484,2.47707 -4.92188,4.63188 -2.70703,2.15482 -8.32473,7.14774 -12.48378,11.09538 -4.15905,3.94764 -12.38562,11.39435 -18.28125,16.54824 -5.89564,5.15389 -15.91088,14.43514 -22.25609,20.625 -6.34522,6.18986 -13.2965,12.43616 -15.44729,13.88067 -2.1508,1.4445 -7.71707,6.10492 -12.3695,10.35649 -4.65243,4.25158 -9.93552,8.7536 -11.74021,10.0045 -1.80469,1.25089 -3.88339,2.70766 -4.61933,3.23724 -0.73593,0.52959 -4.53281,4.12695 -8.4375,7.99414 -3.90468,3.86719 -11.71173,11.25 -17.34901,16.40625 -5.63728,5.15625 -11.54353,10.62291 -13.125,12.14811 -1.58147,1.52522 -7.72697,6.97044 -13.65666,12.1005 -9.54517,8.25798 -15.76546,13.92789 -30.84679,28.11745 -2.27041,2.13617 -5.14433,4.5635 -6.38648,5.39409 -2.17938,1.45728 -12.12825,10.46858 -27.8823,25.25473 -4.14738,3.89257 -11.33756,10.20742 -15.97818,14.033 -4.64063,3.82558 -16.33646,14.75613 -25.99075,24.2901 -9.6543,9.53398 -19.03523,18.22891 -20.84651,19.32206 -1.81128,1.09316 -5.37717,4.36898 -7.92419,7.2796 -5.36557,6.13155 -12.7068,13.26947 -16.96838,16.49849 -1.63369,1.23783 -3.38556,3.16193 -3.89305,4.27577 -0.50749,1.11382 -3.1062,3.39011 -5.77492,5.0584 -7.55221,4.72112 -13.13599,9.48082 -18.30405,15.6027 -2.61173,3.09375 -7.76109,8.15625 -11.44302,11.25 -6.35953,5.34362 -14.01561,12.17972 -18.32879,16.36577 -1.08551,1.05351 -2.41898,1.91548 -2.96324,1.91548 -0.54428,0 -1.89208,1.8643 -2.99513,4.14289 -2.48317,5.12956 -3.30867,5.80586 -8.00547,6.55866 -3.25427,0.52159 -4.31529,0.19478 -8.02617,-2.47213 z m 13.16011,-23.17471 c 2.90406,-2.03909 3.65561,-5.00949 2.57313,-10.17009 -1.00724,-4.80196 0.16398,-6.75962 4.04412,-6.75962 2.14437,0 3.30549,-1.01106 6.44771,-5.6144 4.33839,-6.35575 4.48124,-7.08078 2.02481,-10.27703 -3.1229,-4.06345 -12.26684,-2.44561 -15.20302,2.68986 -0.96335,1.68493 -2.63588,2.93699 -4.45784,3.33716 -2.52207,0.55393 -3.50319,0.12362 -7.26206,-3.18507 -2.39031,-2.10404 -5.297,-3.82552 -6.45931,-3.82552 -1.79447,0 -2.17748,0.60109 -2.53879,3.98437 -0.31868,2.984 0.01,4.47031 1.30777,5.9198 0.95331,1.06449 1.73329,2.42295 1.73329,3.01881 0,0.59586 1.26562,2.0191 2.8125,3.16276 3.34247,2.47119 3.7436,6.21853 0.9375,8.75801 -2.73263,2.47299 -2.34056,4.00979 2.04592,8.01943 3.25935,2.97935 4.40617,3.49866 6.79688,3.0778 1.58177,-0.27844 3.9206,-1.23976 5.19739,-2.13627 z m 26.34899,-14.11721 c 1.37196,0 0.99554,-4.34611 -0.48269,-5.57293 -1.05481,-0.87542 -1.86061,-0.7762 -3.75,0.46178 -1.32356,0.86724 -2.40649,2.14012 -2.40649,2.82864 0,1.58013 2.87874,3.31256 4.5298,2.72604 0.6867,-0.24394 1.63592,-0.44353 2.10938,-0.44353 z m -63.09738,-7.73438 c -0.21785,-8.43895 1.12398,-11.22505 9.25228,-19.21093 3.27576,-3.21835 5.95592,-6.28739 5.95592,-6.82007 0,-0.53269 -1.04438,-1.3656 -2.32086,-1.85091 -2.07293,-0.78813 -2.84906,-0.32501 -7.26562,4.33536 -6.84103,7.21871 -7.9671,9.26041 -9.13314,16.5595 -1.14182,7.14756 -0.0186,13.78393 2.33313,13.78393 1.07165,0 1.31719,-1.41637 1.17829,-6.79688 z M 570,421.84384 c 0,-4.66218 -7.6701,-17.78134 -10.39583,-17.78134 -1.6343,0 -0.83129,2.1416 2.89583,7.72299 2.0625,3.08862 3.75,6.58778 3.75,7.77592 0,3.13526 0.9492,5.12609 2.44405,5.12609 0.82924,0 1.30595,-1.03803 1.30595,-2.84366 z m 33.54063,-22.90967 c 2.63876,-6.56415 2.27667,-8.81344 -2.41891,-15.02617 -2.60792,-3.45054 -4.71056,-5.10109 -8.17566,-6.4178 -7.1782,-2.72768 -7.45737,-2.94737 -7.77228,-6.11651 -0.24328,-2.44814 0.53729,-3.90226 4.45312,-8.29572 3.12276,-3.50366 4.7481,-6.16176 4.7481,-7.76511 0,-3.09855 1.58918,-4.68786 4.6875,-4.68786 2.80198,0 4.6875,1.54349 4.6875,3.8372 0,1.84321 -1.84546,2.7253 -5.70168,2.7253 -5.70644,0 -1.41892,4.03705 5.35053,5.03796 3.12097,0.46145 4.37366,0.17378 6.489,-1.49015 2.0621,-1.62204 3.68282,-2.01758 7.59606,-1.85382 l 4.97464,0.20816 -0.56232,-2.81164 c -0.391,-1.95499 -0.17046,-2.92326 0.72384,-3.17801 15.43708,-4.39741 15.89199,-4.6121 18.23127,-8.60378 2.47442,-4.22227 2.80085,-8.43466 1.04887,-13.53491 -1.53235,-4.46089 -7.3008,-6.77969 -14.94709,-6.00844 -4.96402,0.5007 -5.39062,0.39375 -5.39062,-1.35139 0,-2.73823 4.29189,-7.42811 7.42813,-8.11694 1.47947,-0.32495 3.43189,-1.41065 4.33871,-2.41268 0.90682,-1.00203 2.15731,-1.82186 2.77889,-1.82186 0.62157,0 2.68429,-1.05469 4.58383,-2.34375 1.89954,-1.28906 4.07168,-2.34375 4.82699,-2.34375 0.7553,0 2.65741,2.08697 4.22689,4.63772 1.77271,2.881 4.55456,5.68431 7.34408,7.40072 4.73524,2.91362 9.03758,8.9902 10.08964,14.25048 0.66669,3.33345 2.08092,4.17836 5.54046,3.31007 2.82126,-0.70809 5.09238,-5.34353 5.09238,-10.39373 0,-2.81242 0.48318,-3.61323 2.98782,-4.95199 6.28677,-3.36035 7.34569,-5.12442 7.08923,-11.81007 -0.21991,-5.73279 -0.0585,-6.26222 2.81357,-9.22895 3.3175,-3.4268 3.7896,-6.33002 1.64063,-10.08925 -1.68552,-2.94851 -1.79755,-8.08673 -0.18977,-8.7037 0.66906,-0.25675 4.18728,0.47509 7.81827,1.62631 7.59582,2.40827 26.6676,3.85369 29.66708,2.24842 1.55249,-0.83087 1.72507,-1.6439 1.23179,-5.80301 -0.79972,-6.74274 0.21467,-8.05316 4.61098,-5.95671 2.77492,1.32327 4.08157,1.44186 7.0575,0.64053 3.22583,-0.86863 3.77589,-1.44514 4.71292,-4.9395 2.10122,-7.83583 2.37109,-8.17484 6.50749,-8.17484 3.96691,0 10.30249,-2.15027 10.30249,-3.49663 0,-0.42889 1.26466,-1.25716 2.81036,-1.8406 3.62774,-1.36931 4.29776,-3.29388 2.76432,-7.94025 -1.66496,-5.04485 -0.53469,-6.58739 5.76456,-7.86723 8.88356,-1.80492 14.96391,-6.44465 16.2763,-12.41997 1.32002,-6.00997 -1.79322,-8.62282 -10.27419,-8.62282 -3.16095,0 -5.75381,-2.02078 -4.72623,-3.68346 0.32397,-0.5242 2.26507,-1.40439 4.31355,-1.95599 5.42858,-1.46177 10.12719,-4.51158 11.73213,-7.61522 1.25793,-2.43255 1.25192,-2.77517 -0.0575,-3.27764 -0.80424,-0.30861 -3.03383,0.46678 -4.95466,1.7231 -4.96153,3.24511 -6.36022,3.6036 -8.32315,2.13324 -1.67289,-1.25309 -1.66004,-1.42453 0.37762,-5.04321 3.38954,-6.01946 2.5735,-8.53082 -2.77199,-8.53082 -1.6779,0 -1.82975,-0.37795 -1.22417,-3.04687 1.49436,-6.586 1.39258,-6.77118 -3.88998,-7.07738 -3.26237,-0.1891 -5.01678,-0.74306 -5.384,-1.70002 -0.58325,-1.51992 1.56111,-6.38652 3.28298,-7.45069 1.78275,-1.1018 4.55597,-8.2215 4.54273,-11.66254 -0.007,-1.80469 -0.61555,-4.33594 -1.35244,-5.625 -0.73689,-1.28906 -1.35476,-3.44393 -1.37303,-4.78861 -0.0308,-2.26071 4.12456,-11.20348 8.54936,-18.39949 2.3071,-3.75202 1.98588,-7.17716 -0.70919,-7.56201 -2.69734,-0.38517 -10.06115,7.21734 -12.99246,13.41362 -5.17996,10.94954 -8.86954,33.57033 -7.71544,47.30329 0.67617,8.04596 -0.94558,29.94462 -2.74488,37.06445 -0.78184,3.09375 -3.15714,9.1369 -5.27845,13.42924 -3.05086,6.17324 -5.10305,8.8983 -9.81966,13.03924 -4.68141,4.11005 -6.20623,4.98915 -7.09575,4.09091 -0.88769,-0.89638 -0.49622,-1.68977 1.80796,-3.66425 1.61754,-1.38607 5.14722,-6.18532 7.84375,-10.66499 6.46341,-10.73752 8.5251,-20.00993 8.74591,-39.33469 l 0.15688,-13.72953 -4.6875,-9.17006 c -5.78903,-11.32495 -7.13918,-12.33534 -10.75831,-8.05098 -1.45531,1.72282 -3.35635,4.99235 -4.22453,7.26563 -1.04095,2.72569 -2.14123,4.13323 -3.23097,4.13323 -0.90887,0 -7.09668,-5.37891 -13.7507,-11.95312 C 700.82881,153.36219 697.5,147.79716 697.5,137.63426 c 0,-7.34702 1.10891,-10.05662 6.06583,-14.82176 3.09951,-2.97959 3.91261,-3.28125 8.84431,-3.28125 6.33266,0 9.90869,1.61125 11.20183,5.04721 2.99373,7.95454 1.97423,11.72983 -3.57081,13.22296 -4.37511,1.17809 -4.80141,2.40348 -1.37869,3.96297 1.90621,0.86853 3.21634,0.81513 6.2432,-0.25447 5.64284,-1.99402 7.71225,-5.33492 7.73327,-12.48479 0.0149,-5.05404 -0.36382,-6.38384 -2.68547,-9.43031 -3.51422,-4.61135 -10.75499,-8.01106 -17.08795,-8.02316 -4.08184,-0.007 -5.67715,0.58122 -10.78125,3.98071 -4.92052,3.27721 -6.56286,5.0714 -9.19485,10.04497 -2.9412,5.5579 -3.20943,6.75072 -3.26646,14.52577 -0.0673,9.17068 0.35953,10.42047 5.37454,15.73794 1.81198,1.92125 4.55693,6.13458 6.09988,9.36295 2.09205,4.37726 4.13964,6.92077 8.05287,10.00329 8.37718,6.59885 13.92703,16.07477 16.13589,27.55072 3.14183,16.32314 -1.79409,41.90949 -8.08486,41.90949 -2.53506,0 -2.39746,-1.01906 1.39247,-10.3125 2.83756,-6.9581 3.24747,-8.9794 3.23209,-15.9375 -0.0318,-14.36845 -2.84207,-21.86024 -12.08513,-32.21704 -4.44766,-4.98359 -16.49232,-8.63624 -24.98084,-7.57566 -6.19035,0.77342 -8.09519,1.95785 -5.64991,3.5131 4.65181,2.95865 7.37441,5.95364 9.50367,10.45449 2.91702,6.16609 2.91371,8.49901 -0.0199,14.01634 -1.28906,2.42439 -2.34375,5.16402 -2.34375,6.08808 0,2.13482 2.40942,4.31873 6.77887,6.1444 2.81677,1.17693 3.96625,2.55846 6.43809,7.73773 4.39628,9.21158 4.80407,11.82261 3.11784,19.96356 -2.58492,12.47984 -7.03965,25.21149 -9.04391,25.84762 -1.59044,0.50478 -4.34593,-1.60215 -4.44858,-3.40153 -0.0164,-0.28745 -1.90793,-1.84648 -4.20342,-3.46448 -2.29548,-1.618 -5.03904,-4.63824 -6.09681,-6.71163 -2.32319,-4.55382 -4.27407,-5.71199 -9.58982,-5.69313 -6.38148,0.0227 -6.83137,0.64541 -5.51317,7.63161 0.9875,5.23352 0.91586,6.61173 -0.5778,11.11721 -1.78416,5.38176 -3.16292,6.45433 -14.31742,11.13798 -2.17981,0.91528 -3.53317,2.37532 -4.51233,4.86803 -1.77638,4.52221 -3.16285,5.01825 -7.26367,2.59871 -4.24437,-2.50424 -5.8794,-1.30751 -6.26643,4.58664 -0.35852,5.45993 -2.19933,6.17166 -4.11349,1.59043 -1.90289,-4.55424 -8.02132,-12.80281 -11.23073,-15.1407 -3.30092,-2.40454 -4.07157,-9.40338 -1.5792,-14.34176 2.06139,-4.08444 7.32182,-7.10464 10.8376,-6.22223 2.98132,0.74827 3.32217,3.39245 1.02965,7.98791 -1.83874,3.68585 -0.57964,5.73432 3.52464,5.73432 3.79366,0 7.34491,-3.72425 7.33446,-7.69177 -0.0146,-5.56186 -9.06521,-12.95776 -15.80948,-12.91911 -3.97606,0.0228 -9.3052,2.26584 -12.37838,5.21014 -4.15473,3.98048 -6.31523,9.65699 -8.80953,23.14607 -1.75381,9.4846 -2.01184,12.69006 -1.24504,15.46718 0.54578,1.97666 0.71023,6.56758 0.37739,10.53592 -0.32442,3.86805 -0.56621,9.15467 -0.53728,11.74806 0.0291,2.61653 -1.60157,11.11957 -3.66386,19.10408 -3.39039,13.12651 -4.03128,14.71675 -7.30544,18.12671 -2.09728,2.18428 -7.06765,5.44662 -11.95846,7.84905 -7.98677,3.92319 -12.06937,4.90333 -14.13587,3.39369 -1.82824,-1.33559 -5.93523,-7.4136 -7.43517,-11.00345 -0.83489,-1.99818 -3.83898,-6.06639 -6.67577,-9.04046 -8.27548,-8.67597 -10.61959,-16.01259 -7.33065,-22.94351 2.15093,-4.53275 6.28356,-7.19653 11.32797,-7.30173 3.58896,-0.0748 4.56376,0.34453 6.91411,2.97455 2.67077,2.98856 2.73609,3.00767 2.73609,0.80024 0,-1.41497 -1.24039,-3.3505 -3.31387,-5.17104 -3.56721,-3.13206 -4.01126,-3.24608 -11.44803,-2.93955 -3.77787,0.15571 -5.05201,-0.14614 -5.49551,-1.30187 -0.95583,-2.49087 1.30114,-4.09309 7.87937,-5.5936 7.07196,-1.61312 8.62804,-3.10938 8.62804,-8.29639 0,-5.35273 -3.21212,-8.21571 -9.21759,-8.21571 -5.26895,0 -6.23149,-0.83471 -7.02692,-6.09375 -0.35931,-2.3756 -1.45695,-4.5231 -2.99486,-5.85938 -4.64179,-4.03318 -7.50371,-2.05879 -9.46234,6.5279 l -1.4267,6.25469 -4.63222,1.53858 c -4.89747,1.62668 -6.48937,3.45588 -6.48937,7.45669 0,2.91742 3.82193,7.05027 6.51989,7.05027 1.05469,0 2.77103,0.85342 3.8141,1.89649 1.54204,1.54203 1.70278,2.25843 0.86006,3.83306 -0.93142,1.74037 -1.58761,1.8726 -6.47663,1.30517 -7.81916,-0.90751 -12.62877,2.00379 -14.31907,8.66747 -0.76343,3.0097 0.81337,3.5172 2.57492,0.82874 2.0298,-3.09787 6.27759,-4.69079 10.86719,-4.07519 4.99467,0.66992 7.06531,2.69368 8.98405,8.78065 1.49443,4.74086 1.48918,5.30687 -0.0964,10.40423 -1.87757,6.03603 -7.88146,14.49828 -12.37736,17.44542 -4.22972,2.77263 -5.39515,5.0011 -5.95288,11.38271 -0.42704,4.88623 -0.76049,5.66328 -2.53891,5.91644 -3.07393,0.4376 -15.67515,-5.73045 -17.73676,-8.68178 -3.92103,-5.61321 -7.21524,-8.95341 -8.83013,-8.95341 -3.83427,0 -4.66706,1.01492 -4.66706,5.68767 l 0,4.54957 -3.98438,1.07241 c -5.9582,1.60368 -11.14786,3.79154 -14.29687,6.02727 -1.54688,1.09825 -4.1531,2.53684 -5.7916,3.19686 -3.78912,1.52634 -6.46224,4.33736 -4.98989,5.24732 1.6955,1.04788 7.68658,-0.41058 11.26254,-2.74173 1.81146,-1.18088 4.34271,-2.46624 5.625,-2.85635 1.2823,-0.39013 3.68556,-1.52887 5.34058,-2.53055 1.65502,-1.00168 4.81908,-1.9028 7.03125,-2.00248 3.66691,-0.16524 4.02212,0.0167 4.02212,2.06033 0,2.50269 -0.9667,3.19433 -6.94523,4.9691 -7.23959,2.14912 -7.16991,2.79998 1.57646,14.72687 3.64892,4.9758 4.00955,9.09517 0.91564,10.4589 -1.63802,0.72199 -1.16669,0.81406 2.10938,0.41199 2.32031,-0.28476 8.10811,-2.46186 12.86178,-4.83801 8.38865,-4.19308 8.8399,-4.30615 15.33179,-3.84165 3.67881,0.26321 7.85739,0.0375 9.28573,-0.50168 2.16801,-0.81832 3.02451,-0.64395 5.18527,1.05571 2.9148,2.29278 5.28091,2.50159 11.26694,0.99429 5.07944,-1.27902 7.05977,-3.20487 4.22178,-4.10561 -1.06998,-0.3396 -3.10431,-0.36292 -4.52072,-0.0518 -3.71478,0.8159 -6.40764,-1.32629 -4.9921,-3.97125 0.88158,-1.64725 2.07461,-2.03877 6.91557,-2.26954 5.36137,-0.25556 5.87669,-0.46615 6.16708,-2.52019 0.20746,-1.4674 -0.48818,-2.98781 -2.01461,-4.40319 -1.28231,-1.18902 -2.49825,-2.66219 -2.70208,-3.2737 -0.74632,-2.23897 -4.27404,0.19578 -6.47001,4.46545 -3.52584,6.85535 -7.49783,8.24654 -23.81767,8.34216 -7.21875,0.0423 -15.12891,0.41605 -17.57812,0.83055 l -4.45313,0.75366 0,-2.89699 c 0,-2.34166 0.82882,-3.52983 4.32372,-6.19839 6.38553,-4.87571 9.96759,-5.09214 22.51204,-1.3602 3.05848,0.90989 4.44997,0.90895 6.65518,-0.005 3.80183,-1.57454 6.82156,-7.21482 6.82156,-12.74118 0,-3.72665 0.43584,-4.79252 2.8125,-6.87799 1.54687,-1.35736 2.8125,-3.19789 2.8125,-4.09005 0,-5.72187 4.21858,-7.97687 9.02781,-4.82575 2.14448,1.40513 6.90969,9.94576 6.90969,12.38418 0,0.52329 0.46737,3.13072 1.03861,5.79429 1.19737,5.58317 6.39435,12.12999 9.61735,12.11533 1.10016,-0.005 3.85263,-1.48156 6.1166,-3.28125 7.56637,-6.01468 16.83777,-3.8783 20.65909,4.76042 2.82926,6.39601 2.60967,7.90493 -1.1504,7.90493 -1.70156,0 -3.62122,-0.52734 -4.2659,-1.17188 C 574.09318,388.09407 555,390.933 555,393.93008 c 0,0.47457 1.84413,1.6786 4.09806,2.67562 3.53608,1.56417 4.82199,1.67894 9.37717,0.83687 5.25446,-0.97135 5.31638,-0.95559 13.26426,3.37681 9.90731,5.40048 12.22195,6.05805 16.36241,4.64842 2.74601,-0.93488 3.60091,-1.96188 5.43873,-6.53363 z m 2.08437,-47.15498 c -1.80469,-1.92387 -4.02239,-3.91982 -4.92823,-4.43544 -1.56328,-0.88986 -1.55026,-1.33826 0.25635,-8.82328 1.04684,-4.33719 2.11259,-11.29812 2.36835,-15.46875 0.7844,-12.79116 1.54189,-15.97876 3.87607,-16.31112 1.12272,-0.15987 2.54547,-0.89815 3.16167,-1.64063 0.61621,-0.74249 1.64987,-1.34997 2.29704,-1.34997 0.64717,0 1.67068,-0.59526 2.27448,-1.32278 1.67629,-2.0198 -0.47977,-2.80563 -2.95018,-1.07528 -2.68725,1.88222 -5.99737,1.87121 -6.724,-0.0224 -1.01605,-2.64778 -0.60866,-13.10246 0.55595,-14.26707 0.61875,-0.61875 2.07547,-1.125 3.23714,-1.125 4.11446,0 6.76111,2.0709 9.18251,7.18499 4.0016,8.4515 2.90025,18.37529 -2.98278,26.8765 -3.42615,4.95093 -2.24934,6.70076 4.55573,6.77397 9.78229,0.10524 11.19139,0.3883 13.51876,2.71568 1.58976,1.58975 2.30114,3.34308 2.30114,5.67156 0,5.82623 -2.28303,8.78012 -9.21179,11.91866 -3.44133,1.55883 -7.64273,4.0491 -9.33646,5.53393 -4.26221,3.73657 -7.37741,3.50981 -11.45175,-0.83359 z m 17.8125,-8.64671 c 7.94276,-2.36337 9.375,-3.24139 9.375,-5.74727 0,-2.09516 -2.38075,-2.36255 -3.15153,-0.35396 -0.89625,2.33559 -4.24003,1.69597 -4.90099,-0.9375 -0.51209,-2.0403 -1.10436,-2.34375 -4.57452,-2.34375 -2.19244,0 -5.94358,-0.26828 -8.33586,-0.59618 -4.899,-0.67148 -5.85475,0.76574 -2.44861,3.68216 1.51368,1.29604 1.7003,2.00264 0.91601,3.46811 -0.54173,1.01224 -1.81905,2.28683 -2.83849,2.83241 -6.49955,3.47846 4.26424,3.47575 15.95899,-0.004 z m 40.42374,-24.56046 c -1.60805,-1.64475 -2.92374,-3.96507 -2.92374,-5.15625 0,-1.76968 0.50213,-2.16577 2.74553,-2.16577 3.13504,0 5.43076,1.91408 6.26042,5.21971 1.3905,5.54022 -1.68253,6.60241 -6.08221,2.10232 z m -35.9815,-8.4939 c -0.60661,-1.59436 0.88655,-5.39062 2.12026,-5.39062 1.23371,0 2.72687,3.79626 2.12026,5.39062 -0.24522,0.64454 -1.19934,1.17188 -2.12026,1.17188 -0.92092,0 -1.87504,-0.52734 -2.12026,-1.17188 z m 41.72963,-2.79213 c -3.89054,-3.00332 -4.92187,-4.35745 -4.92187,-6.46237 0,-3.33114 2.99956,-4.3183 8.15333,-2.68327 6.53084,2.07189 7.78417,3.3398 7.78417,7.87471 0,4.17019 -1.02576,5.337 -4.5298,5.15267 -0.86017,-0.0453 -3.77879,-1.79204 -6.48583,-3.88174 z M 672.1875,294.375 c -0.77344,-0.49984 -2.30381,-0.91525 -3.40084,-0.92315 -2.83325,-0.0203 -4.47128,-2.2548 -3.28202,-4.47696 2.05377,-3.83748 12.43518,-4.70227 16.29223,-1.35716 1.89308,1.64181 2.15146,4.93394 0.51563,6.56977 -1.34458,1.34458 -8.13982,1.47042 -10.125,0.1875 z m 49.72488,-12.61121 c -1.66082,-2.00117 -0.79745,-4.68825 1.61702,-5.03267 2.55682,-0.36473 3.57475,1.75506 2.13481,4.44562 -1.22898,2.29636 -2.20631,2.44929 -3.75183,0.58705 z m -54.16681,-3.51898 c -0.70775,-0.86698 -0.49218,-3.16491 0.75484,-8.0461 2.15976,-8.45403 2.27431,-8.63621 5.42992,-8.63621 3.51841,0 4.81967,1.59434 4.81967,5.90519 0,3.32094 -2.17568,9.5585 -3.62962,10.40594 -2.098,1.22283 -6.49874,1.44432 -7.37481,0.37118 z m 67.95755,-7.3824 c -1.75445,-1.02188 -2.24313,-5.06688 -0.72545,-6.00486 0.50333,-0.31108 2.96984,-0.80895 5.48112,-1.10637 3.67735,-0.43553 4.67947,-0.245 5.14916,0.97902 0.87192,2.27217 -0.21039,4.24016 -3.175,5.77323 -3.09172,1.59878 -4.47456,1.67254 -6.72983,0.35898 z m 18.0518,-14.78454 c -3.58426,-1.05947 -3.50677,-3.6816 0.15731,-5.32293 1.71546,-0.76844 4.25969,-2.30487 5.65385,-3.41428 2.10711,-1.67674 2.77943,-1.81411 3.98438,-0.81409 1.53739,1.27592 2.03642,8.00006 0.657,8.85259 -1.52445,0.94216 -8.13418,1.384 -10.45254,0.69871 z m -38.44242,-1.65569 c 0,-0.83343 2.26583,-3.9627 5.03519,-6.95392 2.76935,-2.99124 5.93667,-7.30083 7.03849,-9.57689 2.9473,-6.08832 6.0283,-21.63544 5.3225,-26.8581 -1.76364,-13.05038 -1.73988,-13.48772 0.94725,-17.43952 1.40247,-2.0625 3.16201,-5.54297 3.91013,-7.73438 3.34615,-9.80176 7.74644,-0.33481 7.74644,16.66601 0,10.74675 -1.08772,15.99759 -5.88605,28.41441 -3.78182,9.78637 -4.20878,10.43037 -11.65405,17.57813 -5.48505,5.26586 -8.41513,7.41958 -10.09416,7.41958 -1.55356,0 -2.36574,-0.52022 -2.36574,-1.51532 z M 709.375,236.5625 c -0.34375,-0.34375 -0.625,-2.16562 -0.625,-4.0486 0,-6.854 -2.49172,-12.56414 -7.49291,-17.17101 -2.58203,-2.37845 -4.69459,-4.91922 -4.69459,-5.64615 0,-0.72694 0.90282,-3.49412 2.00626,-6.14931 2.38566,-5.74052 4.83867,-6.82182 9.45975,-4.16993 4.03037,2.3129 7.40222,9.40551 7.99761,16.8228 0.49284,6.13982 -1.14329,17.83943 -2.76862,19.79784 -1.07302,1.29291 -2.88985,1.557 -3.8825,0.56436 z m 51.48444,-0.18598 c -1.27449,-2.06217 1.64038,-5.07323 7.46995,-7.71648 3.28444,-1.48923 6.42504,-3.55479 6.97913,-4.59011 1.11986,-2.09248 4.85052,-2.48843 8.90865,-0.94553 2.05007,0.77944 2.41484,1.43348 2.1704,3.89168 -0.3992,4.01457 -3.77292,6.30961 -11.65492,7.92851 -11.19931,2.30023 -13.2084,2.5076 -13.87321,1.43193 z M 552.1875,400.3125 c 0,-0.51563 -1.07959,-0.9375 -2.39908,-0.9375 -1.36065,0 -2.14828,0.40579 -1.81967,0.9375 0.31867,0.51562 1.39826,0.9375 2.39908,0.9375 1.00082,0 1.81967,-0.42188 1.81967,-0.9375 z m 69.375,-20.94369 c 0,-0.69091 -1.79297,-1.84009 -3.98438,-2.55373 -2.1914,-0.71364 -5.78727,-2.66251 -7.9908,-4.33083 -3.5598,-2.69515 -9.05153,-4.96419 -12.05066,-4.97902 -0.58139,-0.003 -1.57812,0.6226 -2.21495,1.38993 -0.94703,1.14109 -0.83989,1.49882 0.58833,1.96443 0.96042,0.3131 5.89626,2.6384 10.96854,5.16734 9.13581,4.55494 14.68392,5.81762 14.68392,3.34188 z m -181.40156,-2.25944 c -0.37546,-1.41796 -0.74105,-4.47202 -0.81242,-6.78677 -0.12115,-3.9293 0.088,-4.31519 3.15148,-5.81355 1.80469,-0.88269 3.91406,-1.83049 4.6875,-2.10622 0.77344,-0.27574 2.34818,-1.18673 3.49944,-2.02444 1.99674,-1.45292 2.13446,-1.41455 2.98873,0.83236 1.11141,2.92324 6.28129,4.86961 9.54867,3.59492 2.10633,-0.82175 6.46316,-4.38605 6.46316,-5.28751 0,-0.22483 -1.29892,-0.149 -2.88649,0.16851 -3.72972,0.74595 -12.96156,-1.47222 -15.123,-3.63366 -2.02641,-2.02641 -4.79193,-2.16782 -6.32276,-0.32327 -0.61838,0.74511 -3.5177,1.83842 -6.44291,2.4296 -9.61226,1.9426 -10.99704,4.0302 -8.10697,12.22153 2.30666,6.53776 10.95128,12.75495 9.35557,6.7285 z m 191.28408,-6.5625 c 0.29878,-1.41796 0.9432,-3.3164 1.43205,-4.21875 0.7691,-1.41964 0.44579,-1.64062 -2.40038,-1.64062 -3.66503,0 -3.6677,0.006 -2.3024,4.92187 1.15235,4.14942 2.51184,4.53909 3.27073,0.9375 z M 506.08149,353.27266 c 1.22846,-3.23774 1.16878,-3.6345 -0.98716,-6.5625 -6.79096,-9.22287 -8.11556,-26.1457 -3.14249,-40.14766 1.37351,-3.86719 2.89897,-8.80056 3.38991,-10.96305 0.69533,-3.06277 2.50026,-5.56848 8.16607,-11.33668 4.00038,-4.07269 8.6313,-8.1873 10.29091,-9.14359 5.77232,-3.32609 4.85947,-6.86156 -1.34057,-5.19206 -2.48517,0.66919 -5.63136,2.86768 -9.48902,6.63075 -3.40196,3.31852 -6.59224,5.62963 -7.77122,5.62963 -1.80089,0 -1.94166,-0.36526 -1.41352,-3.66804 0.32261,-2.01743 0.82336,-4.28519 1.11281,-5.03947 0.74949,-1.95313 -3.46358,-6.4799 -7.19909,-7.73513 -3.24597,-1.09073 -3.67367,-1.85744 -5.20951,-9.33861 -0.61137,-2.97795 -1.4454,-4.09821 -4.05111,-5.44131 -4.11004,-2.11849 -14.2179,-1.83632 -16.51526,0.46104 -1.36417,1.36416 -1.25214,2.00232 1.30874,7.45482 4.92712,10.4906 5.27623,12.4196 5.32087,29.40045 0.0354,13.46399 -0.21273,16.40316 -1.59873,18.93782 -2.10804,3.85511 -2.08097,11.48637 0.0627,17.68713 2.65203,7.67111 13.28265,24.87312 16.42322,26.57532 1.50918,0.81798 3.82512,2.45509 5.14653,3.63801 3.33464,2.98518 5.90262,2.35247 7.49591,-1.84687 z m 68.99218,-3.60913 c 4.72103,-4.3517 9.23212,-12.53609 14.04155,-25.47537 l 3.37984,-9.0931 -1.55911,-6.37565 c -1.12984,-4.62021 -1.58088,-10.89289 -1.63816,-22.78191 l -0.079,-16.40625 3.98454,-8.87259 c 4.73743,-10.54905 4.4704,-11.24439 -4.58662,-11.94331 -5.71458,-0.44099 -6.085,-0.33669 -8.98083,2.52896 -2.84479,2.81513 -3.64232,5.02462 -4.23203,11.72444 -0.22863,2.59747 -0.55531,2.83469 -4.27267,3.10277 -2.34627,0.1692 -5.46212,1.26546 -7.47046,2.62835 -4.21626,2.86123 -6.44782,2.45952 -11.9674,-2.15428 -5.65426,-4.72637 -8.86517,-12.86234 -8.87555,-22.48928 -0.004,-3.84521 -0.50804,-5.4475 -2.43232,-7.73438 -2.95274,-3.50914 -5.86644,-3.6877 -8.82291,-0.54068 -2.71494,2.88992 -4.15518,2.95195 -6.04059,0.26015 -1.96244,-2.80177 -1.83713,-6.8375 0.41559,-13.38515 4.07943,-11.85706 1.48169,-20.15625 -6.30913,-20.15625 -4.47506,0 -7.24644,1.89353 -9.64092,6.5871 -2.31857,4.54478 -2.35285,8.51035 -0.13175,15.24295 2.28538,6.92745 3.79774,9.0848 8.70274,12.41432 5.02639,3.41193 5.67348,4.26562 4.39814,5.80231 -4.31966,5.20488 -15.88446,-5.59494 -20.33735,-18.99211 -1.46548,-4.4091 -1.6972,-6.48949 -1.04575,-9.38887 2.17542,-9.68211 7.13644,-16.26673 16.09233,-21.35889 7.88097,-4.48098 9.81493,-8.80256 6.79101,-15.17499 -2.63023,-5.54279 -12.80134,-8.65914 -19.70052,-6.03608 -3.19118,1.21329 -8.90365,6.11057 -10.46792,8.97412 -0.64921,1.18843 -1.44978,5.34782 -1.77905,9.24308 -0.32927,3.89526 -1.13768,7.81603 -1.79646,8.7128 -1.09622,1.49223 -1.28325,1.40669 -2.20534,-1.00865 -3.3265,-8.71351 1.34932,-20.23694 13.36556,-32.939 5.22706,-5.5254 10.0019,-15.76431 10.0019,-21.44757 0,-8.20704 -3.61847,-18.81271 -8.30151,-24.33158 -1.26818,-1.49452 -1.25571,-1.83101 0.11879,-3.20551 1.35623,-1.35622 2.15723,-1.39662 6.85356,-0.34563 4.84021,1.08319 5.53005,1.03166 7.68032,-0.57375 1.40358,-1.04792 2.80837,-3.46428 3.46106,-5.95332 0.60424,-2.30421 2.01867,-5.87074 3.1432,-7.9256 2.58491,-4.723477 2.63883,-9.263373 0.13971,-11.762499 -2.17504,-2.175041 -3.3132,-1.771242 -6.80548,2.414471 -1.30936,1.569343 -4.84221,4.032679 -7.85077,5.474067 -3.00857,1.441397 -6.2733,3.049153 -7.25497,3.572781 -0.98166,0.52363 -5.39112,1.99756 -9.79881,3.27539 -10.00272,2.8999 -14.21928,5.02785 -17.36092,8.76149 -4.71346,5.60162 -2.10463,14.96917 4.16886,14.96917 3.88018,0 6.11173,-2.68579 6.84892,-8.243 0.70804,-5.33747 2.07272,-6.3285 7.35096,-5.3383 8.82497,1.65558 11.12293,9.97618 6.23512,22.57664 -2.05365,5.29419 -5.54843,8.28269 -17.41871,14.89538 -10.46592,5.83035 -16.21465,11.34138 -20.36971,19.5275 -3.47244,6.84124 -3.56988,7.29952 -3.17042,14.91022 0.3526,6.71796 0.85358,8.62362 3.46859,13.19418 3.22397,5.63492 3.53684,9.34599 0.83141,9.86158 -2.38939,0.45535 -5.97062,-3.92227 -9.77583,-11.94974 -7.54591,-15.91893 -7.98141,-17.55861 -8.51737,-32.06844 -0.50421,-13.65023 -0.7032,-12.53436 6.42656,-36.037 1.92145,-6.33389 19.7076,-24.20547 30.09604,-30.240601 12.22288,-7.100845 15.41596,-9.327773 23.06481,-16.085951 11.25022,-9.940202 13.97768,-14.506642 22.11965,-37.033718 1.68963,-4.674835 2.43611,-5.672569 4.41915,-5.906608 1.89027,-0.22309 2.89786,0.491701 4.84881,3.439774 1.35448,2.04676 4.00578,4.898353 5.89177,6.336872 3.36229,2.564538 3.41889,2.714337 2.90543,7.689326 -0.45804,4.437958 -0.17436,5.692785 2.26362,10.012632 5.70658,10.111507 21.24351,23.277257 39.02557,33.069644 7.75845,4.27251 17.66156,13.14806 22.28361,19.97145 2.65353,3.91733 4.78963,8.74213 9.09514,20.54316 4.1213,11.29612 4.01135,31.09227 -0.24527,44.16052 -3.8325,11.76617 -11.63893,25.53791 -14.72821,25.98281 -3.42738,0.49359 -3.11686,-3.10347 0.72585,-8.40818 1.58827,-2.19254 3.35584,-6.56572 4.33851,-10.73397 1.44039,-6.10985 1.50778,-7.91159 0.51288,-13.71339 -0.62996,-3.67366 -2.00227,-8.06585 -3.04957,-9.76042 -2.98316,-4.82685 -12.30892,-12.03936 -21.26501,-16.4463 -8.83953,-4.34957 -15.44329,-10.08542 -17.62605,-15.3095 -1.74937,-4.18681 -1.73757,-14.78685 0.0203,-18.18608 1.45788,-2.81922 5.83421,-5.15154 8.64193,-4.60562 1.36956,0.26629 1.71478,1.21657 1.71478,4.72024 0,5.34143 0.98412,6.43946 6.30942,7.0397 3.41805,0.38526 4.5457,0.0846 6.55105,-1.74659 1.33227,-1.21659 2.66095,-3.28377 2.95262,-4.59374 0.61838,-2.77726 -1.96695,-7.57661 -5.2348,-9.71779 -2.46795,-1.61706 -21.82593,-8.05669 -24.21898,-8.05669 -2.59335,0 -14.21297,-6.217894 -18.53832,-9.920235 -3.46033,-2.961914 -4.3383,-3.312744 -6.18482,-2.471412 -1.53892,0.701177 -2.32739,2.077299 -2.76761,4.830281 -0.73651,4.60585 0.94561,8.434196 5.03397,11.456846 1.52779,1.12956 3.22421,3.40633 3.76981,5.05951 0.54559,1.65319 1.71439,3.63971 2.59733,4.41451 3.29699,2.8932 5.36579,2.74961 10.53869,-0.73149 2.73362,-1.83959 5.53332,-3.12864 6.22156,-2.86453 2.04477,0.78465 1.43185,4.01304 -1.38656,7.30327 -5.10647,5.96134 -6.59319,8.83493 -7.67507,14.83461 -0.60075,3.33156 -1.73713,6.77533 -2.52531,7.65282 -1.29422,1.44089 -1.22626,1.92996 0.70165,5.04939 1.17406,1.89968 3.14375,5.47895 4.37709,7.95393 1.23334,2.47499 3.93667,5.89808 6.0074,7.60687 13.69224,11.29896 19.31333,21.57945 18.4354,33.71672 -0.42532,5.88017 -1.59243,7.95413 -3.964,7.04407 -1.09867,-0.42159 -1.47059,-1.93096 -1.4745,-5.98387 -0.0113,-11.65132 -4.5341,-19.45696 -13.7838,-23.78832 -12.34447,-5.78056 -20.89847,-1.6163 -20.89847,10.17379 0,5.53864 0.56293,6.27172 9.08898,11.83626 10.94304,7.14202 14.34852,12.371 14.34852,22.03165 0,8.55751 -3.20652,14.88789 -12.55379,24.78396 -2.89984,3.07009 -3.38371,4.21332 -3.38371,7.99453 0,4.89091 1.98876,8.57934 4.62587,8.57934 2.44148,0 3.62745,-1.82112 3.97615,-6.10564 0.27552,-3.38535 0.70235,-3.93578 4.52298,-5.8328 10.25897,-5.09379 24.71711,-11.49906 25.95596,-11.49906 0.74494,0 4.59631,1.50796 8.55861,3.35102 9.28208,4.31755 23.67311,7.21849 32.04793,6.4602 27.14422,-2.45772 42.87871,-14.08023 48.35413,-35.71749 1.56914,-6.20075 1.58138,-6.85684 0.16805,-9.01385 C 675.82475,196.76888 670.02388,195 662.9754,195 c -4.3032,0 -4.66831,-0.18292 -5.14617,-2.57813 -0.33076,-1.65787 0.30992,-4.39815 1.7949,-7.67704 1.39098,-3.07134 2.8724,-9.1366 3.72546,-15.25274 1.29867,-9.31106 1.28525,-10.67753 -0.16171,-16.46358 -2.94499,-11.77632 -11.46239,-25.49469 -19.39827,-31.24342 -2.05575,-1.48917 -4.94647,-4.35123 -6.42383,-6.36013 -2.92876,-3.9825 -5.48325,-5.4223 -16.9963,-9.57973 -4.18681,-1.51189 -9.92133,-4.05197 -12.74338,-5.64463 -2.82205,-1.592662 -6.81883,-3.491259 -8.88173,-4.219087 -2.0629,-0.727838 -5.89383,-2.734509 -8.51318,-4.45927 -2.61934,-1.724762 -6.44994,-3.67369 -8.51244,-4.330955 -2.0625,-0.657263 -5.26651,-1.956829 -7.12001,-2.887924 -3.66882,-1.843006 -9.28624,-7.688727 -9.28624,-9.66366 0,-0.677904 1.25795,-3.089006 2.79544,-5.358003 3.05602,-4.510017 3.64027,-9.606063 1.84319,-16.077032 -1.4085,-5.071782 -4.29015,-7.679006 -11.20113,-10.134441 -7.34976,-2.611332 -11.15569,-4.943979 -17.34375,-10.62996 -3.8592,-3.546072 -5.32087,-4.307885 -8.2718,-4.311219 -3.19701,-0.0037 -4.41259,0.787949 -11.25,7.325721 -6.86166,6.560966 -8.21436,7.4393 -12.89665,8.374032 -12.69707,2.534733 -20.5503,8.873504 -20.5503,16.58727 0,3.32311 0.57307,4.264151 5.244,8.611192 5.80812,5.405378 5.99455,6.714161 1.54208,10.826097 -5.41636,5.002131 -22.3655,14.505226 -48.22394,27.038369 -6.54863,3.174 -12.87676,6.7304 -14.0625,7.90309 -1.18574,1.1727 -3.63245,2.87372 -5.43714,3.78005 -5.08871,2.55559 -11.08836,10.06792 -15.98104,20.01035 -5.27675,10.7229 -6.19337,13.94958 -6.97111,24.53978 -0.48913,6.66032 -0.25062,9.04628 1.45256,14.53125 1.12077,3.60937 2.09246,8.25 2.1593,10.3125 0.11787,3.63699 0.0227,3.75798 -3.15971,4.01478 -8.97742,0.72442 -13.09276,2.1618 -15.59969,5.44856 -2.33649,3.06328 -2.43318,3.61504 -1.8198,10.3839 0.37196,4.10481 1.44191,8.7053 2.5128,10.80442 2.31609,4.53991 9.1499,13.54757 12.70748,16.74978 4.6947,4.22573 17.39418,9.40995 25.40346,10.37028 3.99547,0.47907 7.82232,1.0694 8.50411,1.31186 2.64421,0.9403 19.45328,-1.57303 23.12032,-3.457 7.55493,-3.88141 16.11524,-6.4079 21.691,-6.40188 4.66678,0.005 6.78514,0.65168 13.82061,4.21875 4.56997,2.31704 8.87027,4.2128 9.55621,4.2128 2.24454,0 3.99759,3.67538 3.50495,7.3483 -0.76773,5.72385 1.4771,7.49026 10.97355,8.63486 18.10733,2.18245 39.97659,18.71247 44.82521,33.88144 3.08779,9.66017 4.38343,22.65026 3.28653,32.95078 -0.79555,7.47071 -1.42889,9.66366 -3.90563,13.52333 -1.62586,2.53368 -2.95611,5.26921 -2.95611,6.07895 0,1.79142 5.2877,5.21012 8.22407,5.31717 1.25996,0.0459 3.80308,-1.46422 6.2246,-3.6963 z M 432.1875,240.00651 c -6.00037,-1.5661 -15.18058,-5.54795 -18.62782,-8.07969 -8.78235,-6.44999 -15.24531,-16.95374 -15.88791,-25.82138 -0.51242,-7.07109 0.8173,-7.83219 12.26419,-7.01967 13.52911,0.96033 14.41936,-0.63997 7.72029,-13.87785 -4.0406,-7.98454 -4.21875,-8.68197 -4.21875,-16.51572 0,-10.49813 2.1947,-21.13011 6.13225,-29.70701 2.42198,-5.27561 4.64775,-8.25284 9.94876,-13.30758 6.86264,-6.54381 15.75342,-11.87854 18.2195,-10.93221 2.19137,0.84091 1.51008,4.95873 -1.92166,11.61477 -1.78538,3.46284 -4.14278,8.82733 -5.23865,11.92108 -3.19494,9.01963 -3.60975,9.86692 -5.11278,10.44369 -3.88763,1.49183 -5.7012,-4.95084 -2.10555,-7.47992 l 2.10938,-1.48365 -2.34375,-1.89109 c -1.28906,-1.0401 -2.84013,-1.90046 -3.44682,-1.91193 -1.28912,-0.0244 -6.86568,9.35264 -6.86568,11.54466 0,0.82143 0.84375,1.94508 1.875,2.49699 2.33394,1.24909 2.459,3.75 0.1875,3.75 -4.11271,0 -5.2869,4.70921 -1.59375,6.39192 3.11487,1.41923 2.95828,3.35531 -0.46875,5.79558 -2.26014,1.60937 -2.80968,2.68057 -2.79815,5.45446 0.0174,4.19613 0.69208,5.32741 3.73565,6.26429 3.18981,0.9819 3.73035,2.12032 2.5773,5.42796 -0.7872,2.25815 -0.6464,3.43634 0.71213,5.95897 1.65342,3.0702 3.27307,4.13608 3.27307,2.15397 0,-0.54468 1.27601,-2.15581 2.83559,-3.58025 l 2.83558,-2.58991 -1.53326,-3.66963 c -0.8433,-2.01829 -2.33025,-4.68282 -3.30434,-5.92117 -2.04569,-2.60067 -2.24999,-5.54686 -0.63103,-9.10008 1.03288,-2.26693 0.9007,-2.69295 -1.40625,-4.53245 -4.55424,-3.63143 -2.77054,-7.11616 3.64248,-7.11616 l 3.93876,0 0.62117,11.01562 c 0.69122,12.25789 2.05849,18.20283 6.41451,27.89063 5.81992,12.9435 9.59485,17.10807 20.77747,22.92215 8.34984,4.34125 8.89962,4.90258 8.91997,9.10738 0.0119,2.46601 -0.73762,3.51552 -4.43878,6.21518 -9.0469,6.59891 -27.29182,10.64885 -36.79687,8.16805 z m 13.61343,-9.95517 2.44864,-2.44864 2.22957,2.09456 c 1.63185,1.53304 2.87179,1.93337 4.62521,1.49329 1.31761,-0.3307 2.39565,-0.98274 2.39565,-1.44898 0,-0.46624 1.04292,-2.08715 2.31761,-3.60203 1.27468,-1.51488 2.04812,-3.02381 1.71875,-3.35318 -1.23969,-1.23968 -2.83375,-0.52017 -3.86578,1.74489 -1.32961,2.91817 -4.85808,3.23467 -4.85808,0.43577 0,-1.04939 0.67852,-2.94354 1.50781,-4.20921 1.33627,-2.0394 1.3459,-2.36334 0.0847,-2.84734 -1.90264,-0.7301 -7.21747,2.092 -7.21747,3.83235 0,0.84932 -0.90356,1.38218 -2.34375,1.38218 -2.83198,0 -2.99797,-1.52652 -0.45976,-4.22832 1.09583,-1.16645 1.97828,-3.54495 2.10938,-5.68542 0.21521,-3.51399 0.0985,-3.68001 -2.58712,-3.68001 -2.2029,0 -2.87743,0.4572 -3.11208,2.10937 -0.18559,1.30678 -0.95002,2.10938 -2.00907,2.10938 -1.78296,0 -2.8476,-1.7528 -2.8476,-4.6882 0,-0.94729 -0.73828,-3.01408 -1.64063,-4.59287 -1.91516,-3.35085 -0.90121,-5.99086 2.4943,-6.49444 3.74912,-0.55602 1.92822,-3.3813 -2.56709,-3.98305 l -4.03257,-0.53982 0.34955,8.50857 c 0.23918,5.82168 1.0041,10.21967 2.4223,13.9271 1.62359,4.2444 1.85061,5.83357 1.04769,7.33384 -0.92677,1.73169 -1.22058,1.78604 -3.06491,0.56707 -2.38449,-1.57599 -5.19706,-8.27533 -5.27016,-12.55315 -0.0609,-3.56885 -1.41529,-4.1732 -8.81028,-3.93155 -3.02476,0.0988 -5.82317,-0.31795 -6.62986,-0.98744 -1.37992,-1.14524 -5.23584,-0.5889 -5.23584,0.75543 0,0.38233 0.60673,1.51406 1.34828,2.51495 1.28692,1.73697 1.40477,1.74366 2.58916,0.1469 1.12652,-1.51875 1.41265,-1.5403 3.10484,-0.23376 1.85007,1.42843 1.84824,1.45253 -0.24541,3.22944 -2.61858,2.22246 -2.63656,3.07128 -0.11288,5.3288 1.09807,0.98227 2.77058,3.5789 3.71668,5.77031 1.82304,4.22258 4.09015,5.19053 5.05285,2.15732 0.787,-2.47959 4.08003,-3.41618 5.83629,-1.65992 1.07986,1.07985 1.16121,1.82676 0.36168,3.3207 -1.21607,2.27224 -0.85829,2.55773 4.26792,3.40553 2.43331,0.40243 4.12026,0.2675 4.50846,-0.36061 0.92732,-1.50045 4.91723,-1.21029 5.53616,0.4026 0.77511,2.01993 2.04914,1.74536 4.8369,-1.04241 z m -29.46877,-12.92109 c -1.75529,-2.115 -0.90136,-5.674 1.44161,-6.00827 2.56307,-0.36566 5.21991,2.29118 4.85425,4.85425 -0.34901,2.44633 -4.57975,3.22181 -6.29586,1.15402 z m 201.01159,19.14541 c -1.03125,-0.45726 -2.88986,-0.86103 -4.13026,-0.89726 -1.24039,-0.0363 -3.5607,-1.05988 -5.15625,-2.27475 -1.59554,-1.21488 -3.87438,-2.5166 -5.06406,-2.89273 -2.61347,-0.82625 -4.30582,-4.66113 -3.0507,-6.91292 0.48414,-0.86859 5.12482,-5.73431 10.31264,-10.81272 5.1878,-5.0784 9.43238,-9.69386 9.43238,-10.25656 0,-0.56271 1.86395,-4.84515 4.14211,-9.51654 C 628.53265,183.06853 630,176.06736 630,163.27125 c 0,-12.46583 -4.14692,-27.82015 -10.36881,-38.3914 -5.46253,-9.28107 -6.40294,-12.11856 -4.28567,-12.93103 1.69041,-0.64868 5.71961,1.64807 15.12323,8.62066 12.31254,9.12948 17.86064,16.52393 23.03412,30.69959 3.77072,10.33202 3.78299,17.87277 0.0415,25.53432 -1.48807,3.04719 -2.95202,6.61826 -3.25322,7.93569 -0.30121,1.31744 -1.8182,4.27057 -3.3711,6.5625 -5.30151,7.82454 -3.72709,10.3239 6.03808,9.58536 9.63548,-0.72873 12.70025,0.047 15.305,3.87351 1.93707,2.84572 2.05929,3.596 1.14121,7.00548 -1.50457,5.58756 -9.76924,14.08327 -17.81134,18.30927 -8.75469,4.60046 -29.4201,8.3417 -34.24928,6.20046 z m 14.74298,-7.73521 c 4.85526,0.19237 5.51991,-0.0192 6.95856,-2.21483 1.43698,-2.19311 1.98499,-2.36837 5.67496,-1.81503 3.92734,0.58893 4.1229,0.50198 5.08627,-2.26155 0.8347,-2.39441 1.49938,-2.87404 3.98284,-2.87404 3.41028,0 7.14814,-2.25606 7.14814,-4.31439 0,-1.05843 -0.73605,-1.26727 -3.04688,-0.86447 -1.67578,0.2921 -3.65569,0.1305 -4.39981,-0.35913 -1.97412,-1.29895 0.18484,-5.71201 2.79442,-5.71201 1.07274,0 1.68937,-0.4224 1.3703,-0.93866 -0.36134,-0.58467 -3.52394,-0.71238 -8.38598,-0.33866 l -7.80585,0.6 -1.6981,-2.70821 c -0.93397,-1.48953 -1.79852,-2.85672 -1.92123,-3.03822 -0.12272,-0.1815 -1.18802,0.34584 -2.36734,1.17187 -1.17932,0.82604 -3.10504,1.50188 -4.27938,1.50188 -2.46701,0 -3.03795,3.20296 -0.7289,4.08903 0.77344,0.29679 1.40625,1.60755 1.40625,2.9128 0,2.94613 -3.18779,3.3004 -4.676,0.51966 -0.54558,-1.01944 -1.87527,-2.32625 -2.95486,-2.90402 -1.5744,-0.8426 -2.26595,-0.73182 -3.49413,0.55967 -1.14021,1.19897 -1.23199,1.72113 -0.35938,2.04464 1.70711,0.63291 1.46928,5.84794 -0.29762,6.52596 -0.80822,0.31015 -2.51036,0.007 -3.78252,-0.67398 -2.05205,-1.09824 -2.53982,-1.0111 -4.32326,0.77235 l -2.01024,2.01024 2.5115,0.95487 c 2.72977,1.03785 3.35846,3.54762 1.10526,4.41225 -0.77344,0.2968 -1.40625,0.87124 -1.40625,1.27653 0,1.43404 2.68758,1.73783 6.10238,0.6898 3.00955,-0.92365 3.57946,-0.84592 4.38777,0.59844 0.63682,1.13793 1.41832,1.42482 2.48503,0.91225 0.85584,-0.41124 3.97166,-0.65201 6.92405,-0.53504 z m 0.20654,-6.43463 c -0.88597,-1.43353 1.03678,-3.09257 2.79996,-2.41598 0.8081,0.3101 1.46927,1.20986 1.46927,1.99949 0,1.63845 -3.31419,1.96177 -4.26923,0.41649 z m -10.51592,-1.0316 c 0.57944,-1.73833 2.59765,-2.02665 2.59765,-0.37109 0,0.8164 -0.66797,1.48437 -1.48437,1.48437 -0.81641,0 -1.31739,-0.50098 -1.11328,-1.11328 z m 23.88006,-5.10431 c -1.47307,-1.47308 -0.53682,-3.15741 1.75508,-3.15741 1.78691,0 2.3311,0.42264 2.09861,1.62986 -0.32866,1.7066 -2.72483,2.65641 -3.85369,1.52755 z m -8.05965,-2.14053 c -1.7726,-1.12121 -0.53677,-4.05141 1.54003,-3.65145 0.9039,0.17407 1.64346,1.11932 1.64346,2.10053 0,2.08007 -1.32578,2.72595 -3.18349,1.55092 z m -8.14603,-13.90751 c 0.38595,-0.38671 2.24923,-1.13734 4.14063,-1.66805 2.9585,-0.83014 3.50437,-1.41948 3.90764,-4.21875 0.36778,-2.55297 1.11785,-3.53959 3.4823,-4.58056 1.74212,-0.76699 3.63148,-2.62897 4.47821,-4.4133 0.80556,-1.69761 1.87525,-3.34032 2.37708,-3.65047 1.37901,-0.85228 1.09361,-3.82327 -0.49384,-5.14074 -2.01066,-1.66869 -1.75197,-4.77263 0.44565,-5.34732 3.19383,-0.8352 3.74192,-9.64025 1.03164,-16.57329 -0.95709,-2.44828 -1.20796,-2.57163 -2.67301,-1.31437 -0.88922,0.76311 -2.35506,1.64931 -3.25741,1.96931 -0.90234,0.32 -1.64062,1.35444 -1.64062,2.29875 0,2.1665 -1.76197,3.96692 -3.88217,3.96692 -0.89769,0 -1.90773,0.44586 -2.24451,0.99079 -1.04918,1.69759 0.41587,5.41812 2.37885,6.04115 2.4639,0.78201 2.39021,3.74936 -0.13707,5.51953 -5.00949,3.50879 -6.80279,9.53221 -4.02054,13.50441 2.258,3.22375 1.40098,6.11138 -2.02014,6.80667 -4.12472,0.83831 -5.07442,1.62884 -5.07442,4.22403 0,2.20561 1.7285,3.06145 3.20173,1.58529 z M 639.375,180.9375 c 0,-0.51563 0.42187,-0.9375 0.9375,-0.9375 0.51562,0 0.9375,0.42187 0.9375,0.9375 0,0.51562 -0.42188,0.9375 -0.9375,0.9375 -0.51563,0 -0.9375,-0.42188 -0.9375,-0.9375 z m 5.13785,-18.77978 c -0.36409,-0.5891 -0.22084,-1.51223 0.31832,-2.05139 1.2599,-1.2599 4.19731,-0.16096 3.68473,1.37854 -0.52182,1.5672 -3.17472,2.01311 -4.00305,0.67285 z m -4.72789,-10.79331 c 0.85971,-1.31208 2.59572,-2.77821 3.85782,-3.25805 1.26209,-0.47985 2.29106,-1.62118 2.28659,-2.53628 -0.007,-1.46484 -5.93492,-8.69508 -7.12872,-8.69508 -0.25094,0 -1.70093,0.64365 -3.22221,1.43032 -3.38304,1.74945 -3.53566,3.54301 -0.42219,4.9616 2.70965,1.2346 2.86282,1.93842 0.96731,4.44452 -0.75703,1.00089 -1.38984,2.76903 -1.40625,3.92919 -0.0414,2.93517 3.07476,2.76531 5.06765,-0.27622 z M 442.2747,347.8125 c 0.16511,-0.89633 -1.25527,-2.02591 -3.91708,-3.11513 -4.95772,-2.02871 -6.13424,-5.09971 -3.95338,-10.31924 1.81758,-4.35011 5.66216,-6.25313 12.63285,-6.25313 4.02665,0 6.16238,-0.48156 7.71628,-1.73982 1.95321,-1.58162 2.04105,-1.99945 0.96598,-4.5949 -0.65044,-1.57029 -2.20338,-3.81404 -3.45098,-4.9861 C 451.02077,315.63212 450,313.82287 450,312.78364 c 0,-1.03924 -0.49677,-4.29466 -1.10394,-7.23427 -0.96164,-4.65579 -0.88231,-5.93196 0.61539,-9.90019 2.19889,-5.82604 8.91312,-12.78822 11.92151,-12.36175 2.09795,0.29741 2.1555,0.56535 1.979,9.21257 -0.46455,22.76007 -0.36558,29.26528 0.58394,38.37742 1.10869,10.63974 0.90077,11.26796 -3.73859,11.29573 -1.31942,0.007 -3.19172,-0.56534 -4.16067,-1.27386 -1.70648,-1.2478 -1.6974,-1.32838 0.28956,-2.56927 2.76895,-1.72922 2.59295,-3.64252 -0.33506,-3.64252 -2.31216,0 -6.98864,3.67972 -6.98864,5.49905 0,0.49322 1.298,1.98896 2.88443,3.32387 3.31729,2.79131 7.84286,3.19073 10.35838,0.91422 1.37386,-1.24333 2.20511,-1.32692 4.66573,-0.46915 2.26816,0.79069 3.32684,0.76753 4.36681,-0.0956 1.94997,-1.61834 0.81974,-9.95567 -2.28853,-16.88184 -2.34719,-5.23022 -2.41778,-5.8632 -1.62617,-14.58219 0.45514,-5.01305 0.83441,-15.6537 0.84282,-23.64589 l 0.0153,-14.53125 L 465,267.73456 c -2.52997,-4.99956 -4.24718,-7.09985 -7.5,-9.17306 -6.46825,-4.12261 -10.48572,-5.05135 -15.16731,-3.50628 -8.39092,2.76925 -12.10071,7.45762 -10.08861,12.74984 0.72562,1.90853 1.41351,2.26236 3.9272,2.02001 2.85851,-0.2756 3.07653,-0.55431 3.51622,-4.4949 0.39301,-3.52223 0.87727,-4.34395 2.99685,-5.08526 3.7942,-1.32699 9.58947,0.74039 12.1481,4.33365 3.77986,5.30833 1.7595,13.60941 -6.08947,25.01979 -5.65624,8.22273 -6.91438,17.54645 -3.40989,25.26965 3.25133,7.16529 2.87279,7.77404 -5.64559,9.07864 -7.25566,1.11121 -11.80284,4.45583 -12.72247,9.35784 -0.71266,3.79887 2.63881,11.9395 6.00587,14.58803 2.8321,2.22773 8.88829,2.17564 9.3038,-0.08 z m 78.43958,-9.91072 c 0.81028,-0.81026 1.47322,-2.41338 1.47322,-3.5625 0,-4.26446 -3.99786,-5.56506 -9.03346,-2.93881 -1.47691,0.77026 -3.63451,1.40308 -4.79467,1.40625 -2.6239,0.007 -2.70361,1.82688 -0.19785,4.5165 2.37608,2.55042 10.21941,2.91193 12.55276,0.57856 z m 38.62233,-0.5866 c 0.69638,-0.69638 1.54854,-3.32644 1.89369,-5.84458 l 0.62754,-4.57844 -2.02267,2.02267 c -2.30181,2.30181 -3.35715,2.44037 -7.52383,0.98787 -2.41014,-0.84019 -3.40623,-0.74796 -5.29614,0.49036 -3.66112,2.39885 -2.53202,6.40087 2.3598,8.36416 2.19688,0.8817 8.55881,-0.0393 9.96161,-1.44204 z M 398.84522,336.5857 c 2.0762,-0.78936 2.40478,-1.47537 2.40478,-5.02063 0,-3.82961 -0.20532,-4.16486 -3.04688,-4.97492 -4.80078,-1.36857 -4.67002,-4.9421 0.3558,-9.72305 5.0202,-4.77561 7.93475,-5.64122 9.83921,-2.92223 0.76763,1.09595 1.74631,1.99263 2.17483,1.99263 0.42853,0 2.95944,-1.49978 5.62426,-3.33285 4.72618,-3.25104 5.00191,-3.31741 11.23248,-2.70346 4.44406,0.43791 6.59184,0.29853 7.05948,-0.45811 1.6211,-2.623 4.04692,-15.50862 3.29294,-17.49171 -1.06843,-2.81019 -1.91358,-3.21185 -7.45587,-3.54338 -3.86762,-0.23136 -5.33753,-0.84439 -7.83963,-3.26951 -2.06495,-2.00143 -5.19289,-3.58915 -9.49438,-4.81926 -3.52817,-1.00897 -7.32431,-2.68887 -8.43586,-3.7331 -2.12142,-1.99298 -3.83068,-2.56791 -2.83245,-0.95273 1.11766,1.80842 -0.54952,4.67911 -2.71743,4.67911 -6.17716,0 -10.73456,-13.27194 -6.13636,-17.87014 3.02464,-3.02464 5.28773,-1.95262 6.94826,3.2914 0.46406,1.46553 1.03451,0.84361 2.88014,-3.13997 3.28074,-7.08114 3.07433,-8.2509 -1.6818,-9.5316 -5.92983,-1.59673 -8.18849,-0.39329 -11.48549,6.11963 -2.28323,4.51031 -3.42998,5.75613 -6.09375,6.62017 -4.59283,1.48975 -6.2668,5.12736 -4.83062,10.49709 1.57582,5.8918 1.38229,7.126 -1.73188,11.04467 -3.34855,4.2136 -3.6053,7.89182 -0.95809,13.72575 1.01993,2.24771 1.86368,5.92191 1.875,8.16487 0.0212,4.19907 0.4688,4.80065 9.16121,12.31309 1.64823,1.4245 2.10938,2.8194 2.10938,6.38062 0,4.58342 1.86321,7.53469 5.625,8.90983 0.77344,0.28274 1.48426,0.54737 1.57959,0.58807 0.0953,0.0407 1.2555,-0.33741 2.57813,-0.84028 z m -13.46473,-22.91003 c -0.84702,-1.0206 -0.79017,-2.06373 0.24788,-4.54814 1.90745,-4.56516 6.46544,-7.50742 12.39139,-7.99885 4.47672,-0.37124 4.97093,-0.21624 5.59666,1.75526 0.73328,2.31035 0.311,2.77458 -8.24983,9.06918 -4.40752,3.24076 -8.18529,3.8924 -9.9861,1.72255 z M 384.0625,296.5625 c -0.83417,-0.83417 -0.77197,-5.20564 0.0924,-6.50028 1.83655,-2.75048 10.3647,-4.27203 14.67459,-2.61817 1.53249,0.58807 1.97617,3.82784 0.76545,5.58925 -1.82801,2.65947 -13.70388,5.35783 -15.53251,3.5292 z m -34.375,-17.69202 c 17.32762,-0.0696 19.56341,-0.30889 21.5625,-2.30798 3.2449,-3.2449 2.53732,-8.99706 -1.9633,-15.96041 -6.40981,-9.91722 -6.93594,-21.26251 -1.44867,-31.23868 1.0907,-1.98294 4.6249,-5.68146 7.85378,-8.21894 6.71397,-5.27631 7.25191,-7.19828 3.58401,-12.8052 -3.32352,-5.08046 -3.70749,-7.82542 -1.95524,-13.97759 1.35992,-4.77465 2.45274,-6.30678 8.75725,-12.27773 8.15216,-7.72085 8.07193,-8.62345 -0.76533,-8.60973 -7.74288,0.012 -11.4692,1.19561 -18.64247,5.92139 -11.11437,7.32219 -13.28232,10.34774 -18.48079,25.79146 -2.02213,6.00741 -2.35195,8.43636 -2.05382,15.12543 0.39884,8.94877 2.3821,13.93799 10.99359,27.65625 4.97289,7.9219 5.62545,9.84375 3.34244,9.84375 -4.4159,0 -14.1815,-13.85079 -16.85526,-23.90625 -2.06293,-7.75824 -3.38849,-18.26468 -2.76254,-21.89601 2.47378,-14.35125 10.27786,-30.10118 18.24306,-36.81753 2.49613,-2.10478 4.95448,-5.02037 5.463,-6.47911 0.50852,-1.45873 3.08049,-5.84717 5.7155,-9.75208 5.44381,-8.06738 7.15284,-14.43627 6.24426,-23.26994 -0.74203,-7.21436 -3.18247,-11.67284 -9.18464,-16.77948 -6.59374,-5.60997 -8.0981,-6.32465 -14.78403,-7.02346 -5.17997,-0.54142 -5.98472,-0.36706 -9.47748,2.05343 -4.28381,2.96868 -7.93932,8.59692 -8.86107,13.64303 -1.25357,6.86269 2.49058,13.9774 7.35569,13.9774 1.42528,0 1.63668,-0.41632 1.07115,-2.10937 -1.53123,-4.58421 -1.59353,-11.97023 -0.11992,-14.21925 2.38084,-3.6336 9.36736,-6.48437 14.47945,-5.90817 3.61948,0.40797 4.89489,1.11219 7.42378,4.09907 4.19856,4.9589 5.23703,8.65043 4.66286,16.57531 -0.87297,12.04896 -2.58815,16.02617 -10.24407,23.75426 -3.74357,3.77886 -7.48016,6.87065 -8.30354,6.87065 -0.82337,0 -2.25163,-0.8338 -3.17389,-1.85289 -2.4169,-2.67064 -3.30126,-1.54043 -3.30126,4.21898 0,4.04497 -0.36476,5.26315 -1.80709,6.03506 -0.99389,0.53192 -2.43768,0.72514 -3.2084,0.42939 -1.44263,-0.55359 -4.35951,-6.81824 -4.35951,-9.36303 0,-1.92955 -4.54095,-6.03001 -6.67778,-6.03001 -2.30145,0 -4.47438,3.52808 -6.5144,10.57703 -0.92786,3.20608 -2.63022,8.36047 -3.78303,11.45422 -1.80288,4.83831 -2.10285,7.52617 -2.14491,19.21875 -0.0567,15.77693 1.03393,20.46205 7.10789,30.53282 4.28026,7.09676 11.89866,15.33013 16.23098,17.54115 1.54687,0.78946 3.85307,2.54911 5.12488,3.91034 1.85013,1.98021 2.10473,2.7945 1.2736,4.07345 -1.57175,2.41862 -4.07468,1.6566 -11.66654,-3.55189 -4.55876,-3.1276 -7.34972,-5.76998 -8.18066,-7.74514 -0.69367,-1.64888 -2.48664,-4.39364 -3.98437,-6.09947 -1.49774,-1.70583 -2.72316,-3.66274 -2.72316,-4.3487 0,-0.68596 -0.89816,-2.38903 -1.99592,-3.7846 -1.09775,-1.39556 -3.07901,-5.77668 -4.4028,-9.7358 -2.3316,-6.97323 -2.42546,-8.18084 -3.00065,-38.60466 -0.54991,-29.08674 -0.9614,-34.51177 -2.80889,-37.03125 -0.3781,-0.51563 -2.24714,-4.52344 -4.15341,-8.90625 -3.59232,-8.25927 -6.67301,-12.34729 -11.01365,-14.61495 C 288.49177,125.44145 285,125.19711 285,126.50147 c 0,2.25335 2.27139,6.45476 5.10137,9.43603 4.64207,4.89024 5.87904,12.44483 5.01371,30.62035 -0.14197,2.98206 0.53473,5.06063 2.87125,8.81931 5.78971,9.31369 4.73745,13.37502 -2.79317,10.78052 -5.11062,-1.76076 -6.74643,-0.56801 -3.68713,2.68845 2.74652,2.92354 1.98445,5.21637 -1.73378,5.21637 -3.88902,0 -4.23551,1.20118 -1.50649,5.22262 2.93822,4.32971 3.32417,10.71488 0.64766,10.71488 -0.94137,0 -2.73434,-1.11187 -3.98438,-2.47081 -3.08079,-3.34922 -9.29726,-7.84169 -10.85095,-7.84169 -0.69623,0 -1.26559,0.97167 -1.26559,2.15984 0,2.50682 4.83068,7.52723 9.47247,9.8445 1.99788,0.99738 3.18378,2.27442 3.18378,3.42847 0,1.73451 -0.71697,2.25477 -7.2038,5.22729 -2.83537,1.29927 -4.97755,5.52148 -4.10907,8.09891 0.71721,2.1285 5.27259,7.18308 8.18754,9.08478 1.2033,0.78503 4.29039,1.89647 6.86019,2.46987 6.35346,1.41765 7.98389,3.09038 7.98389,8.19101 0,2.90209 0.3527,4.03543 1.17187,3.76565 0.64454,-0.21227 1.3062,-1.2984 1.47038,-2.41363 0.41805,-2.83984 3.70214,-4.85669 7.90827,-4.85669 2.55031,0 3.73998,0.46888 4.16271,1.64062 0.32554,0.90235 1.36698,2.76045 2.31433,4.1291 3.54826,5.1263 2.11065,6.71535 -5.97167,6.60075 -4.72773,-0.067 -5.40556,0.12419 -4.46358,1.2592 1.33649,1.61038 6.81009,3.2329 10.93048,3.2401 3.37723,0.006 4.17565,0.9007 4.92673,5.5214 0.62641,3.8538 2.86298,5.15072 2.86298,1.66017 0,-3.21873 2.34655,-5.30134 5.97322,-5.30134 5.94387,0 7.33476,4.8608 2.02564,7.07909 -1.78813,0.74712 -4.1436,1.35841 -5.23437,1.35841 -1.16776,0 -1.82429,0.48186 -1.59667,1.17187 0.23298,0.70632 2.49878,1.28358 5.70324,1.45305 4.84824,0.25638 5.44615,0.53153 6.78618,3.12285 1.12538,2.17626 1.83885,2.65925 3.04675,2.06259 0.8675,-0.42851 5.58507,-0.79521 10.48351,-0.81488 z m -16.08327,-33.47986 c -2.23664,-1.81812 -5.47923,-7.7312 -5.47923,-9.99175 0,-1.11983 -0.86978,-3.74098 -1.93284,-5.82475 -2.01547,-3.95064 -5.00099,-19.64112 -4.23856,-22.27584 0.24145,-0.83436 0.69692,-3.83734 1.01216,-6.67328 1.64903,-14.83484 6.72006,-19.44934 10.73321,-9.7669 1.84185,4.44379 2.04645,5.96386 1.35648,10.07812 -1.57001,9.36194 -0.65848,24.95649 1.93312,33.07197 3.06848,9.60882 3.12053,12.55431 0.22186,12.55431 -1.19051,0 -2.8133,-0.52734 -3.6062,-1.17187 z m -33.13548,-5.96354 c -2.0625,-0.78294 -6.81383,-2.22791 -10.55851,-3.21105 -9.44602,-2.47997 -10.53524,-3.18743 -10.53524,-6.84276 0,-1.68342 0.50625,-3.56702 1.125,-4.18577 1.66403,-1.66403 5.81017,-1.36584 8.35794,0.6011 1.22969,0.94935 4.30345,2.2371 6.83055,2.86165 8.7107,2.1528 11.7061,4.95359 10.72266,10.02604 -0.43777,2.2579 -1.58905,2.40335 -5.9424,0.75079 z m 53.17371,-2.00521 c -0.89969,-2.19092 -0.86489,-25.33246 0.0429,-28.57655 0.39418,-1.40851 2.0199,-4.04523 3.61274,-5.85938 3.5494,-4.04253 8.25937,-4.58145 10.61744,-1.21484 2.78775,3.98007 1.87535,9.67386 -2.79544,17.44493 -2.34016,3.89345 -4.64984,8.84156 -5.13261,10.99578 -1.39574,6.22819 -2.64393,8.85069 -4.21249,8.85069 -0.80238,0 -1.76205,-0.73828 -2.13257,-1.64063 z m 200.95641,-5.02898 c 2.96766,-4.70108 5.08863,-10.50449 5.08863,-13.92352 0,-3.68117 -5.30332,-13.73764 -8.41192,-15.95115 -3.73853,-2.66207 -9.76194,-2.56399 -11.69117,0.19038 -1.57969,2.25533 -2.06669,12.43043 -0.63722,13.31388 0.45221,0.27949 1.32438,2.51922 1.93817,4.97721 0.61379,2.45798 2.19985,6.89484 3.52458,9.85968 2.11732,4.73869 2.73185,5.39063 5.08133,5.39063 2.11099,0 3.18445,-0.81065 5.1076,-3.85711 z M 537.1875,216.93095 c 0,-0.20264 -0.63281,-0.36845 -1.40625,-0.36845 -0.77344,0 -1.40625,0.40864 -1.40625,0.90808 0,0.49944 0.63281,0.66524 1.40625,0.36845 0.77344,-0.29681 1.40625,-0.70543 1.40625,-0.90808 z m -1.6464,-19.92582 c 0.44868,-1.73153 0.64819,-3.31585 0.44333,-3.52069 -0.20485,-0.20486 -1.70546,-0.10586 -3.33469,0.21999 -3.11761,0.62352 -3.64637,2.01552 -1.96149,5.16376 1.45387,2.71658 3.91054,1.77343 4.85285,-1.86306 z m 297.78847,-3.17954 c 13.43814,-6.62863 21.62107,-17.02701 26.3734,-33.51375 2.42548,-8.41442 2.39619,-7.57051 0.50257,-14.48059 -1.92452,-7.02282 -8.35465,-18.77286 -11.44793,-20.91926 -1.29258,-0.8969 -3.75192,-2.79956 -5.4652,-4.22812 -5.51382,-4.59751 -18.60062,-10.10585 -25.84992,-10.88044 -12.21404,-1.30506 -12.25675,-5.96537 -0.12741,-13.902824 8.76044,-5.732841 11.03923,-6.453404 30.65367,-9.692818 8.28591,-1.368455 32.65098,-0.765035 55.67112,1.378743 17.19704,1.601493 17.25576,1.600507 27.65625,-0.464642 11.64447,-2.312151 18.21897,-5.333484 21.78804,-10.012736 2.22253,-2.91391 2.61487,-3.062391 6.74718,-2.553559 5.71913,0.704229 9.23775,-1.4519 13.66585,-8.374187 1.8194,-2.844077 5.01112,-6.29819 7.09284,-7.675808 3.98681,-2.638304 4.77056,-4.489295 2.30203,-5.436547 -2.71181,-1.040612 -5.26237,-0.592155 -10.82175,1.902727 -5.7569,2.583571 -6.78815,4.27703 -3.63281,5.965721 2.93897,1.572906 2.27091,4.403067 -1.64063,6.950248 -1.93359,1.259144 -4.35937,2.425286 -5.39062,2.591427 -2.91609,0.469799 -3.01481,-4.22984 -0.17747,-8.452422 1.26863,-1.888152 3.02981,-5.808929 3.91369,-8.712838 1.96931,-6.470122 6.40275,-11.290519 11.9144,-12.954181 2.22029,-0.67018 8.88966,-1.498486 14.82094,-1.840679 C 1002.9001,37.883142 1005,37.360224 1005,35.251404 1005,33.338916 1000.6593,31.875 994.98844,31.875 c -3.69441,0 -6.18038,-0.583719 -8.44397,-1.982691 -2.9775,-1.840218 -3.52435,-1.890896 -7.61063,-0.705243 -2.42147,0.702596 -5.79375,1.137655 -7.494,0.966798 -2.54072,-0.25532 -3.837,0.376665 -7.2779,3.5484 -4.04072,3.724577 -4.34832,3.837591 -8.82882,3.243234 -4.31915,-0.572952 -4.71656,-0.452697 -5.71003,1.727691 -0.90937,1.995949 -0.56184,3.577386 2.34375,10.663284 4.54482,11.083539 5.01413,14.834394 2.55235,20.399613 -1.59282,3.600963 -2.72822,4.745489 -6.25519,6.305637 -6.45478,2.855239 -9.95991,3.107205 -17.50765,1.25851 -9.25415,-2.266659 -17.60434,-7.741379 -24.36104,-15.972075 -10.63322,-12.952882 -14.17213,-15.407511 -22.15947,-15.370069 -8.84981,0.04149 -13.91015,3.966452 -22.14215,17.174155 -3.55659,5.706297 -4.93647,7.180256 -6.72198,7.180256 -1.82726,0 -2.24671,-0.482477 -2.24671,-2.584314 0,-1.421373 0.43739,-4.058092 0.97197,-5.859375 1.28795,-4.339726 1.25826,-14.872615 -0.0517,-18.329366 -3.56613,-9.410653 -15.50492,-13.302793 -25.92428,-8.451524 -10.47661,4.877925 -15.29446,13.132797 -15.32288,26.254111 -0.0177,8.16606 -0.66713,9.381588 -4.55604,8.52744 -3.25252,-0.714374 -3.67062,0.246973 -2.00858,4.618462 0.75721,1.991613 0.39824,3.419845 -2.01823,8.029781 -3.04024,5.799922 -3.6158,6.11781 -9.09328,5.022316 -3.91196,-0.782394 -5.58441,-6.058174 -3.50109,-11.044269 1.41761,-3.39285 7.09355,-7.120762 10.84171,-7.120762 2.41814,0 2.4719,-1.509571 0.099,-2.779515 -3.15916,-1.690731 -7.26239,-1.101226 -10.33587,1.484936 -6.22593,5.238775 -7.06264,10.731692 -3.34392,21.952498 1.27563,3.849081 2.33032,7.992653 2.34375,9.207944 0.0134,1.215277 0.73566,5.156427 1.60497,8.758097 1.40075,5.80345 2.0572,6.93866 5.76992,9.97789 4.0972,3.35398 9.17305,8.38624 15.45879,15.32606 5.82112,6.42686 11.66508,5.6534 14.83023,-1.96281 2.46371,-5.92834 6.54439,-7.46871 10.173,-3.8401 2.96662,2.96662 2.3438,6.13206 -2.17531,11.05579 -8.76319,9.5478 -10.69205,14.76021 -7.13529,19.28189 4.13729,5.25972 9.3106,4.8975 9.3106,-0.65191 0,-3.87415 1.43969,-5.31077 5.32214,-5.31077 6.83057,0 7.82874,8.7352 1.39556,12.21286 -1.89004,1.02172 -4.63102,2.80508 -6.09106,3.96304 -2.22907,1.76787 -3.65296,2.07265 -8.88277,1.90134 -6.74515,-0.22093 -9.8935,1.05424 -10.96898,4.44278 -0.85915,2.70695 1.10134,4.78133 3.86363,4.08804 5.72015,-1.43567 10.1755,2.55771 7.46645,6.69225 -2.77763,4.2392 -11.55393,4.21761 -17.83356,-0.0439 -4.6065,-3.12603 -7.4189,-2.98577 -9.89641,0.49357 -1.20242,1.68864 -2.83991,2.8125 -4.0979,2.8125 -3.17741,0 -9.41427,-5.07876 -11.83082,-9.634 -2.50329,-4.71876 -2.15899,-10.37578 0.94182,-15.47466 2.13097,-3.5041 5.61184,-4.00527 10.06553,-1.4492 3.61329,2.07373 5.85887,1.13332 5.85887,-2.4536 0,-3.93829 -3.35235,-5.94389 -9.93516,-5.94389 -4.5936,0 -5.53935,0.35351 -8.50944,3.18079 -4.37739,4.16691 -5.93243,8.01039 -5.92124,14.63507 0.0283,16.78331 16.21221,28.24178 37.95959,26.87608 6.35969,-0.39938 8.69517,-1.06052 15.36082,-4.3485 z M 903.64619,71.015625 c -2.81547,-2.191406 -6.71392,-5.753812 -8.66321,-7.916455 -3.91051,-4.338521 -8.58531,-6.367629 -12.62569,-5.480213 -1.44992,0.318456 -4.65846,2.250092 -7.13008,4.292527 -7.2437,5.985847 -9.51917,4.28302 -4.33856,-3.246732 3.44624,-5.008931 10.73815,-8.529486 15.72781,-7.593421 5.67269,1.064203 7.56418,2.481478 11.14444,8.350437 3.57221,5.855729 8.907,11.423689 11.84848,12.366324 C 911.5185,72.399897 911.84089,75 910.00762,75 c -0.68331,0 -3.54596,-1.792969 -6.36143,-3.984375 z m -14.07792,-0.256386 c -1.73911,-1.28375 -4.76135,-3.034914 -6.71609,-3.891477 -4.3882,-1.922898 -4.36264,-4.391665 0.0499,-4.818066 5.26466,-0.508746 14.20732,8.337204 10.65058,10.535391 -0.4523,0.279535 -2.24527,-0.542097 -3.98438,-1.825848 z M 843.4375,61.25 c -0.34375,-0.34375 -0.625,-1.419964 -0.625,-2.391587 0,-1.150316 -1.20745,-2.271096 -3.46126,-3.212796 -3.13629,-1.310426 -3.7569,-1.305229 -6.61008,0.05536 -2.40415,1.146457 -3.59943,1.260404 -5.05423,0.481822 -1.49267,-0.798852 -2.28187,-0.67905 -3.64334,0.553067 -3.74571,3.389819 -4.89546,-1.112547 -1.94383,-7.611914 2.4129,-5.313087 7.65674,-10.31485 11.58711,-11.052191 4.769,-0.894672 10.07218,1.190722 12.60698,4.957504 4.24912,6.314294 1.67263,22.74972 -2.85635,18.220735 z M 840,46.27016 c 1.222,-0.398647 1.21044,-0.568711 -0.0882,-1.297994 -1.75876,-0.987667 -8.34928,0.582654 -8.34928,1.989381 0,0.867371 4.8868,0.466935 8.4375,-0.691387 z M 271.1666,194.83709 c 2.91726,-1.50707 6.05252,-4.37113 9.11103,-8.32297 8.89165,-11.48867 8.74157,-22.70721 -0.41127,-30.74351 -2.77752,-2.4387 -4.15775,-2.95811 -7.86056,-2.95811 -5.72538,0 -8.86129,2.83776 -8.40098,7.60222 0.25171,2.60527 0.79913,3.26172 3.31879,3.97974 2.30999,0.65827 3.56602,0.50037 5.35765,-0.67356 5.52223,-3.6183 8.97034,-1.02731 8.96523,6.73669 -0.005,7.65775 -2.22321,10.93897 -8.11472,12.00361 -3.88958,0.70287 -4.73134,1.25936 -5.89094,3.8945 -1.88959,4.29406 -5.35369,5.05559 -7.98516,1.7554 -1.0903,-1.36735 -2.3005,-2.4861 -2.68936,-2.4861 -0.38885,0 -3.414,1.26562 -6.72256,2.8125 -7.46681,3.49102 -10.45415,3.61863 -11.87183,0.50715 -1.71033,-3.75375 0.8536,-6.69342 6.38129,-7.31647 7.34094,-0.82743 10.06861,-6.04158 5.53315,-10.57704 -2.47213,-2.47214 -4.49358,-2.74603 -10.31109,-1.39707 -2.98762,0.69276 -5.07743,0.42226 -10.78125,-1.39551 -3.8914,-1.24016 -8.22776,-2.48678 -9.63634,-2.77028 -2.56425,-0.51609 -5.40768,-4.46787 -5.40768,-7.51558 0,-2.33119 4.33977,-6.0977 7.02577,-6.0977 1.58977,0 3.68798,1.29005 6.09923,3.75 3.07005,3.13206 4.29105,3.75 7.40972,3.75 2.7958,0 4.10063,-0.5235 5.19337,-2.0836 2.25877,-3.22485 1.77699,-5.23703 -2.3848,-9.96004 -2.11432,-2.39944 -4.49427,-5.62824 -5.2888,-7.17511 -0.79453,-1.54688 -2.2287,-3.81862 -3.18705,-5.04831 -2.70868,-3.47563 -1.92486,-10.26549 1.44478,-12.51546 1.64978,-1.10158 5.87356,-0.82326 6.89581,0.4544 0.51568,0.64453 1.12617,3.55879 1.35664,6.47613 0.23045,2.91735 1.16659,6.44522 2.0803,7.83971 1.49175,2.2767 2.04671,2.4738 5.43807,1.93151 5.53402,-0.88493 7.04119,-1.98669 9.58505,-7.00675 3.38033,-6.67078 6.62992,-10.08479 11.29482,-11.86633 5.70771,-2.17979 7.22607,-4.91065 8.04101,-14.46215 0.5409,-6.339725 1.38886,-9.489641 4.105,-15.248845 3.19912,-6.783293 3.37983,-7.642584 2.75983,-13.122727 -0.54081,-4.780081 -1.26451,-6.583187 -3.91483,-9.753827 -4.4125,-5.278756 -6.7879,-6.205937 -13.9377,-5.440257 -6.6357,0.710622 -6.51529,0.823085 -8.58481,-8.018344 -1.43059,-6.111733 -5.39739,-12.666699 -9.87394,-16.316271 C 241.32928,34.815454 233.36073,31.875 228.54973,31.875 c -8.00694,0 -17.61223,8.418614 -17.61223,15.436348 0,1.322454 0.70529,4.941242 1.5673,8.04175 1.17693,4.233168 1.30002,5.904582 0.49419,6.710415 -1.62337,1.62337 -4.24014,-0.01709 -13.64825,-8.55613 -10.38114,-9.422189 -12.4513,-10.114027 -22.10371,-7.386972 l -7.09078,2.003329 -12.69683,12.829382 c -12.0491,12.174896 -12.9578,12.88567 -17.8125,13.93273 -13.20905,2.848926 -18.70942,4.294376 -18.70942,4.916677 0,0.372384 1.58203,1.18499 3.51563,1.805791 1.93359,0.620802 4.14843,1.654006 4.92187,2.296008 5.2669,4.371866 22.8706,5.907555 39.84375,3.475839 4.64062,-0.664856 11.8125,-1.58259 15.9375,-2.03941 4.125,-0.456819 11.71875,-1.32239 16.875,-1.923489 12.32314,-1.436592 20.39273,-0.649587 32.24495,3.144763 9.3238,2.984906 14.33909,5.953582 20.75703,12.286619 2.09811,2.07035 2.41383,5.447 0.64646,6.91378 -0.65742,0.54562 -3.50508,1.28646 -6.32813,1.64633 -10.58869,1.34978 -17.11972,3.14747 -20.82295,5.7316 -2.08151,1.45249 -4.88713,3.2217 -6.23471,3.93158 -9.5755,5.04419 -16.19946,19.37229 -16.30638,35.27181 -0.0653,9.72227 1.45466,14.74376 6.12352,20.22933 1.67487,1.96784 4.04173,4.88418 5.25972,6.48075 2.65722,3.48319 14.527,12.41222 19.52242,14.68572 7.33987,3.34049 11.01909,4.00611 20.45057,3.69979 7.73258,-0.25115 10.15422,-0.70704 13.82285,-2.60225 z M 270.23437,83.447775 c -1.9861,-1.210952 -3.04687,-2.593013 -3.04687,-3.969733 0,-1.841995 -0.31879,-1.663967 -2.49348,1.392471 -2.90076,4.076912 -4.7312,4.459111 -5.55905,1.160737 -2.04949,-8.165874 6.76078,-16.701792 13.59233,-13.169057 3.64973,1.887348 4.7727,4.071016 4.7727,9.280749 0,7.593786 -1.59794,8.760487 -7.26562,5.304833 z M 144.73125,80.201144 c -0.79842,-2.080652 0.25375,-3.133833 6.05799,-6.063803 3.76976,-1.902966 6.57554,-4.287542 9.54108,-8.108759 6.38556,-8.228031 9.02012,-10.341633 15.57134,-12.492247 8.76956,-2.878846 11.93937,-2.61297 17.91511,1.502677 3.9202,2.699948 5.69799,4.783054 7.95875,9.325633 2.43147,4.885589 2.712,6.088907 1.70295,7.304738 -1.61819,1.949798 -2.46975,1.861122 -9.47928,-0.987103 -5.27786,-2.144589 -6.79927,-2.365102 -12.46555,-1.80676 l -6.45398,0.635958 0.4228,-2.880739 C 175.735,65.046333 175.53379,63.75 175.05532,63.75 c -0.47847,0 -3.87891,2.785839 -7.55654,6.190755 -9.82856,9.099743 -21.23956,14.242212 -22.76753,10.260389 z m 75.93874,-21.645628 c -1.93117,-2.947339 -3.18784,-9.407498 -2.50369,-12.870749 1.17523,-5.949208 11.03554,-9.938461 16.9743,-6.86741 1.58816,0.82127 4.17619,2.864745 5.75118,4.541055 2.86879,3.053357 6.40019,10.599615 5.41929,11.580517 -0.28717,0.28717 -2.77385,0.646647 -5.52597,0.798838 -2.95471,0.163395 -7.1154,1.280982 -10.1601,2.729064 -6.44248,3.064093 -7.99638,3.077936 -9.95501,0.08869 z M 538.10791,172.87555 c 0.76404,-1.49562 1.45995,-4.4068 1.54646,-6.4693 0.27275,-6.50202 1.49055,-13.61129 2.43118,-14.19263 0.49815,-0.30787 1.93265,-0.0102 3.18776,0.66153 1.92996,1.03288 2.50521,0.99811 3.72871,-0.22539 1.30393,-1.30391 1.10952,-1.64562 -1.96986,-3.46251 -3.98992,-2.35411 -4.06914,-4.65388 -0.22382,-6.49689 3.35787,-1.60939 3.25895,-3.51561 -0.24584,-4.73739 -3.29968,-1.15027 -3.57855,-2.9066 -0.85313,-5.37308 3.0975,-2.8032 1.77983,-7.99421 -3.52438,-13.88429 -2.37212,-2.63414 -4.98458,-5.84404 -5.80545,-7.1331 -0.82086,-1.28906 -1.90996,-2.63603 -2.42019,-2.99325 -1.50091,-1.0508 -3.33435,1.13785 -3.33435,3.98033 0,2.01625 0.4938,2.70264 2.10937,2.93209 1.38452,0.19663 2.10938,0.9439 2.10938,2.17458 0,1.56107 -0.62787,1.87644 -3.75,1.88362 -2.0625,0.005 -5.33203,0.56479 -7.26563,1.24457 -2.86209,1.00621 -3.52116,1.70171 -3.54543,3.74139 -0.0164,1.37798 -0.64922,3.32434 -1.40625,4.32523 -0.91617,1.21127 -1.37644,4.09127 -1.37644,8.61247 l 0,6.79267 3.04687,0.29378 c 2.5351,0.24443 3.04688,0.6824 3.04688,2.60748 0,1.89393 -0.67159,2.50214 -3.70154,3.35227 -4.60944,1.29327 -6.23636,5.24645 -3.44251,8.36473 0.93962,1.04873 1.96897,2.64507 2.28742,3.54741 0.62323,1.76586 3.90609,2.24114 4.85663,0.70313 0.88804,-1.43687 4.34396,-1.11479 6.21591,0.5793 0.92183,0.83424 3.06187,1.80023 4.75566,2.14665 5.28096,1.08007 4.28653,6.64905 -1.18729,6.64905 -3.26496,0 -4.16889,1.26271 -2.26606,3.16553 1.97182,1.97184 5.22641,0.67391 6.99594,-2.78998 z m -6.04871,-11.58033 c -1.19419,-1.93224 0.49579,-4.85714 2.6307,-4.553 2.86339,0.40791 2.8701,4.85665 0.008,5.26452 -1.1115,0.15839 -2.29889,-0.16179 -2.63864,-0.71152 z m -8.79207,-2.75092 c -1.85349,-1.17332 -0.92292,-4.32555 1.27696,-4.32555 1.34418,0 1.86216,0.63021 1.86216,2.26563 0,2.50041 -1.19967,3.28764 -3.13912,2.05992 z M 530.625,150 c 0,-1.375 0.625,-1.875 2.34375,-1.875 1.65312,0 2.34375,-0.50969 2.34375,-1.7297 0,-2.71503 3.51369,-5.44065 5.44551,-4.22416 3.02542,1.90517 2.40831,3.91132 -1.52931,4.9716 -2.39578,0.64513 -3.87356,1.65546 -4.18972,2.86446 -0.66638,2.54825 -4.41398,2.54213 -4.41398,-0.007 z m -1.875,-7.32391 c 0,-2.48837 3.61678,-9.55882 5.20057,-10.16657 0.74906,-0.28745 1.36193,-1.4478 1.36193,-2.57857 0,-2.65364 1.69079,-4.30595 4.40625,-4.30595 3.19034,0 3.00396,4.34146 -0.25004,5.82408 -1.701,0.77502 -2.26936,1.61999 -1.93912,2.88282 0.61764,2.36185 -0.23154,4.4181 -1.82457,4.4181 -0.70503,0 -1.93635,1.26562 -2.73627,2.8125 -1.60188,3.0977 -4.21875,3.78846 -4.21875,1.11359 z m -6.19073,-7.12202 c -0.68489,-1.78476 0.27868,-3.36657 2.05075,-3.36657 0.77476,0 1.61793,-1.21784 1.93265,-2.79147 0.76171,-3.80854 2.48326,-5.12857 4.95991,-3.8031 1.0642,0.56955 1.93492,1.40807 1.93492,1.86338 0,2.09255 -1.29135,3.79369 -2.87982,3.79369 -0.95794,0 -2.1881,0.83408 -2.73368,1.85351 -1.48201,2.76916 -4.58774,4.21478 -5.26473,2.45056 z m -247.58513,37.82608 c 0.31644,-1.21008 -0.0167,-2.13265 -0.89118,-2.46823 -1.83355,-0.7036 -3.54526,1.069 -2.83062,2.93131 0.80682,2.10254 3.12635,1.81393 3.7218,-0.46308 z m 277.87961,-10.82988 c 0.32392,-0.98858 -6.20624,-2.63529 -7.06097,-1.78056 -0.21967,0.21968 -0.13926,1.07737 0.17871,1.90598 0.66233,1.72602 6.30936,1.6231 6.88226,-0.12542 z m -8.16625,-4.11277 c 0,-0.51563 -0.65771,-0.9375 -1.46158,-0.9375 -0.80387,0 -1.20084,0.42187 -0.88217,0.9375 0.31867,0.51562 0.97639,0.9375 1.46158,0.9375 0.4852,0 0.88217,-0.42188 0.88217,-0.9375 z m 326.03615,-11.16126 c 1.4129,-1.91105 3.15357,-2.91632 5.83383,-3.36915 5.01443,-0.84718 8.77538,-4.12956 10.20712,-8.9083 0.97362,-3.24966 1.80922,-4.14176 5.26822,-5.62447 5.58398,-2.39356 7.19388,-5.6533 6.42502,-13.00938 -0.54367,-5.20152 -0.39206,-5.86764 1.97595,-8.68187 2.06607,-2.45539 2.46336,-3.67326 2.04308,-6.26311 -0.28695,-1.768257 -1.19855,-3.962897 -2.02578,-4.876979 -1.93711,-2.140481 -8.31256,-3.730481 -14.95815,-3.730481 -4.16942,0 -5.34402,0.335018 -5.75215,1.640625 -0.28207,0.902344 -1.16446,2.848219 -1.96084,4.324153 -1.24098,2.299882 -1.27213,3.216412 -0.21785,6.410902 1.50946,4.57369 0.78883,5.94768 -4.84868,9.24477 -2.26466,1.32448 -4.1954,3.01342 -4.29056,3.75322 -0.93289,7.253 -1.34723,8.1952 -4.10661,9.33817 -3.92512,1.62583 -5.02216,3.99495 -3.34923,7.23282 1.22412,2.36921 2.25725,5.81191 3.80058,12.66471 0.76837,3.41176 3.37304,3.34808 5.95605,-0.14563 z m 3.64873,-23.03779 c -1.78679,-1.78678 -1.13621,-3.94902 1.43359,-4.76464 2.41469,-0.76639 3.81286,0.64871 3.41402,3.45536 -0.37992,2.67362 -2.82333,3.33356 -4.84761,1.30928 z m 8.6874,-16.97328 c -1.64436,-1.98134 -0.004,-4.60892 2.87772,-4.60892 2.88147,0 4.52208,2.62758 2.87772,4.60892 -0.67776,0.81665 -1.97274,1.48483 -2.87772,1.48483 -0.90498,0 -2.19996,-0.66818 -2.87772,-1.48483 z m -685.64517,37.3442 c 0.26442,-0.90234 1.72773,-4.18855 3.25183,-7.30268 3.29968,-6.74217 3.35834,-7.41403 0.80357,-9.20346 -1.38855,-0.97258 -2.14718,-2.82613 -2.57813,-6.29914 -0.56307,-4.53778 -0.85452,-5.00307 -3.74202,-5.97389 -4.2956,-1.44425 -5.10009,-3.25846 -3.72492,-8.40007 1.03862,-3.88326 0.96845,-4.43967 -0.80555,-6.3888 -1.06878,-1.174293 -2.34613,-3.400705 -2.83855,-4.94758 -0.79029,-2.482568 -1.37418,-2.847295 -4.97737,-3.109112 -7.12834,-0.517963 -15.92847,4.118181 -15.92847,8.391532 0,1.06048 0.89504,3.18511 1.98899,4.72141 2.0451,2.87209 2.04575,2.9075 0.25333,14.04495 -0.64948,4.03563 1.9084,7.35747 5.6654,7.35747 1.2555,0 3.36487,0.41143 4.6875,0.9143 1.93964,0.73744 2.40478,1.53954 2.40478,4.14681 0,3.63913 3.4785,8.49669 6.83805,9.54899 1.13751,0.35631 3.07432,1.43354 4.30401,2.39386 2.78449,2.17454 3.7842,2.19851 4.39755,0.10541 z m -9.42572,-18.62941 c -3.02069,-3.02068 0.0161,-6.76236 4.5624,-5.62133 3.26082,0.81842 4.05348,2.97516 1.94836,5.30129 -2.02451,2.23705 -4.47338,2.35742 -6.51076,0.32004 z m -10.26567,-16.82818 c -1.85366,-1.85365 -1.85683,-3.1869 -0.0138,-5.81818 1.60782,-2.29547 5.86336,-2.82333 7.7281,-0.9586 1.78263,1.78263 1.36684,6.17961 -0.68837,7.27952 -2.6015,1.39228 -5.32584,1.19734 -7.02592,-0.50274 z m 100.40933,27.52863 c 1.14652,-4.48984 2.71753,-9.13046 3.49114,-10.3125 0.77359,-1.18204 1.69898,-3.98128 2.05641,-6.22054 0.8321,-5.21305 3.95146,-8.89049 8.76449,-10.33251 2.09311,-0.62711 5.59858,-2.84969 7.78991,-4.93907 2.19134,-2.08939 4.76163,-4.21758 5.71177,-4.72932 2.05909,-1.109036 8.51986,0.79805 16.71009,4.93246 5.6531,2.85368 11.56761,3.54935 14.92046,1.75496 1.0057,-0.53824 3.12762,-3.28042 4.71536,-6.09375 1.96962,-3.489984 3.47418,-5.11514 4.73554,-5.11514 1.01681,0 4.17927,1.898437 7.0277,4.21875 6.69021,5.44981 10.44344,5.68434 16.53658,1.03334 5.86246,-4.474921 7.94367,-5.446471 10.1602,-4.742971 1.64594,0.522403 1.84323,1.118934 1.33487,4.036311 -1.74604,10.02031 -1.73998,10.1536 0.53398,11.74633 1.19413,0.83641 3.35615,1.52074 4.80447,1.52074 3.33195,0 4.0834,1.89587 2.64902,6.68339 -1.06417,3.55191 -0.98066,3.88607 1.7477,6.9935 2.37247,2.7021 2.86526,4.06393 2.86526,7.91824 0,2.56018 0.36498,4.65487 0.81107,4.65487 1.70973,0 5.87988,-4.07648 7.58076,-7.41048 2.29011,-4.48898 4.73317,-13.93616 4.73317,-18.30289 0,-1.8763 -1.05469,-5.49279 -2.34375,-8.03663 -2.45376,-4.84225 -2.89937,-7.982625 -1.45638,-10.263487 0.74376,-1.175626 2.78032,-1.093566 15.22001,0.613218 16.03347,2.199863 21.52576,1.925822 32.28836,-1.611065 8.89234,-2.922272 10.36927,-3.782792 16.52523,-9.628303 7.65477,-7.268738 9.44192,-11.733992 9.90456,-24.74682 0.33935,-9.544919 0.17551,-10.877792 -1.83584,-14.935278 -2.42626,-4.894482 -7.28697,-10.09588 -11.45317,-12.255933 -3.8224,-1.981795 -11.85951,-1.841185 -16.19505,0.283332 -5.42576,2.658738 -7.84147,6.934939 -7.84147,13.880627 0,6.667508 1.51725,9.468196 6.18616,11.41899 4.94574,2.066461 10.01661,1.676476 12.8957,-0.991766 2.6226,-2.430547 3.23216,-5.949495 1.35564,-7.826015 -1.43433,-1.434326 -7.74025,-1.459228 -10.01353,-0.03954 C 448.77565,51.255164 446.25,50.2335 446.25,47.8942 c 0,-1.018679 0.9832,-2.995189 2.1849,-4.392244 1.77182,-2.059862 3.19007,-2.623456 7.50149,-2.980993 5.18935,-0.430341 5.39552,-0.354718 8.61503,3.160182 6.2151,6.7853 6.44308,14.251657 0.62029,20.314823 -4.23393,4.408718 -7.18487,5.208012 -16.34821,4.428101 -6.40177,-0.544866 -7.9106,-1.056984 -12.63078,-4.287052 -2.9483,-2.017547 -6.67615,-4.813343 -8.2841,-6.212879 -2.67861,-2.331409 -12.00573,-6.206192 -18.55421,-7.708013 -4.55149,-1.04383 -10.8777,0.431733 -14.14315,3.29883 -4.6859,4.114285 -5.72685,8.976063 -3.73384,17.439115 1.81465,7.705587 1.25611,9.38747 -2.78097,8.374227 -1.48395,-0.372446 -3.29364,-2.158783 -4.81231,-4.750194 -2.72582,-4.651256 -7.90896,-8.094265 -14.67598,-9.748807 -4.66262,-1.140015 -5.4502,-1.007323 -11.96349,2.015584 l -4.16158,1.931447 -5.85787,-2.044414 c -3.22183,-1.124426 -6.95991,-2.044413 -8.30686,-2.044413 -2.85229,0 -7.94678,2.441737 -9.59167,4.597195 -3.23025,4.232918 0.98446,9.639811 6.04789,7.758611 11.19798,-4.160357 14.31022,-4.989734 18.724,-4.989734 2.75791,0 7.14211,0.706719 9.74267,1.570486 C 369.06727,75.359863 375,80.598308 375,83.47694 c 0,1.693127 -0.46227,1.804905 -5.39063,1.303459 -2.96484,-0.301665 -8.30912,-1.393697 -11.87617,-2.426741 -10.21963,-2.959675 -15.8438,-1.265944 -19.7739,5.954959 -3.88852,7.144483 -11.40203,10.836911 -15.96615,7.84638 -3.21519,-2.106685 -3.15859,-6.903225 0.11774,-9.975953 l 2.42339,-2.272794 1.76917,2.18089 C 328.07588,88.272059 330,88.149848 330,85.852352 c 0,-0.673471 -0.87437,-2.336073 -1.94304,-3.694672 -1.43658,-1.826313 -2.79665,-2.47018 -5.21789,-2.47018 -7.00438,0 -8.5897,-2.990687 -4.5003,-8.489738 2.74545,-3.691813 2.58376,-6.830128 -0.58086,-11.274421 -2.26519,-3.181167 -5.51438,-4.271035 -8.29559,-2.782573 -2.49133,1.333322 -2.51082,3.947245 -0.046,6.17783 2.72856,2.46932 2.04441,5.510005 -1.32642,5.895229 -4.20581,0.480644 -6.73533,-0.521616 -7.92913,-3.141711 -1.65769,-3.638248 -1.31872,-8.042655 0.89895,-11.680537 2.36781,-3.884149 3.55511,-4.887899 9.72158,-8.218672 3.89795,-2.105447 5.88335,-2.535895 11.78721,-2.555537 6.19786,-0.02061 7.59459,0.30387 10.99553,2.554505 2.14269,1.417969 4.90789,2.578125 6.14487,2.578125 2.51378,0 4.83928,2.205762 3.91027,3.708933 -0.84634,1.369402 -4.40982,1.219555 -6.61365,-0.27811 C 335.45982,51.130443 325.93732,48.75 323.28114,48.75 c -1.43162,0 -0.80496,2.500343 1.04663,4.176007 1.27522,1.154058 3.86556,1.772245 8.56853,2.044884 6.18942,0.358811 7.12732,0.698544 11.46655,4.153493 3.97388,3.164051 5.18361,3.667222 7.60334,3.162505 3.72419,-0.776808 4.85852,-1.935345 6.36972,-6.505639 l 1.23996,-3.75 4.83791,0.295455 c 4.40328,0.268912 5.07057,0.03434 7.4276,-2.61103 1.59078,-1.785377 4.16959,-3.30431 6.68561,-3.937849 4.95891,-1.248671 7.22016,-4.164667 6.33935,-8.174947 -0.96167,-4.37851 -2.7338,-5.344806 -7.36014,-4.013303 -17.00161,4.893223 -20.1108,4.849815 -25.87889,-0.3613 -5.05494,-4.566846 -8.62234,-4.425737 -13.18981,0.521724 -1.90409,2.0625 -4.06366,3.75 -4.79905,3.75 -0.73539,0 -2.1281,-1.46885 -3.09491,-3.264111 -2.82613,-5.247803 -5.61943,-6.588988 -13.4958,-6.479925 -7.79643,0.107956 -10.57966,1.55472 -13.39267,6.961707 -2.65763,5.108312 -3.40342,5.593907 -8.61391,5.60865 -2.6867,0.0076 -5.92693,0.541091 -7.20052,1.185533 -4.75319,2.405139 -9.3051,12.133938 -8.06221,17.23134 0.40771,1.672129 4.29076,6.166652 10.43545,12.078758 7.60287,7.31509 9.78612,9.971147 9.78612,11.905413 0,2.902377 -3.74928,6.133379 -10.45043,9.005825 -4.68449,2.008015 -5.63061,3.709241 -6.85675,12.32931 -0.33005,2.32031 -1.25031,5.21225 -2.04503,6.42652 -2.42871,3.71086 -6.85422,17.59359 -7.85268,24.63361 -0.51936,3.66192 -1.17468,7.03081 -1.45628,7.48645 -0.88007,1.424 0.62397,2.82349 2.71111,2.52266 1.66775,-0.24038 2.34262,-1.63743 4.08261,-8.45133 z M 421.71397,90.468591 c -11.42369,-2.497538 -19.53066,-10.556115 -19.52296,-19.40641 0.01,-11.256817 10.43946,-15.031323 20.16908,-7.299198 1.9375,1.539734 3.89498,2.799517 4.34995,2.799517 0.45497,0 2.49979,1.055851 4.54406,2.346335 5.28208,3.334433 15.55727,7.028142 19.56064,7.031634 1.87221,0.0016 6.48493,-0.910199 10.25049,-2.026293 6.08462,-1.803452 7.0029,-1.872838 8.25219,-0.623538 3.69629,3.696287 -6.16093,11.925197 -19.43053,16.22082 -8.21868,2.660541 -18.74572,3.018181 -28.17292,0.957133 z m 9.9281,-4.787643 c 1.63545,-0.627581 2.01235,-3.680596 0.56481,-4.575223 -1.50401,-0.929522 -4.70688,1.317559 -4.70688,3.30226 0,1.865624 1.44242,2.308917 4.14207,1.272963 z m -7.84615,-5.166802 c 1.37425,-3.317739 0.56001,-5.370559 -2.59282,-6.536866 -1.40566,-0.519988 -2.60212,-0.203181 -4.0829,1.081095 -2.21775,1.923442 -4.6202,2.409346 -4.6202,0.934453 0,-0.485194 0.42188,-1.142904 0.9375,-1.461578 0.51563,-0.318674 0.9375,-1.215343 0.9375,-1.992599 0,-2.450187 -5.09755,-1.233379 -5.45757,1.302744 -0.326,2.296515 3.62766,7.294268 6.86382,8.676439 4.07009,1.738345 6.74128,1.070541 8.01467,-2.003688 z m 372.96491,63.136684 c 1.58875,-2.9686 -1.80002,-15.35056 -8.17886,-29.88417 -1.61199,-3.67277 -3.38992,-8.81815 -3.95095,-11.43418 -1.2745,-5.942724 -3.62853,-8.988792 -8.67014,-11.218935 -2.54234,-1.124595 -4.55156,-2.883745 -5.67379,-4.967606 -1.58887,-2.950334 -1.61811,-3.512262 -0.34174,-6.567027 0.84923,-2.032489 3.51606,-4.95972 6.81038,-7.475389 6.54872,-5.000835 8.72837,-7.80392 9.83249,-12.64483 1.16321,-5.100024 -0.27133,-9.670274 -4.24395,-13.52069 -3.10127,-3.005872 -3.81873,-3.247574 -11.03374,-3.717087 l -7.71678,-0.502166 -2.42807,-4.980151 c -3.54391,-7.268829 -5.47595,-8.844975 -11.44938,-9.340338 -7.20498,-0.597494 -11.33626,1.544081 -14.31381,7.420011 -1.79087,3.534097 -2.81156,4.556728 -4.54807,4.556728 -1.80905,0 -2.48111,-0.761937 -3.49984,-3.967822 -0.9375,-2.950297 -1.93834,-4.204544 -3.90277,-4.890919 -3.31859,-1.159519 -7.12256,0.755632 -8.91753,4.489621 -1.07342,2.232989 -1.03239,2.921499 0.29478,4.947028 3.71233,5.665725 17.24117,8.14682 25.32719,4.644827 4.87365,-2.110739 13.69482,-2.038881 18.16683,0.147989 5.10205,2.494969 9.48942,9.610589 9.48942,15.390338 0,5.038946 -1.66164,9.931643 -4.04393,11.907283 -0.84074,0.697235 -3.60068,1.245993 -6.16668,1.226116 -3.96708,-0.03073 -4.87379,0.313465 -6.21399,2.358859 -1.38137,2.108231 -2.00939,2.32444 -5.24772,1.80661 -5.73848,-0.917621 -11.1282,2.597391 -12.43837,8.111945 -0.67718,2.850211 -2.0088,3.249975 -4.25299,1.276778 -0.81404,-0.71574 -3.7176,-2.459317 -6.45235,-3.874614 -4.36115,-2.256989 -5.57104,-2.486557 -9.84375,-1.867785 -9.02472,1.306956 -10.31244,1.152387 -11.61152,-1.393754 -1.02493,-2.008805 -0.96784,-2.513963 0.3994,-3.534801 4.58613,-3.42418 17.09823,-3.764055 27.4344,-0.74522 5.99147,1.749899 9.03296,0.812979 10.011,-3.083853 0.45148,-1.798845 0.007,-2.830368 -1.94479,-4.508849 -3.79735,-3.266347 -6.41583,-3.526434 -13.58377,-1.349241 -8.03067,2.439242 -9.62369,2.446462 -17.29069,0.07837 -4.7811,-1.476731 -6.96345,-1.706502 -9.91325,-1.043726 -4.77229,1.072264 -10.61727,4.518769 -15.99098,9.429124 -2.29967,2.101386 -4.73869,3.8207 -5.42004,3.8207 -2.14633,0 -2.41865,-2.776116 -0.65581,-6.685382 1.48906,-3.302151 1.55539,-4.31626 0.53254,-8.140603 -1.58564,-5.928516 -3.10803,-7.322693 -8.72219,-7.987609 -5.9308,-0.702415 -7.12953,-0.06369 -4.2021,2.239018 3.40675,2.679755 4.66699,8.913546 2.96238,14.653568 -1.62602,5.475405 -3.70508,7.570683 -11.25105,11.338775 -7.92876,3.959241 -18.12158,5.483363 -26.42018,3.950582 -8.89461,-1.642869 -22.57598,-7.190137 -23.29124,-9.443702 -1.02643,-3.233998 0.3439,-3.909011 6.57988,-3.241194 6.53799,0.700159 12.83254,-0.720364 22.53498,-5.085577 6.14289,-2.763741 12.62781,-7.88697 12.62781,-9.976244 0,-0.775989 -0.96718,-1.309132 -2.37491,-1.309132 -2.35392,0 -10.85706,3.811999 -13.56259,6.080178 -3.32122,2.784337 -11.11246,4.361211 -20.41297,4.131394 -5.07848,-0.12549 -9.70628,0.06397 -10.284,0.421027 -0.65934,0.407492 -1.16144,-0.313598 -1.3486,-1.936813 -0.41452,-3.594979 -3.06327,-3.797912 -6.44297,-0.493627 -2.72862,2.667733 -2.76172,2.811373 -1.48287,6.436027 2.89189,8.19648 12.01144,15.070107 27.33031,20.599523 6.64077,2.397019 8.70068,2.698538 18.2661,2.673713 7.27462,-0.01884 12.97823,-0.58561 17.53592,-1.742447 10.49442,-2.663694 11.55211,-1.442934 6.83908,7.893525 -4.51045,8.93516 -3.47787,19.34689 3.06093,30.86393 5.6335,9.92252 9.12657,11.36234 9.12657,3.76194 0,-5.44796 1.04876,-7.99875 4.47789,-10.89105 2.33818,-1.97213 2.38024,-2.1859 1.15859,-5.88753 -1.4508,-4.39597 -1.09902,-4.94802 4.20727,-6.60256 7.45594,-2.32482 8.76297,-5.61875 4.6402,-11.69399 -4.80648,-7.082756 -1.33395,-8.879812 7.17304,-3.712096 8.99529,5.464346 16.20983,5.577396 21.6904,0.339853 3.90988,-3.736472 6.98952,-3.404672 9.36496,1.009003 0.97129,1.80469 2.82095,4.23047 4.11034,5.39062 5.2289,4.70478 16.63507,1.31654 23.41285,-6.954867 3.02352,-3.689794 3.71114,-4.060753 7.52708,-4.060753 3.76269,0 4.36573,0.311034 5.79661,2.989762 2.267,4.244028 7.59754,9.737898 11.44077,11.791318 4.19795,2.24295 8.68439,9.63098 10.17961,16.7632 1.0872,5.18596 3.14175,12.28128 4.91428,16.97134 0.95424,2.52492 3.24521,2.75388 4.47944,0.44771 z M 737.57812,96.871519 c -2.8758,-0.782653 -1.96009,-3.92018 1.40625,-4.818269 2.79269,-0.745046 3.02967,-1.099244 2.84054,-4.245555 -0.16452,-2.736795 0.13007,-3.432695 1.45312,-3.432695 2.49137,0 3.90947,1.900693 3.90947,5.23989 0,5.067566 -4.67653,8.599101 -9.60938,7.256629 z M 755.625,87.1875 c 0,-1.543447 0.48592,-1.936398 2.10937,-1.705829 1.16016,0.164768 2.10938,0.932391 2.10938,1.705829 0,0.773437 -0.94922,1.541061 -2.10938,1.705829 -1.62345,0.230569 -2.10937,-0.162382 -2.10937,-1.705829 z m -545.27586,32.69876 c 1.5655,-2.23505 0.87708,-5.06288 -2.17806,-8.94687 -0.9853,-1.25259 -2.08116,-3.62872 -2.43526,-5.28029 -0.9845,-4.59185 -1.23494,-4.66636 -5.18065,-1.54129 -4.86807,3.85558 -4.72004,5.29886 0.62566,6.1005 l 4.30582,0.6457 -0.4494,3.39612 c -0.24717,1.86786 -0.75743,4.34534 -1.13392,5.50549 -0.60913,1.87707 -0.36858,2.10938 2.18416,2.10938 1.86061,0 3.35819,-0.69886 4.26165,-1.98874 z m 651.093,0.72751 c 0.5757,-0.69367 1.31456,-2.60037 1.6419,-4.2371 0.55248,-2.76242 5.00933,-7.62667 6.98789,-7.62667 1.16645,0 1.10695,-3.49016 -0.0719,-4.21875 -1.71417,-1.05942 -1.0605,-5.961947 0.9375,-7.03125 4.57056,-2.446097 -0.65998,-6.802307 -5.35855,-4.462814 -1.81596,0.904195 -2.96898,2.971177 -4.91172,8.805074 -1.39628,4.19292 -3.45355,9.17406 -4.57172,11.06921 -1.11815,1.89514 -2.03301,4.68722 -2.03301,6.20462 0,2.50899 0.28684,2.75891 3.16646,2.75891 1.74155,0 3.63748,-0.56755 4.21318,-1.26123 z m -13.28647,-10.73224 c 3.26736,-2.077 6.47107,-15.092742 4.07886,-16.571209 -1.04922,-0.648457 -2.85557,2.393626 -2.86869,4.831173 -0.005,0.936244 -1.0242,3.882306 -2.2648,6.546826 -2.51239,5.39599 -2.14104,7.22461 1.05463,5.19321 z M 219.375,108.22764 c 0,-0.80292 -0.39967,-3.2287 -0.88814,-5.39062 -0.48848,-2.16192 -1.1404,-5.512801 -1.44873,-7.446395 -0.91068,-5.711114 -4.24536,-4.165951 -4.21199,1.951678 0.0122,2.233247 2.1712,9.633677 3.38221,11.593117 0.82015,1.32705 3.16665,0.80258 3.16665,-0.70778 z m 621.19732,-1.13262 c 1.78373,-1.18012 4.11518,-6.55843 4.11518,-9.493132 0,-3.289491 -1.14431,-4.238545 -4.18913,-3.474347 -1.68928,0.423984 -2.35312,1.415587 -2.82751,4.223522 -0.34098,2.018207 -1.40452,4.379477 -2.36343,5.247277 -0.95891,0.86781 -1.51585,2.171 -1.23765,2.896 0.53217,1.3868 4.72841,1.77444 6.50254,0.60068 z m -613.03517,-7.01689 c -0.0217,-2.191411 0.28086,-4.89293 0.67239,-6.00338 0.56339,-1.597872 0.2785,-2.156542 -1.36587,-2.678446 -2.80891,-0.891512 -3.87025,0.982478 -3.19138,5.634946 0.82458,5.65114 1.35439,7.03125 2.6992,7.03125 0.82253,0 1.21217,-1.30935 1.18566,-3.98437 z M 204.375,95.15625 c 0,-4.036225 -0.11837,-4.21875 -2.73582,-4.21875 -3.96555,0 -5.70168,0.893051 -5.70168,2.932903 0,1.086281 1.01774,2.196478 2.57812,2.812341 1.41797,0.55965 3.21094,1.369547 3.98438,1.799765 0.77344,0.430228 1.51172,0.807038 1.64062,0.837357 0.12891,0.03028 0.23438,-1.843304 0.23438,-4.163616 z M 636.14423,82.418314 c 0.34645,-0.560553 0.17829,-1.470798 -0.37368,-2.022768 -1.16991,-1.169907 -4.21334,0.831805 -3.36115,2.210679 0.71356,1.154571 2.97547,1.040767 3.73483,-0.187911 z m 10.55491,-3.91629 c 0.37312,-1.937419 -2.33326,-3.242907 -3.76164,-1.814524 -1.42838,1.428383 -0.1229,4.134759 1.81452,3.761647 0.89799,-0.172935 1.77419,-1.049141 1.94712,-1.947123 z m 9.08211,-6.301685 c 0,-2.833466 -2.42093,-3.551738 -4.60607,-1.366592 -1.22753,1.227539 -1.31756,1.835363 -0.4302,2.904568 1.80651,2.176709 5.03627,1.190405 5.03627,-1.537976 z M 103.92236,68.721212 c 1.66015,-2.966521 -4.661941,-14.325216 -9.311444,-16.729568 -3.00064,-1.551689 -9.83599,-1.834692 -10.696194,-0.442852 -0.314014,0.508085 1.981401,3.548379 5.100922,6.75621 3.119521,3.207831 5.671856,6.110231 5.671856,6.449779 0,0.339547 0.874369,1.72894 1.943044,3.087539 2.221603,2.824305 5.951516,3.273876 7.291816,0.878892 z m 23.96971,0.08473 c 0.81562,-0.312974 1.48293,-1.346698 1.48293,-2.297161 0,-2.448514 2.4368,-3.507655 6.91876,-3.007205 6.2956,0.702958 11.59279,-4.885723 7.69614,-8.119651 -2.34614,-1.94712 -7.39946,-2.144387 -15.5524,-0.60712 -9.81878,1.851368 -11.97301,4.009473 -9.25453,9.271201 2.51463,4.867175 4.95454,6.200703 8.7091,4.759941 z m 823.5449,-1.798505 c 0.94378,-0.883086 1.04859,-1.894578 0.39834,-3.845323 -0.66853,-2.005516 -2.56931,-3.513585 -7.84322,-6.222614 -7.41101,-3.806822 -8.65569,-3.917373 -22.56561,-2.004265 -3.85744,0.530534 -4.42506,0.377495 -4.97018,-1.340048 -0.34806,-1.096653 0.0165,-3.160914 0.83914,-4.751781 2.12302,-4.105447 1.79064,-7.190378 -1.12357,-10.428602 -2.32572,-2.5843 -3.22061,-2.898813 -9.14062,-3.212485 -3.60938,-0.191243 -10.14844,-0.629048 -14.53125,-0.972899 -7.21361,-0.565942 -8.36408,-0.418391 -12.14065,1.557069 -6.37847,3.33647 -6.16964,4.844543 0.55129,3.981278 9.81756,-1.261006 13.61641,-0.816256 19.83321,2.321971 3.98639,2.012324 5.81865,3.484862 5.81865,4.676288 0,0.956472 1.72339,3.903524 3.82975,6.549005 3.59199,4.511346 4.09228,4.809963 8.05847,4.809963 2.32581,0 5.42632,-0.707429 6.89003,-1.572065 2.20464,-1.302317 2.91314,-1.363052 4.12902,-0.353958 1.76495,1.464776 1.90864,3.465871 0.29585,4.120276 -1.81027,0.73454 1.1291,2.461687 4.21875,2.478891 1.92207,0.01071 2.57813,0.477412 2.57813,1.834028 0,1.00082 -0.42876,2.084658 -0.95279,2.408529 -0.52404,0.323873 -0.71448,0.97447 -0.4232,1.445771 0.75887,1.227871 14.71493,-0.04234 16.25046,-1.479029 z M 752.11368,62.8125 c 1.07659,0 2.71322,0.683978 3.63695,1.519951 3.5726,3.23315 6.54157,-2.218824 3.08865,-5.671736 -1.76772,-1.767727 -9.80077,-2.011722 -11.46428,-0.348215 -1.4692,1.469208 -1.44686,6.615636 0.0352,8.097656 0.92187,0.921875 1.32302,0.67156 1.95312,-1.21875 0.51137,-1.534107 1.48809,-2.378906 2.7504,-2.378906 z M 110.625,56.17638 l 0,-7.573621 3.78344,-3.859684 c 4.95453,-5.054377 4.59618,-6.636473 -1.64569,-7.265504 -3.66836,-0.369683 -5.56368,-1.151985 -7.66239,-3.16267 -2.61052,-2.501032 -3.12219,-2.629792 -8.019019,-2.017973 -4.3889,0.548357 -5.736718,0.340705 -8.37599,-1.290455 -3.71655,-2.296954 -6.904455,-2.475385 -9.666141,-0.541025 -1.101643,0.771621 -4.675982,1.931777 -7.942974,2.578125 -5.103048,1.009596 -5.983806,1.484668 -6.250988,3.37172 -0.31091,2.1959 -0.30885,2.196325 7.03125,1.454489 14.663719,-1.482007 19.643184,-0.198282 27.228427,7.019594 4.897685,4.660476 5.979265,6.332729 7.847385,12.133059 1.19171,3.700161 2.50559,6.727565 2.91972,6.727565 0.41413,0 0.75297,-3.408129 0.75297,-7.57362 z m 478.30196,2.340374 c 0.35887,-2.020152 0.67679,-5.653385 0.70651,-8.07385 0.0952,-7.755196 2.50658,-9.297403 18.1009,-11.576549 3.83683,-0.560761 4.35255,-1.700184 1.96408,-4.33941 -2.27084,-2.509249 -10.0383,-2.293397 -14.76656,0.410352 -4.96355,2.838301 -6.96802,5.815999 -9.05089,13.445392 -2.0548,7.526572 -2.14425,8.763452 -0.87523,12.101233 1.2897,3.392191 3.13345,2.467231 3.92119,-1.967168 z m 137.69216,0.97061 c 3.32041,-1.313201 8.35744,-2.684701 11.19338,-3.04778 4.50173,-0.576347 5.1966,-0.945525 5.47415,-2.908386 l 0.31789,-2.248242 -9.5783,0.659694 c -9.22903,0.635639 -9.76395,0.565763 -14.66958,-1.916259 l -5.09128,-2.575952 -2.30157,2.759156 c -3.53152,4.23363 -3.99944,5.387041 -3.12508,7.703083 1.68418,4.461105 8.8724,5.097717 17.78039,1.574686 z M 620.625,58.125 c 2.12588,-2.12588 2.52785,-7.308326 0.62353,-8.039078 -0.6883,-0.264129 -3.32502,0.287206 -5.85937,1.225188 -3.68785,1.364901 -4.66398,2.182681 -4.88873,4.095668 -0.49622,4.223609 6.68988,6.152915 10.12457,2.718222 z M 154.90006,51.796875 c 0.79237,-0.902344 1.71397,-2.539567 2.04802,-3.638273 0.44094,-1.450312 2.50245,-2.670424 7.52404,-4.453125 3.80419,-1.350512 7.29701,-2.455477 7.76185,-2.455477 0.46485,0 1.6151,-0.562997 2.55615,-1.251104 1.45395,-1.063159 -0.12698,-1.219564 -10.52388,-1.04115 -6.72918,0.115475 -12.69192,0.492432 -13.25055,0.837682 -1.29349,0.799419 -1.32649,9.434606 -0.0452,11.828704 1.1999,2.242018 2.07859,2.280645 3.92958,0.172743 z M 703.82812,40.706494 c 4.34061,-0.884258 2.09748,-2.989222 -5.81402,-5.455901 -4.35787,-1.358715 -8.17964,-2.884997 -8.49283,-3.391741 -1.03099,-1.668179 -5.95445,-1.039727 -6.98829,0.892016 -2.33211,4.35761 -0.68875,7.57667 4.3225,8.467011 3.5261,0.626477 12.75161,0.348513 16.97264,-0.511385 z"
     id="path3426"
     inkscape:connector-curvature="0" />
</svg>
